<svg xmlns="http://www.w3.org/2000/svg" id="svgRoot" class="svg-root" width="1316px" height="216px" viewBox="0 0 1316 216"><style></style><g><g visibility="hidden"><rect stroke="none" fill="none" visibility="hidden" x="0px" y="0px" width="1316px" height="216px"></rect><g visibility="inherit"><rect fill="none" stroke="none" x="40px" y="40px" width="1236px" height="136px"></rect><text x="40px" y="40px" visibility="inherit" font-size="9pt" dy="-14px"><tspan class="text label" dy="-14px" x="40px">array</tspan></text><g visibility="inherit"><rect stroke="black" width="80px" height="85px" fill="none" x="58px" y="65px"></rect></g><g visibility="visible"><rect stroke="black" width="100px" height="60px" fill="none" visibility="visible" x="158px" y="78px"></rect><text x="165px" y="96px" visibility="inherit" font-size="9pt" dy="5px"><tspan class="text" dy="5px" x="165px">a123</tspan></text><text x="158px" y="78px" visibility="inherit" font-size="9pt" dy="-14px"><tspan class="text label" dy="-14px" x="158px">c1</tspan></text></g><g visibility="visible"><rect stroke="black" width="100px" height="60px" fill="none" visibility="visible" x="298px" y="78px"></rect><text x="305px" y="96px" visibility="inherit" font-size="9pt" dy="5px"><tspan class="text" dy="5px" x="305px">b124</tspan></text><text x="298px" y="78px" visibility="inherit" font-size="9pt" dy="-14px"><tspan class="text label" dy="-14px" x="298px">c2</tspan></text></g><g visibility="visible"><rect stroke="black" width="100px" height="60px" fill="none" visibility="visible" x="438px" y="78px"></rect><text x="445px" y="96px" visibility="inherit" font-size="9pt" dy="5px"><tspan class="text" dy="5px" x="445px">c125</tspan></text><text x="438px" y="78px" visibility="inherit" font-size="9pt" dy="-14px"><tspan class="text label" dy="-14px" x="438px">c3</tspan></text></g><g visibility="visible"><rect stroke="black" width="100px" height="60px" fill="none" visibility="visible" x="578px" y="78px"></rect><text x="585px" y="96px" visibility="inherit" font-size="9pt" dy="5px"><tspan class="text" dy="5px" x="585px">d126</tspan></text><text x="578px" y="78px" visibility="inherit" font-size="9pt" dy="-14px"><tspan class="text label" dy="-14px" x="578px">c4</tspan></text></g><g visibility="visible"><rect stroke="black" width="100px" height="60px" fill="none" visibility="visible" x="718px" y="78px"></rect><text x="725px" y="96px" visibility="inherit" font-size="9pt" dy="5px"><tspan class="text" dy="5px" x="725px">e127</tspan></text><text x="718px" y="78px" visibility="inherit" font-size="9pt" dy="-14px"><tspan class="text label" dy="-14px" x="718px">c5</tspan></text></g><g visibility="visible"><rect stroke="none" width="100px" height="60px" fill="none" visibility="visible" x="858px" y="78px"></rect><text x="858px" y="78px" visibility="inherit" font-size="9pt" dy="-14px"><tspan class="text label" dy="-14px" x="858px">...</tspan></text></g><g visibility="visible"><rect stroke="black" width="100px" height="60px" fill="none" visibility="visible" x="998px" y="78px"></rect><text x="998px" y="78px" visibility="inherit" font-size="9pt" dy="-14px"><tspan class="text label" dy="-14px" x="998px">c7</tspan></text></g><g visibility="visible"><rect stroke="black" width="100px" height="60px" fill="none" visibility="visible" x="1138px" y="78px"></rect><text x="1138px" y="78px" visibility="inherit" font-size="9pt" dy="-14px"><tspan class="text label" dy="-14px" x="1138px">c8</tspan></text></g></g></g></g></svg>
