<svg xmlns="http://www.w3.org/2000/svg" id="svgRoot" class="svg-root" width="640px" height="64px" viewBox="0 0 640 64"><style></style><g><g visibility="hidden"><rect stroke="none" fill="none" visibility="hidden" x="0px" y="0px" width="512px" height="64px"></rect><g visibility="inherit"><rect fill="none" stroke="none" x="0px" y="0px" width="512px" height="64px"></rect><text x="0px" y="0px" visibility="inherit" font-size="9pt" dy="-14px"><tspan class="text label" dy="-14px" x="0px">array</tspan></text><g visibility="visible"><rect stroke="black" fill="none" width="64px" height="64px" visibility="visible" x="0px" y="0px"></rect><text x="10px" y="10px" visibility="inherit" font-size="9pt" dy="5px"><tspan class="text" dy="5px" x="10px">a123</tspan></text></g><g visibility="visible"><rect stroke="black" fill="none" width="64px" height="64px" visibility="visible" x="64px" y="0px"></rect><text x="74px" y="10px" visibility="inherit" font-size="9pt" dy="5px"><tspan class="text" dy="5px" x="74px">b124</tspan></text></g><g visibility="visible"><rect stroke="black" fill="none" width="64px" height="64px" visibility="visible" x="128px" y="0px"></rect><text x="138px" y="10px" visibility="inherit" font-size="9pt" dy="5px"><tspan class="text" dy="5px" x="138px">c125</tspan></text></g><g visibility="visible"><rect stroke="black" fill="none" width="64px" height="64px" visibility="visible" x="192px" y="0px"></rect><text x="202px" y="10px" visibility="inherit" font-size="9pt" dy="5px"><tspan class="text" dy="5px" x="202px">d126</tspan></text></g><g visibility="visible"><rect stroke="black" fill="none" width="64px" height="64px" visibility="visible" x="256px" y="0px"></rect><text x="266px" y="10px" visibility="inherit" font-size="9pt" dy="5px"><tspan class="text" dy="5px" x="266px">e127</tspan></text></g><g visibility="visible"><rect stroke="none" fill="none" width="64px" height="64px" visibility="visible" x="320px" y="0px"></rect><text x="330px" y="10px" visibility="inherit" font-size="9pt" dy="5px"><tspan class="text" dy="5px" x="330px">...</tspan></text></g><g visibility="visible"><rect stroke="black" fill="none" width="64px" height="64px" visibility="visible" x="384px" y="0px"></rect></g><g visibility="visible"><rect stroke="black" fill="none" width="64px" height="64px" visibility="visible" x="448px" y="0px"></rect></g></g></g></g></svg>
