<svg xmlns="http://www.w3.org/2000/svg" id="svgRoot" class="svg-root" width="640px" height="332px" viewBox="0 0 640 332"><style></style><g><g visibility="inherit"><rect stroke="none" fill="none" x="0px" y="0px" width="172px" height="332px"></rect><g visibility="inherit"><path d="M 74,48 C 74,64   98,64   98,48 M 74,48 C 74,32   98,32   98,48 M 86,60 L 86,84 M 61,72 L 111,72 M 86,84 L 61,96 M 86,84 L 111,96" stroke="black" width="100px" height="60px" fill="none" x="36px" y="36px"></path><text x="36px" y="36px" visibility="inherit" font-size="9pt" dy="-14px"><tspan class="text label" dy="-14px" x="36px">actor1</tspan></text></g><g visibility="inherit"><rect stroke="black" width="100px" height="60px" fill="none" x="36px" y="136px"></rect><text x="36px" y="136px" visibility="inherit" font-size="9pt" dy="-14px"><tspan class="text label" dy="-14px" x="36px">node1</tspan></text></g><g visibility="inherit"><path d="M 136,236 C 136,250   36,250   36,236 M 136,236 C 136,222   36,222   36,236 M 136,236 L 136,296 C 136,310   36,310   36,296 L 36,236" stroke="black" width="100px" height="60px" fill="none" x="36px" y="236px"></path><text x="36px" y="236px" visibility="inherit" font-size="9pt" dy="-14px"><tspan class="text label" dy="-14px" x="36px">store1</tspan></text></g><g visibility="inherit"><path d="M86 96 L86 136" stroke="black" x="86px" y="96px" width="0px" height="40px"></path></g><g visibility="inherit"><path d="M 86 196 L 86 236 M 93.26384799583275 221.7438956129861 L 86 236 M 78.73615200416725 221.7438956129861 L 86 236" stroke="black" x="86px" y="196px" width="0px" height="40px"></path></g></g></g></svg>
