<svg xmlns="http://www.w3.org/2000/svg" id="svgRoot" class="svg-root" width="640px" height="516px" viewBox="0 0 640 516"><style></style><g><g visibility="inherit"><rect stroke="none" fill="none" x="0px" y="0px" width="536px" height="516px"></rect><g visibility="inherit"><rect stroke="black" width="100px" height="60px" fill="none" x="218px" y="36px"></rect><text x="218px" y="36px" visibility="inherit" font-size="9pt" dy="-14px"><tspan class="text label" dy="-14px" x="218px">a</tspan></text></g><g visibility="inherit"><rect stroke="black" width="100px" height="60px" fill="none" x="218px" y="136px"></rect><text x="218px" y="136px" visibility="inherit" font-size="9pt" dy="-14px"><tspan class="text label" dy="-14px" x="218px">b</tspan></text></g><g visibility="inherit"><rect stroke="black" width="100px" height="60px" fill="none" x="218px" y="236px"></rect><text x="218px" y="236px" visibility="inherit" font-size="9pt" dy="-14px"><tspan class="text label" dy="-14px" x="218px">c</tspan></text></g><g visibility="inherit"><rect fill="none" stroke="none" x="40px" y="340px" width="456px" height="136px"></rect><text x="40px" y="340px" visibility="inherit" font-size="9pt" dy="-14px"><tspan class="text label" dy="-14px" x="40px">g2</tspan></text><g visibility="inherit"><rect stroke="black" width="100px" height="60px" fill="none" x="78px" y="378px"></rect><text x="78px" y="378px" visibility="inherit" font-size="9pt" dy="-14px"><tspan class="text label" dy="-14px" x="78px">d</tspan></text></g><g visibility="inherit"><rect stroke="black" width="100px" height="60px" fill="none" x="218px" y="378px"></rect><text x="218px" y="378px" visibility="inherit" font-size="9pt" dy="-14px"><tspan class="text label" dy="-14px" x="218px">e</tspan></text></g><g visibility="inherit"><rect stroke="black" width="100px" height="60px" fill="none" x="358px" y="378px"></rect><text x="358px" y="378px" visibility="inherit" font-size="9pt" dy="-14px"><tspan class="text label" dy="-14px" x="358px">f</tspan></text></g></g><g visibility="inherit"><path d="M 298 96 L 298 236 M 305.26384799583275 221.7438956129861 L 298 236 M 290.73615200416725 221.7438956129861 L 298 236" stroke="black" dx="30px" x="298px" y="96px" width="0px" height="140px"></path></g><g visibility="inherit"><path d="M 268 196 L 268 236 M 275.26384799583275 221.7438956129861 L 268 236 M 260.73615200416725 221.7438956129861 L 268 236" stroke="black" x="268px" y="196px" width="0px" height="40px"></path></g><g visibility="inherit"><path d="M 178 408 L 358 408 M 343.74389561298614 400.73615200416725 L 358 408 M 343.74389561298614 415.26384799583275 L 358 408" stroke="black" x="178px" y="408px" width="180px" height="0px"></path></g><g visibility="inherit"><path d="M 318 428 L 358 428 M 343.74389561298614 420.73615200416725 L 358 428 M 343.74389561298614 435.26384799583275 L 358 428" stroke="black" dy="20" x="318px" y="428px" width="40px" height="0px"></path></g></g></g></svg>
