<svg xmlns="http://www.w3.org/2000/svg" id="svgRoot" class="svg-root" width="640px" height="460px" viewBox="0 0 640 460"><style></style><g><g visibility="inherit"><rect stroke="none" fill="none" x="0px" y="0px" width="396px" height="460px"></rect><g visibility="inherit"><rect stroke="black" width="100px" height="60px" fill="none" x="148px" y="16px"></rect><text x="148px" y="16px" visibility="inherit" font-size="9pt" dy="-14px"><tspan class="text label" dy="-14px" x="148px">node</tspan></text></g><g visibility="inherit"><rect fill="none" stroke="none" x="40px" y="100px" width="316px" height="136px"></rect><text x="40px" y="100px" visibility="inherit" font-size="9pt" dy="-14px"><tspan class="text label" dy="-14px" x="40px">clients</tspan></text><g visibility="inherit"><path d="M 116,150 C 116,166   140,166   140,150 M 116,150 C 116,134   140,134   140,150 M 128,162 L 128,186 M 103,174 L 153,174 M 128,186 L 103,198 M 128,186 L 153,198" stroke="black" width="100px" height="60px" fill="none" x="78px" y="138px"></path><text x="78px" y="138px" visibility="inherit" font-size="9pt" dy="-14px"><tspan class="text label" dy="-14px" x="78px">User</tspan></text></g><g visibility="inherit"><rect stroke="black" width="100px" height="60px" fill="none" x="218px" y="138px"></rect><text x="218px" y="138px" visibility="inherit" font-size="9pt" dy="-14px"><tspan class="text label" dy="-14px" x="218px">Browser</tspan></text></g></g><g visibility="inherit"><rect fill="none" stroke="none" x="40px" y="284px" width="316px" height="136px"></rect><text x="40px" y="284px" visibility="inherit" font-size="9pt" dy="-14px"><tspan class="text label" dy="-14px" x="40px">servers</tspan></text><g visibility="inherit"><rect stroke="black" width="100px" height="60px" fill="none" x="78px" y="322px"></rect><text x="78px" y="322px" visibility="inherit" font-size="9pt" dy="-14px"><tspan class="text label" dy="-14px" x="78px">App</tspan></text></g><g visibility="inherit"><path d="M 318,322 C 318,336   218,336   218,322 M 318,322 C 318,308   218,308   218,322 M 318,322 L 318,382 C 318,396   218,396   218,382 L 218,322" stroke="black" width="100px" height="60px" fill="none" x="218px" y="322px"></path><text x="218px" y="322px" visibility="inherit" font-size="9pt" dy="-14px"><tspan class="text label" dy="-14px" x="218px">DB</tspan></text></g></g></g></g></svg>
