<svg xmlns="http://www.w3.org/2000/svg" id="svgRoot" class="svg-root" width="640px" height="584px" viewBox="0 0 640 584"><style></style><g><g visibility="inherit"><rect stroke="none" fill="none" x="0px" y="0px" width="564px" height="584px"></rect><g visibility="inherit"><rect fill="#ffe" stroke="none" x="40px" y="40px" width="484px" height="136px"></rect><text x="40px" y="40px" visibility="inherit" font-size="9pt" dy="-14px"><tspan class="text label" dy="-14px" x="40px">c1</tspan></text><g visibility="inherit"><path d="M 120,90 C 120,106   144,106   144,90 M 120,90 C 120,74   144,74   144,90 M 132,102 L 132,126 M 107,114 L 157,114 M 132,126 L 107,138 M 132,126 L 157,138" stroke="black" fill="none" width="100px" height="60px" x="82px" y="78px"></path><text x="82px" y="78px" visibility="inherit" font-size="9pt" dy="-14px"><tspan class="text label" dy="-14px" x="82px">me</tspan></text></g><g visibility="inherit"><rect stroke="black" fill="none" width="100px" height="60px" x="230px" y="78px"></rect><text x="230px" y="78px" visibility="inherit" font-size="9pt" dy="-14px"><tspan class="text label" dy="-14px" x="230px">browser1</tspan></text></g><g visibility="inherit"><rect stroke="black" fill="none" width="100px" height="60px" x="378px" y="78px"></rect><text x="378px" y="78px" visibility="inherit" font-size="9pt" dy="-14px"><tspan class="text label" dy="-14px" x="378px">tool1</tspan></text></g></g><g visibility="inherit"><rect fill="#ffe" stroke="none" x="40px" y="224px" width="484px" height="320px"></rect><text x="40px" y="224px" visibility="inherit" font-size="9pt" dy="-14px"><tspan class="text label" dy="-14px" x="40px">service1</tspan></text><g visibility="inherit"><rect fill="#fef" stroke="none" x="82px" y="266px" width="176px" height="236px"></rect><text x="82px" y="266px" visibility="inherit" font-size="9pt" dy="-14px"><tspan class="text label" dy="-14px" x="82px">az1</tspan></text><g visibility="inherit"><rect stroke="black" fill="none" width="100px" height="60px" x="120px" y="304px"></rect><text x="120px" y="304px" visibility="inherit" font-size="9pt" dy="-14px"><tspan class="text label" dy="-14px" x="120px">proxy1</tspan></text></g><g visibility="inherit"><rect stroke="black" fill="none" width="100px" height="60px" x="120px" y="404px"></rect><text x="120px" y="404px" visibility="inherit" font-size="9pt" dy="-14px"><tspan class="text label" dy="-14px" x="120px">backend1</tspan></text></g></g><g visibility="inherit"><rect fill="#fef" stroke="none" x="306px" y="266px" width="176px" height="236px"></rect><text x="306px" y="266px" visibility="inherit" font-size="9pt" dy="-14px"><tspan class="text label" dy="-14px" x="306px">az2</tspan></text><g visibility="inherit"><rect stroke="black" fill="none" width="100px" height="60px" x="344px" y="304px"></rect><text x="344px" y="304px" visibility="inherit" font-size="9pt" dy="-14px"><tspan class="text label" dy="-14px" x="344px">proxy2</tspan></text></g><g visibility="inherit"><rect stroke="black" fill="none" width="100px" height="60px" x="344px" y="404px"></rect><text x="344px" y="404px" visibility="inherit" font-size="9pt" dy="-14px"><tspan class="text label" dy="-14px" x="344px">backend2</tspan></text></g></g></g><g visibility="inherit"><path d="M 182 108 L 230 108 M 215.7438956129861 100.73615200416725 L 230 108 M 215.7438956129861 115.26384799583275 L 230 108" stroke="black" x="182px" y="108px" width="48px" height="0px"></path></g><g visibility="inherit"><path d="M 378 108 L 330 108 M 344.25610438701386 115.26384799583275 L 330 108 M 344.25610438701386 100.73615200416725 L 330 108" stroke="black" x="378px" y="108px" width="-48px" height="0px"></path></g><g visibility="inherit"><path d="M 265.39823008849555 138 L 184.60176991150442 304 M 197.3720982347918 294.36056461635616 L 184.60176991150442 304 M 184.30951352531855 288.0026694037807 L 184.60176991150442 304" stroke="black" x="265.39823008849555px" y="138px" width="-80.79646017699113px" height="166px"></path></g><g visibility="inherit"><path d="M 295.1327433628319 138 L 378.8672566371681 304 M 378.93218021644117 288.0001317215155 L 378.8672566371681 304 M 365.96125241453626 294.5429891083171 L 378.8672566371681 304" stroke="black" x="295.1327433628319px" y="138px" width="83.73451327433622px" height="166px"></path></g><g visibility="inherit"><path d="M 170 364 L 170 404 M 177.26384799583275 389.74389561298614 L 170 404 M 162.73615200416725 389.74389561298614 L 170 404" stroke="black" x="170px" y="364px" width="0px" height="40px"></path></g><g visibility="inherit"><path d="M 394 364 L 394 404 M 401.26384799583275 389.74389561298614 L 394 404 M 386.73615200416725 389.74389561298614 L 394 404" stroke="black" x="394px" y="364px" width="0px" height="40px"></path></g></g></g></svg>
