<svg xmlns="http://www.w3.org/2000/svg" id="svgRoot" class="svg-root" width="640px" height="768px" viewBox="0 0 640 768"><style></style><g><g visibility="inherit"><rect stroke="none" fill="none" x="0px" y="0px" width="396px" height="768px"></rect><g visibility="inherit"><rect fill="none" stroke="none" x="40px" y="40px" width="316px" height="136px"></rect><text x="40px" y="40px" visibility="inherit" font-size="9pt" dy="-14px"><tspan class="text label" dy="-14px" x="40px">g1</tspan></text><g visibility="inherit"><rect stroke="black" fill="none" width="100px" height="60px" x="78px" y="78px"></rect><text x="78px" y="78px" visibility="inherit" font-size="9pt" dy="-14px"><tspan class="text label" dy="-14px" x="78px">a</tspan></text></g><g visibility="inherit"><rect stroke="black" fill="none" width="100px" height="60px" x="218px" y="78px"></rect><text x="218px" y="78px" visibility="inherit" font-size="9pt" dy="-14px"><tspan class="text label" dy="-14px" x="218px">b</tspan></text></g></g><g visibility="inherit"><rect fill="none" stroke="none" x="40px" y="224px" width="316px" height="136px"></rect><text x="40px" y="224px" visibility="inherit" font-size="9pt" dy="-14px"><tspan class="text label" dy="-14px" x="40px">g2</tspan></text><g visibility="inherit"><rect stroke="black" fill="none" width="100px" height="60px" x="78px" y="262px"></rect><text x="78px" y="262px" visibility="inherit" font-size="9pt" dy="-14px"><tspan class="text label" dy="-14px" x="78px">c</tspan></text></g></g><g visibility="inherit"><rect fill="none" stroke="none" x="40px" y="408px" width="316px" height="136px"></rect><text x="40px" y="408px" visibility="inherit" font-size="9pt" dy="-14px"><tspan class="text label" dy="-14px" x="40px">g3</tspan></text><g visibility="inherit"><rect stroke="black" fill="none" width="100px" height="60px" x="148px" y="446px"></rect><text x="148px" y="446px" visibility="inherit" font-size="9pt" dy="-14px"><tspan class="text label" dy="-14px" x="148px">d</tspan></text></g></g><g visibility="inherit"><rect fill="none" stroke="none" x="40px" y="592px" width="316px" height="136px"></rect><text x="40px" y="592px" visibility="inherit" font-size="9pt" dy="-14px"><tspan class="text label" dy="-14px" x="40px">g4</tspan></text><g visibility="inherit"><rect stroke="black" fill="none" width="100px" height="60px" x="148px" y="630px"></rect><text x="148px" y="630px" visibility="inherit" font-size="9pt" dy="-14px"><tspan class="text label" dy="-14px" x="148px">e</tspan></text></g></g></g></g></svg>
