<svg xmlns="http://www.w3.org/2000/svg" id="svgRoot" class="svg-root" width="640px" height="332px" viewBox="0 0 640 332"><style></style><g><g visibility="inherit"><rect stroke="none" fill="none" x="0px" y="0px" width="172px" height="332px"></rect><g visibility="inherit"><rect stroke="black" width="100px" height="60px" fill="none" x="36px" y="36px"></rect><text x="43px" y="54px" visibility="inherit" font-size="9pt" dy="5px"><tspan class="text" dy="5px" x="43px">content here</tspan></text><text x="36px" y="36px" visibility="inherit" font-size="9pt" dy="-14px"><tspan class="text label" dy="-14px" x="36px">node1</tspan></text></g><g visibility="inherit"><path d="M 74,148 C 74,164   98,164   98,148 M 74,148 C 74,132   98,132   98,148 M 86,160 L 86,184 M 61,172 L 111,172 M 86,184 L 61,196 M 86,184 L 111,196" stroke="black" width="100px" height="60px" fill="none" x="36px" y="136px"></path><text x="36px" y="136px" visibility="inherit" font-size="9pt" dy="-14px"><tspan class="text label" dy="-14px" x="36px">a user</tspan></text></g><g visibility="inherit"><path d="M 136,236 C 136,250   36,250   36,236 M 136,236 C 136,222   36,222   36,236 M 136,236 L 136,296 C 136,310   36,310   36,296 L 36,236" stroke="black" width="100px" height="60px" fill="none" x="36px" y="236px"></path><text x="43px" y="254px" visibility="inherit" font-size="9pt" dy="5px"><tspan class="text" dy="5px" x="43px">k1: v1</tspan></text><text x="36px" y="236px" visibility="inherit" font-size="9pt" dy="-14px"><tspan class="text label" dy="-14px" x="36px">store!</tspan></text></g></g></g></svg>
