<svg xmlns="http://www.w3.org/2000/svg" id="svgRoot" class="svg-root" width="640px" height="132px" viewBox="0 0 640 132"><style></style><g><g visibility="inherit"><rect stroke="none" fill="none" x="0px" y="0px" width="452px" height="132px"></rect><g visibility="inherit"><rect stroke="black" fill="none" width="100px" height="60px" x="36px" y="36px"></rect><text x="36px" y="36px" visibility="inherit" font-size="9pt" dy="-14px"><tspan class="text label" dy="-14px" x="36px">node1</tspan></text></g><g visibility="inherit"><path d="M 214,48 C 214,64   238,64   238,48 M 214,48 C 214,32   238,32   238,48 M 226,60 L 226,84 M 201,72 L 251,72 M 226,84 L 201,96 M 226,84 L 251,96" stroke="black" fill="none" width="100px" height="60px" x="176px" y="36px"></path><text x="176px" y="36px" visibility="inherit" font-size="9pt" dy="-14px"><tspan class="text label" dy="-14px" x="176px">actor1</tspan></text></g><g visibility="inherit"><path d="M 416,36 C 416,50   316,50   316,36 M 416,36 C 416,22   316,22   316,36 M 416,36 L 416,96 C 416,110   316,110   316,96 L 316,36" stroke="black" fill="none" width="100px" height="60px" x="316px" y="36px"></path><text x="316px" y="36px" visibility="inherit" font-size="9pt" dy="-14px"><tspan class="text label" dy="-14px" x="316px">store1</tspan></text></g></g></g></svg>
