<svg xmlns="http://www.w3.org/2000/svg" xmlns:svgns="http://www.w3.org/2000/svg" width="640px" height="132px" viewBox="0 0 640 132"><style></style><g><g visibility="inherit"><g stroke="none" fill="none" x="0px" y="0px" width="172px" height="132px"><g><path d="M0 0 C0 0, 0 0, 0 0 M0 0 C0 0, 0 0, 0 0 M0.5492912848600404 3.499017959477732 C1.6886873030782659 1.2192899451027488, 1.689552028447908 1.0218937898740814, 2.866708649627798 -0.8824693256130463 M0.3127123093080809 2.656591952056705 C0.7780383362689285 1.732831850883531, 1.8344303015558996 1.0148091398072192, 2.6817237454004164 -0.5616916693046927 M0.546594897607078 7.351263652158728 C0.915489050205395 5.078505671142487, 2.1846320160009385 3.4442918058052916, 6.376874444763684 0.5778918027867226 M0.49206841650943434 6.923608991799367 C0.8101977257531011 5.834382939932825, 2.630370879594206 2.9050657026383857, 4.757804668663442 0.5855945081789812 M1.0316897589682577 9.402478823066378 C1.0418881977824759 6.348756362715976, 6.306276699557822 4.603043073962462, 9.129857884091603 -1.2997546596171714 M-0.6645510780028588 9.44879473789722 C1.9824341635952172 6.445186112925215, 3.0885827215729407 4.761037294426144, 7.923220076983153 0.18929225144975304 M-0.896288232032433 15.214549821146452 C1.571475258986022 10.225634575959619, 4.26775708126595 2.7465551897367115, 12.08436043362889 -0.5619134485949138 M0.8080421139344249 13.202959492332543 C3.097965817368986 8.796906294542259, 7.19116668888746 3.9679862917422346, 9.508073265408429 1.4004628005672681 M2.498093763574629 14.615734805125019 C0.9832445763869488 10.574555743868377, 11.085691761272738 2.641664121777687, 14.751867003745758 2.706792581698081 M0.21865995805341587 15.856283168043387 C2.511761514658305 8.893248358286183, 8.232676392309566 5.7499325054857975, 13.163389263403733 0.9787775005111117 M3.7839503242320536 17.910143016469135 C2.628317150787871 8.514889130377023, 13.205179440121965 2.7042439610523044, 11.91202317300285 0.7840329204542025 M1.158419029942766 17.875838151515786 C5.669802569791534 11.468673301220289, 10.480344760618568 5.714663810196342, 16.77868968146857 1.9206129131557148 M-2.1548212562549924 19.033995609469628 C9.376725778193737 16.59349743527048, 9.939032195725352 2.696188445974041, 21.37280641779664 1.0775629901737531 M-0.8358821238040939 21.17208187674317 C4.124880184818286 13.194974892770457, 11.016153675606642 9.931965674986163, 19.95200361613181 1.5775759631201591 M-1.051657663866104 20.172678731590942 C6.93050454997894 13.013124866547177, 13.922081596326878 5.6723339219691535, 22.629715088321497 1.61587651328475 M0.45412070491615886 24.04169532380974 C5.3967554415268015 20.6850594539139, 10.143989549560146 16.04044641541259, 19.868998226156727 0.2084958640551111 M-0.422784660379385 24.767081765112778 C5.757039977469608 13.491979711659075, 19.691670806663275 2.683583556191131, 27.373139039530592 -1.2637706586676263 M0.7541946092111225 28.025197125665276 C4.396396970566122 20.252080900581273, 11.637766058743036 14.499992599857048, 22.670750377422316 -1.5139395968003369 M0.9573128548428524 33.941050111669284 C6.339216478749572 21.716593436926146, 15.483140959242197 19.134087162487134, 24.635611474372055 1.8227686966301793 M-1.3385253409572222 29.72786418878574 C8.704602168422753 20.709166721048987, 15.913415814413943 14.581054182945806, 27.291223827582996 1.6982135556719156 M3.7140672702541 34.6292573651655 C8.893807908525197 23.126549018495396, 15.727959196429953 17.60459461854749, 31.073938755680587 3.336507534242232 M-1.134719855124417 31.593511921989908 C8.845346892161299 20.187992910123043, 20.88554108598412 10.068476699808741, 28.23356316197439 1.6302050446887018 M-3.2851637595348944 36.909726557388915 C14.40452721557249 22.874804129333242, 21.435854079555327 14.195530934478331, 35.12523906240186 -1.7342625192867835 M0.049096967708678996 37.925611957537114 C10.01353611828226 26.06801275616465, 18.749596121608516 13.471973333245671, 31.6690088957654 0.576977540871864 M2.921950072257234 41.998835409370734 C16.200047824294366 22.496687964358983, 28.762070978377317 5.532452007072473, 32.90754232947088 -0.23079175726056178 M-1.8661323346034697 40.194859791480546 C12.232561525054685 25.73359788894089, 20.4270015238105 11.911927412953023, 33.39655359445391 -2.283779570143804 M-2.179761633146054 43.606695794291596 C13.025949781725418 29.358895177272775, 27.248041815023946 8.572563073079195, 40.62432690448689 0.22122022826788168 M-1.3270018179621843 41.74964341029857 C14.92250134065159 27.361135671475722, 28.25244453786243 13.534601683066409, 37.31846646817368 -0.8636209243274227 M1.5359219047259032 47.59852449742228 C13.560402013140674 35.98240306260806, 25.70658679709819 23.309120920179545, 39.42055660052693 0.5484461801827454 M-0.8324146068809597 47.821280558386626 C12.244040673220944 29.96881423819293, 25.897043939478145 16.16274228442376, 40.374820058249725 1.0452703844432598 M-4.072003791184752 47.48883837915082 C16.870872029637937 34.4348446278973, 36.06237005247479 13.33193704347904, 42.17455618978772 -1.0199101054515367 M1.780989249629278 48.72282533865177 C17.922484904444065 30.2754603123447, 33.911098375024466 11.064922278823833, 43.63365045729728 -1.0579388634966183 M-3.7878935932614013 51.90370879567097 C14.406139167790316 40.370521195570774, 23.86861772169393 18.88568680368224, 43.42319100077565 2.666513951482484 M0.9433177320383059 53.593993619097134 C16.50804835465996 31.88891065931143, 31.346376186355204 16.510053984509106, 45.4993445136005 0.052593659480494104 M0.27241254831089456 57.66881722975695 C13.371047727317046 39.53858500298527, 32.74052714119116 20.127153152501265, 49.85327182968122 -0.2699685850224238 M1.6482956014939614 55.111580336103216 C11.90996989703934 43.252129418170576, 18.27914093614154 29.081889748723114, 46.582028580622435 1.983464702602089 M3.5678639079442913 55.09379074880165 C10.799401969667212 48.93441381114656, 19.58918703933142 33.093676621913794, 46.74127716595997 -1.557463629085479 M0.9111557902085963 56.259662427767324 C18.21975889676061 35.30325569617992, 37.70075121856151 12.345348590170516, 52.31471551509246 -0.5273147697809462 M-0.9667655673716897 62.18311325533019 C15.45515994115232 41.78353393720742, 27.676714813185278 28.857462466389457, 50.89303730234827 0.7566781224476422 M1.352003957816831 59.903387266623994 C21.870960588095926 37.580466356633714, 39.5659457524276 16.967182176098735, 51.58963385339342 1.70885794757696 M2.3588418506959528 61.18290512349256 C13.614727312295535 45.10561492298474, 29.631831584897245 30.227757343300766, 57.52849684255749 -3.5711730984546843 M-0.12561231101784642 62.30453685035751 C12.270199739148492 50.7667397422493, 24.25003824677138 35.247856909490345, 55.194366004241914 -1.006565421366962 M-3.4948542850981568 66.30435532124498 C18.104355520763605 42.24759627849052, 39.45909679710653 17.78835891649214, 58.206997694937584 1.8371801826302647 M-1.2986002160408745 68.86017929034709 C14.936293447431947 52.95360052494305, 27.6345261647437 33.34516038051641, 59.786471834342564 -0.4806483310522758 M2.1020250007369032 72.87015577161873 C17.09373948620525 52.985687578043944, 29.962262550258195 34.42645343681183, 62.08010094654163 0.4147252620727393 M0.4776463027766784 71.97788809886158 C15.939203375459108 55.47153607617393, 29.158405551102057 38.16253267876112, 62.12429528690074 1.8984088431422563 M-0.5360613031231889 75.27170925398428 C21.71814985197963 45.32314133021685, 43.546908374564055 24.09779992342127, 60.67532903113356 2.448736734182015 M0.07295407725695036 73.22412625900303 C14.989064876475297 55.32774943451823, 30.148049307831442 35.51196680489247, 65.39065488941523 -0.6295988409149906 M3.6420426067085323 72.77374739295331 C17.258506434587716 53.43318686565813, 36.608008306481956 29.946276068687016, 67.97532437405293 -2.6792286790651456 M-0.8980358286198475 78.56343303385285 C17.04398402126317 56.728509880411174, 36.3813461673909 37.100640767683444, 65.97280515941853 -0.6436374685687003 M-3.9227955291009415 79.71583934819475 C14.309592310528476 58.15461625243949, 31.750283078152044 37.52858008826634, 66.55729908399938 -0.2355855655635839 M-1.4206728925482572 80.02202719694067 C14.826871023851465 60.31883239385601, 35.19969936593033 39.82191545509708, 68.04737928504713 -0.9447906766611665 M-2.569776156673367 85.51786666726007 C22.778861954224844 55.302296825037956, 43.38333537595794 30.865991909675202, 74.97802661657977 2.5539802445956763 M-1.8333064242948005 83.49593988645287 C25.127685627109077 53.40004267950646, 54.22314772135137 20.112749123036302, 72.3749096764578 0.7313053493248507 M-0.446380115039565 83.77107974073262 C23.83190659536133 59.15888311466275, 52.035618788443855 25.3597790806271, 73.61952998859859 -1.5675189339570714 M-1.272461612625695 86.28540368986472 C27.8697618693491 51.9943157013277, 53.70038003310398 22.52398489868185, 74.23677163020056 -1.4434932686288695 M2.3113196135083403 88.01403095596518 C15.347474370448131 63.90092446514396, 40.94736225398323 45.21937622693799, 75.65102124845828 -2.1636459762250997 M-1.1135712921924572 87.10865944779754 C17.669474044435415 67.4721150358815, 34.682621761261984 48.11351514692171, 74.71927966323965 0.9026570634866333 M3.430632712904778 90.69353178938475 C20.11612643357671 65.5868479724121, 35.57289969132162 43.10504436396691, 75.85122558940505 -2.6499803648659803 M1.3766943395485916 92.55755755398704 C20.83528013796944 64.38677664471841, 46.79131945590687 34.0034453550919, 81.31787156060405 1.3427661267026547 M-1.2015228263059807 90.47796059465357 C28.12797448762869 60.95455283402863, 56.20904810297093 30.819417957831035, 79.01565196614925 3.469724607449667 M-1.7625016331154226 93.23786432754947 C24.12130053525507 64.10292506535015, 49.08318214808869 38.18219724995973, 84.15700350637896 0.368535433044217 M-2.804232313798673 95.2143094965874 C33.63056088500693 60.693728699068295, 66.1432076341151 23.688228022877873, 84.47781167503581 -0.3498151873804005 M0.7914993045011833 97.50860689931747 C31.93299564937216 63.009872352912694, 62.05811898827271 25.553578605908694, 85.50262192889198 1.2417878371461937 M1.7710665668006769 99.2595753947827 C23.452519294500433 73.73095110985099, 53.55164918624771 42.099013606124714, 89.28265174175779 0.032032654908812574 M-1.7887696093092122 100.19499380541778 C25.011075571980253 68.83675296070957, 55.177642033180426 36.84069865655119, 87.16416714736552 -1.4426298844003167 M-3.605810472573074 100.01780311453926 C20.575418274001457 81.35178635451707, 38.59819532132361 58.33456547998425, 93.01797892715852 2.55264358113501 M1.6189429652288432 103.43920522511921 C25.41666458669983 73.00788877531545, 49.93170482538564 47.158617349269605, 89.18788787966425 -0.590150125803544 M-0.41446018023526143 108.56349217666003 C29.035869880002785 69.51749097563516, 61.99433263094359 35.965276479584254, 94.9662112505185 -1.9108938006453862 M-0.5444361745564361 105.77826550752495 C27.0929389632613 75.81632778085536, 50.679493115918866 45.21007665345274, 94.37507655630998 -1.9674908211751747 M-0.3068947043212251 107.3180962202212 C34.735790988911205 68.76484006306423, 69.65028361827785 36.54986534438103, 94.89851869676824 2.321357028184714 M-1.418879476985916 110.05942022017489 C27.465303187141654 77.73687730185813, 53.65739553601061 48.5325936678293, 96.65022904565855 0.013422784019471834 M-3.8001456316006195 112.33805472819682 C23.57438824427151 88.696454157022, 49.97873151489206 58.78787499808448, 95.08339884472886 -3.4793917381745345 M0.6540467379210346 113.86164716649054 C30.478726544660233 80.4722438054096, 56.55385407906077 48.03337489821004, 97.55891666248283 -0.15393078721428743 M-1.7518070111335025 118.2794593805249 C26.825420705354816 89.54734650693277, 51.83549216332008 60.670830283300575, 101.5072225064633 -1.9779707429280364 M0.5307877003306158 115.51525934904669 C29.33297134435279 81.68099756367913, 57.551846123177675 49.502764326237575, 102.02217081820585 0.1539104195492298 M-1.884804377120462 121.02691294943807 C25.59920506977296 90.85039118412772, 50.82529647542412 59.640341341525556, 101.23408551718188 -3.355027789856017 M0.028695344044352922 118.11767837253366 C41.64815408029784 72.05135492772543, 82.26048066342042 25.69482610954688, 104.8324102637179 0.237584665395139 M-2.1926675465558834 120.08719387951373 C21.58200255658053 96.63126216780408, 48.62775286488258 66.07567430805612, 106.87901680215893 -2.2237966578192534 M-1.8833964022558236 123.50993526504003 C22.643984665661783 95.38859682900865, 45.48895414170781 70.60914315594856, 107.94887674663556 1.4712877106597642 M-0.7456814597696582 121.2845640170415 C44.74259562960507 76.79717901495314, 80.79219229730082 33.7852147829417, 105.62072117159816 3.486491411182982 M1.9924463501590797 126.48493835936314 C33.57110480906324 87.80633146108691, 66.97613219462623 47.927735915463714, 106.49006701375681 -1.3779107631826495 M2.1599411534054234 125.04678275321265 C38.41140017924405 89.07359655815807, 73.84555487582477 48.93735781225526, 114.92596223059381 2.20452104380921 M-0.7018723712701789 127.01167480136085 C23.02227960805482 98.85672131191372, 48.02045081187 68.4194878547931, 111.34378707215706 1.88691102477424 M-2.73561553694017 134.2724917667393 C46.4007040148914 79.42937239311274, 96.87724058625884 28.732481369641555, 117.41133461147727 0.2802008789598016 M1.4314494501198194 132.33433343631316 C46.161746031995705 79.27338772432364, 91.4754793971209 26.410978634049155, 114.52062626275492 1.4061819234106245 M4.526930990059023 132.50760316070898 C39.13055414347754 97.03583404421894, 69.31886403433572 51.13254094099425, 118.20087815327405 -2.4496602445393574 M2.0225582248282183 131.18268762208703 C36.37993157940187 87.63854546470994, 73.62052223123834 45.87545602139045, 116.03399278727011 0.09504871580144414 M3.0799152743242484 133.48733425381872 C42.83047893432618 82.60666378349754, 83.92850050943453 39.76842178744623, 121.45719385746776 0.24767983165030039 M4.633744542668009 130.39310370008275 C43.824703521774516 85.77956879665928, 82.341333045224 41.75391552797311, 120.39124162134826 -1.7134261817029248 M7.184013228478616 133.19862263720194 C37.87886394023357 98.4609099173343, 63.082267515846866 71.57741017995137, 121.07705535009603 1.8319217041619371 M7.93747118275907 131.303091780806 C41.7358081594318 91.34963566930354, 76.58981737364195 48.958537690825345, 123.46547145140721 1.826649714922624 M10.92833105738043 135.97719924902327 C49.62025321392334 82.75400991917824, 94.1691890761092 32.77867600440102, 125.36507873150371 1.0126066372731284 M7.676331975574038 133.0991670029497 C51.63149697266638 90.0162040298278, 89.67491048199831 46.29016098837168, 125.10090103954235 1.1358076193576743 M13.927316645553223 132.52176048452137 C45.31352667210063 90.8483751068698, 84.79767207811798 56.13035798362349, 123.41218038752152 0.37955883891290476 M13.423228471286084 131.71212540092148 C50.796285508678224 87.75125645320315, 90.03412625884484 45.63399850321358, 126.20232438967733 -0.5075852183670362 M13.160035971443348 128.37927508117858 C48.86840012374955 101.36951352207417, 78.31068789397771 63.58899559573706, 133.24828888645564 -2.598998602506448 M15.679434030739547 130.79484299264305 C51.47672560253422 95.19291416043076, 86.54012530350161 54.52103530796608, 128.53371333866428 -1.6073674552654058 M21.075066692903057 133.22116723031505 C49.389173986428624 94.01096311728737, 86.88994817088371 52.61153663154387, 134.98271373982982 1.8600833444932885 M18.602376654175774 130.29382889070442 C64.2506429657336 80.15708169226087, 106.52540517010881 28.809287510273084, 133.8230482163947 1.5458033165824743 M19.832554819529676 130.10378138627985 C53.2763623256444 89.9046655789511, 84.63290957231081 55.14518341827712, 131.6637951880091 -0.3809743484809207 M21.41603504724831 131.05573859806645 C49.3200045409709 95.37861871578359, 80.24596079268552 60.95619924704302, 133.90221914524497 1.1698047089190018 M20.803102221666343 128.7875564715999 C52.85883985568541 95.62587085448284, 81.04648635463995 60.29748176876631, 137.03418585578245 1.6328108416269291 M22.133517374036522 130.98598330813172 C67.60845752695202 86.10119129095536, 110.31840148244983 33.574093478572706, 137.85453516521073 0.7640506847952455 M24.477895154201647 128.4924070401475 C58.4649312823847 95.20927998992488, 80.02140603477301 66.93299671324824, 140.65570706735545 -0.9113268026209091 M27.481523447574443 134.016632795423 C67.61272851294025 85.97238625538381, 104.90835965342711 40.14658446651273, 138.98723635180812 -1.166724653405005 M28.60121831516013 134.4773147215319 C62.493204981883494 100.34508449547121, 91.86559742901966 62.10263840788137, 142.36877591457744 2.208565339863421 M27.924357403251882 132.7504607204897 C52.41608452307559 105.5611803032674, 79.60972811189616 73.85265630549343, 142.2912660612625 -1.1879632307736037 M32.86683408164985 135.76233619033695 C72.25327117117338 82.9132584438575, 119.998216368767 36.86762166548269, 146.08818997861547 0.9548582753185979 M31.486926689787026 133.26162368533497 C69.11129645758066 90.28165132800419, 107.02926499578005 46.77889493829904, 146.77652417384814 0.4176893643151125 M30.55451283100518 132.2719136170065 C61.27038121396936 102.5325295820405, 83.76488166374658 77.90518084027644, 144.91849563759433 0.6587286401116028 M32.64817120514912 132.93832685645197 C62.49649103853008 99.18648356717388, 90.45069311870883 70.81469540368126, 146.83963071371252 -1.1054630614950423 M37.28665457826675 130.99866028519958 C77.7880133348722 76.64568659199172, 124.6657269846318 31.831474341315065, 149.08106945217816 1.344320252541177 M36.29373396435135 130.19920691013996 C67.3269716391708 96.3126808626273, 98.85891116851921 59.43176236444681, 150.45166540821606 -0.7026095770588823 M40.82364630066006 131.1871791008849 C79.01959524806966 87.4998685293542, 115.72268285697311 46.63613546536506, 150.0640956939893 -3.7205865542574568 M40.785625266913875 132.2805819934667 C79.50880789294227 85.03567009082886, 118.04337142664217 39.37613958922679, 153.82884998078882 0.0073636528819038816 M43.77603416629412 135.70208821137595 C88.96876990727556 78.45103461249721, 132.74710284701337 28.954846875739896, 157.27391508009748 1.3421965267548543 M40.08800969899491 131.85286638235854 C80.40635665749136 91.66160994937898, 120.38202926630305 47.07406091714195, 157.91690942824332 1.4641615046878078 M47.25997488610416 129.26254649114674 C91.15910275586565 87.72612657000558, 127.50937555610368 33.30782745467219, 160.3743325084116 -2.713634358665029 M43.312290164835986 133.96415572410305 C81.17723032087194 88.59380534222419, 117.2021285432827 46.062525374212214, 159.1836741320778 0.2623125231607766 M46.09593589313669 134.3357834528685 C84.42843417741923 90.24696129049117, 110.76569769407656 52.5320095442792, 163.99809216333148 -2.858527091062447 M46.89885086023679 133.89200299860718 C70.6899340065816 103.28288833609771, 95.45827832762531 72.28534847082766, 161.79275849499487 -0.493022237321024 M53.5299550932114 129.18596277988908 C90.56956360209922 86.4238470280041, 129.97088342169155 38.27921436508398, 167.95167226913648 0.9730778193940246 M47.970996158412056 129.92461256256055 C88.95604591696684 85.67622019101938, 130.35196336300845 36.85660394838052, 162.55363995440456 -2.0694585809521246 M55.61226368038878 130.4499177240712 C76.39465097462447 105.5050696831437, 102.83085125828494 69.9611005647257, 168.27688693100689 -2.184607770357287 M52.7092380661174 133.86191080389088 C81.62309761145559 99.14240494254732, 112.90783550846687 62.284814186568845, 166.9682745729247 0.7076830630030386 M50.69328403249882 132.03107641861223 C95.97486503623608 86.01784077046796, 138.49351899865272 35.96929584352669, 170.79222110990312 0.6200974824660577 M55.84365082509161 133.17839059282105 C85.76676653467553 96.57668183292616, 114.8014016160132 60.76792339454344, 168.17214663750428 -0.31022469370871875 M54.91469081884103 134.8795892902481 C102.61498902637297 79.41534581526209, 147.59599936123178 26.912651356846247, 172.15659942149705 -2.3771740518652553 M57.74966437487144 131.9447724189997 C90.81647418671574 89.4769182606673, 126.11606320652768 51.37041372729205, 172.83634495241145 1.785363118360408 M57.88946454449794 131.03028644849806 C101.81143798283472 88.36936546324976, 141.68578286583718 36.26965635320288, 172.2645009005291 4.413369236190148 M61.509670717161086 131.11617859610988 C96.14941214872705 95.47725042393472, 131.34907298700267 55.27556973761125, 173.1217346719939 2.562624753983318 M59.90046745751199 133.38673458566558 C89.81508841274473 93.52421744971602, 125.81501559035289 56.25062492772031, 173.91109575660676 3.176436084660688 M60.98873282743098 130.5281857078285 C89.7049221469867 100.24415317281604, 116.76684201504713 70.92459865425806, 173.5824344097646 8.248053054638795 M68.8838116376526 133.92279985063752 C105.34852794252339 91.06684756694943, 143.03456215155987 49.87537680116898, 170.74890423619846 11.43301605624566 M65.3581499723055 131.684871827182 C96.13551877603616 92.57681028357406, 130.3180339607046 53.918332481461256, 171.32915753591797 8.12939724482224 M66.17192884226753 132.58834752226548 C111.39643595838943 91.28712268987547, 150.9723387873085 41.516903838100376, 168.767043334057 9.667048336668248 M69.51330493042327 130.26365694042133 C104.99132706708126 87.96643189214528, 142.61165231193803 45.002242628167046, 171.44746155928675 11.507939345147864 M72.33454902459574 136.52549651448052 C94.45608593631457 104.70848181210482, 121.19400806698926 76.15640080497386, 169.8208619614281 12.662726258355738 M71.0084325774101 132.2181335492748 C107.63532652202913 89.91976522795191, 142.35271957063907 49.08367750544101, 172.0429042949881 16.601918304327704 M72.72704984861852 130.18807851813577 C106.60889723402875 92.7494554614572, 140.76494636079238 53.65836660614537, 169.11533158533933 20.735599095653182 M72.14299659942456 131.11685803512796 C102.85622860233092 98.56886435460682, 130.40536053523917 69.65472353460224, 173.78434088447105 16.55886175671325 M75.22864583209483 136.12481614530472 C102.6759752547616 97.88457363013187, 135.8857830748221 60.2843189105068, 172.6201937703311 17.601880091438105 M77.14454232194026 132.95197827732574 C114.19093933553417 90.88754505196071, 152.63399676341388 45.11627377418116, 170.4068709064805 22.176047713065294 M79.21752904125435 128.67349031654103 C114.32886465798063 93.95210508872482, 148.86589344029014 49.649606332427574, 170.97967263300325 21.342218567252026 M77.12065894774004 132.91889123594868 C99.15290729930551 104.04388386187294, 122.43190092034763 77.44653673384428, 170.92618586430268 23.674615568787647 M81.22062019683857 131.00981869461197 C110.72333703771825 97.63343613432754, 132.8682866223213 70.57393172194752, 173.54750141279678 29.18527692246866 M82.73580756939845 132.42716403451547 C103.09948675649945 103.89483949335998, 128.18201268062614 79.22661690379732, 171.89714542100273 26.63464515898751 M85.83849989550392 128.63528096430377 C109.9638842047582 98.39365883992815, 138.23138471545883 69.76572451969908, 173.27735975975045 33.486374945160144 M84.61553480901827 132.9199320486446 C110.87695764906957 97.56858332475912, 142.72552016115478 63.7543375310922, 171.09280010361917 29.735626434679574 M89.50647228618121 134.3260027160054 C108.04980038527194 108.9030869750476, 125.50783827092857 90.23025101933573, 170.55364004270817 35.16805404693943 M87.98772777718273 130.39227955908996 C108.68809775838554 108.06428465087127, 127.82317719389172 85.63685005098652, 171.51560082947464 34.21236882150497 M86.41741721303269 128.98182181821355 C120.89080880203821 97.55640817856437, 145.73618572659342 69.67837757040488, 173.8722846229932 34.86696639204555 M90.70417586276294 131.70541428853278 C111.28638331358917 102.0008915742133, 138.13117217511757 74.31114201551054, 172.09734936390697 37.39253078288306 M94.56945809497417 135.29538641135056 C117.30286135936107 97.5967930424181, 147.18771827710407 66.12745172439617, 173.0472653383442 43.032012359207556 M92.71960570520154 132.09560453862457 C112.3647145797748 105.38895956989454, 135.47374296559087 83.41154518020964, 172.66108739364572 38.045940668507264 M95.14232010028495 133.15393986583135 C124.06812675629088 99.14022815922668, 148.72307461422216 73.56827929009934, 169.27363040573792 39.07796408851111 M92.46710375676923 130.42602579275234 C121.00680667496108 101.94888147689974, 147.25473214239003 73.96447383255158, 171.3058382199136 42.695348965232334 M93.80670722150072 132.1831864801591 C118.6319214517512 107.96887545025814, 145.16963001134286 80.98810496874938, 175.62899393164543 49.41319702895377 M96.86249996051114 132.00970447746357 C117.19463292050713 109.74522221550117, 136.05989355189635 87.25934786330699, 170.82797035039562 48.03323956113097 M99.33208730070956 132.4834737974133 C117.01294961383836 112.01470053403393, 134.3775487308111 90.25545693152684, 174.7503703775667 45.71136625144616 M98.81675322532942 133.80806913644756 C125.17392146596954 104.16670154539717, 148.59870461739172 75.13222949918996, 171.08379774134514 50.3831763642489 M102.7773686586917 130.70528563451856 C121.21915075294373 105.28670217398133, 150.5824299491878 75.81923519097772, 172.68094614608927 55.18261886744659 M100.23812635164427 132.61886670067713 C123.15883988104292 106.85699718697289, 143.38674489976233 83.55778705722685, 170.35972342961557 51.84844613559791 M101.28333708776503 131.00635565895186 C130.20269824688486 102.3590077408107, 161.77389713642066 71.02298543301448, 174.4308601865141 56.96693016058075 M106.44589084504202 131.69465596685444 C129.1463087894116 105.12179375941807, 151.8250652925762 76.68373164084986, 173.2534216237627 55.90333215045345 M105.31855009068173 134.6567229183248 C122.9496582941844 113.85075812812855, 139.5106401551246 100.0566050188961, 168.59845563845656 62.00685345449077 M108.99458179926536 131.37125928165838 C122.16173408758829 111.75267158349511, 140.15028290698075 97.03968004610623, 172.5843315456648 59.45644413683128 M111.17878095274277 132.82468440523445 C124.46314881480355 114.55987876511233, 143.66592652813483 96.3276104707602, 171.51317651640488 58.741818495718626 M109.24558471258372 133.74172181998173 C132.73816974297662 109.85152812532898, 149.40693021324932 87.94144574574563, 172.07723298789145 62.44546414336645 M110.92672739815748 133.49840425664388 C133.9797368873199 107.52939811792507, 162.30813504725606 77.11308690892675, 172.21346209651148 64.21555355665188 M114.4407127584942 130.8076792716015 C129.4754613746809 115.94829793220033, 143.570304646843 95.85583409970819, 171.87779604868595 62.64362535600974 M112.2509558933059 134.10190638529255 C136.91325111462695 113.80054591750921, 150.61157125986085 88.54251240559454, 173.59278962186931 69.88647091436738 M115.1075603181871 134.02689146829795 C128.15479032257596 117.14918750377845, 145.09007273652585 100.46583458941164, 170.38262671985188 68.24937777694454 M119.02615462649361 134.06081764023213 C134.184222016584 106.76574654107843, 151.70168937995223 92.16917079225722, 170.55310998140362 69.04427627770852 M116.71322951747295 131.0504813094663 C130.81854503315398 118.76037609798273, 146.05008282075323 102.21082435121698, 170.36309511570946 71.48593799274647 M124.07066366175955 132.93594316421485 C138.07687692907382 115.10282401937611, 147.42362122718987 98.094459303045, 172.69147245232588 70.23553690795 M119.0643098832085 131.56179453727322 C137.3081517508436 114.05586507808347, 153.00583894863158 93.91678977211119, 171.35956641759114 74.73798359402153 M125.4784395150975 131.01093062081483 C138.15739864042274 112.89943695096079, 152.34077871827776 96.1831490328089, 169.128988335661 80.45423675722353 M121.73978393569354 130.89999918913446 C135.8206055344014 116.23150902575304, 148.60306180729853 102.72645929506768, 172.47268293564056 74.9642553623621 M122.92558254219887 132.28310938986402 C133.53865437934658 117.6705238856843, 146.26137205027794 108.08600447220206, 174.25190745489684 81.3520137643821 M127.13140270716491 132.36577290763987 C135.1831645842966 120.79938307769244, 145.2979582172163 107.67384924335087, 173.31703962748537 78.02567558112214 M131.78216098152026 129.13754904567276 C137.38437164786515 124.5368443767796, 147.0396640151441 110.21499877110318, 172.03459173002977 84.32424540243937 M130.57793440399993 133.2451476942726 C145.89847739760293 111.49675778148531, 161.07692745557247 94.78705988322807, 174.27054593929682 81.72762638376791 M133.47328616675122 129.43037536518895 C147.6114311644477 115.53400782269118, 159.60820512300455 106.9774101484727, 173.31622544855423 83.98950866834952 M132.68700420501034 132.11607092930905 C138.58634676099496 125.57649760709559, 146.21121749863138 113.45328702201962, 170.30619549587772 85.60376176355709 M136.23670681400117 133.1786166872769 C148.2738674990031 116.84363567880706, 157.83989991580393 108.12512144854618, 173.36586713058648 88.58785779971613 M135.00408942246037 132.12621813012848 C148.20623608947554 114.59512656617696, 161.40425569438344 97.9816250941531, 173.56376537242764 88.51093121696033 M139.5840129564695 129.57090338636127 C150.2606425136929 118.58771455838158, 159.29921679750848 104.4613627248691, 168.94785098740564 91.78768634714248 M136.2654235133978 132.03036788875318 C151.52429291966365 118.18327114322877, 161.66404286678124 103.4075222745163, 172.22497674942852 91.58880693740637 M136.1784899065927 135.22236162199204 C145.3642370990903 121.24776677803101, 155.77049816226042 109.3845424674339, 174.08519562506575 92.95329143308858 M137.93255772919713 132.27292727488737 C150.56426293045976 121.4813953820785, 159.870056888805 108.83721531180082, 171.44255277329285 93.76988859441325 M143.3692475222393 132.29968849725915 C147.68608176736717 122.71686682425171, 154.24334369638973 119.69287094337821, 169.0488441027543 96.21226760978581 M140.42956313886958 134.3744680890407 C151.16632533977844 120.77457716866061, 161.61421775488327 112.42193482478508, 172.63009323495683 98.70830401905089 M140.90587302326335 134.90323324274908 C156.49481041033238 117.12557000574549, 163.44148816627015 108.97068166186446, 173.11029286317847 99.60608370068233 M145.19087880246235 133.55272396502298 C156.51840788981562 120.0043121050027, 163.60681420609802 106.70754749047404, 171.04916004208397 100.93619178569575 M148.18261190934345 129.13428521969405 C156.65370701398234 128.58112834731403, 156.99271528677528 114.45138111145427, 169.79773075479355 100.7643897619206 M145.49684532910365 130.38124084343977 C156.50090945220342 123.59971253409807, 166.06047427655557 113.08343770285133, 173.46624092831954 103.24023881579186 M153.13465272452345 134.30980628714116 C154.82314780247805 120.4671238706749, 163.87252963494385 116.04147511877525, 170.38310085189542 109.68857236103253 M151.35213705087966 132.28766732023445 C158.89121899206023 121.56544673122109, 165.52449249297814 111.77423685041852, 173.51324219453414 107.05431648437718 M154.04941455111384 134.70165094577516 C161.56529234481573 121.42885605993627, 162.3991958924066 117.57780405877348, 174.66085358621015 108.89605103419831 M153.76308442713318 131.99073417535664 C157.37728661276856 123.82811113955125, 164.6690607685669 118.24754172509252, 172.87712340028233 108.56269775604153 M157.7172414673079 129.06768697627234 C157.51217103993133 130.87886044937255, 163.4392770349096 122.69316354399508, 175.6697093387338 111.4973893203283 M156.1311440401881 134.29841708634854 C159.41153604433057 125.60286625787865, 167.31345843062218 119.7582678893944, 171.28227549785794 114.118390931838 M160.91902748314158 134.601132847369 C157.361106728985 128.39381237585013, 168.18757207791205 124.3669806309321, 174.68653180459953 116.6082262221705 M159.45215008426968 132.12751198401142 C163.7653540237632 125.01137117877208, 170.11741134445182 118.12673631621921, 173.76046904809638 115.00914818155 M159.20709864834723 134.39202221006443 C165.33475975764546 129.5986506393598, 166.6066367929405 127.02588911892012, 171.49127779144118 117.12185724081496 M160.90674504603672 130.73255538676415 C165.1526463712927 126.90779701451156, 169.39594903374186 120.89048680845177, 171.5183814897076 118.30868958575469 M160.32311028808024 135.25030160306034 C163.992962013064 129.3743723493455, 167.04669555489605 127.85687897673819, 174.3355085498979 123.60970732541202 M163.6137625808392 132.36866740331058 C165.00450380555262 131.5607250914586, 166.85055171590238 128.83730692434546, 170.92312301431164 122.4368535800682 M166.33154026159428 132.66905006958766 C170.13165247802647 128.09585660443645, 171.11904329737888 127.77413077744202, 171.45195214558203 126.07731924581931 M166.69561087003274 133.04383296560317 C167.3284376888043 130.54705660544232, 169.3531381936597 128.1956808875603, 171.5927951952213 125.41489800885456 M168.51324244635205 131.2592284596589 C170.44811583780464 131.8899786403704, 170.60363470285947 128.9637477466894, 172.85158031180302 127.49961622767606 M168.45614623057054 132.16574823546958 C169.33573851426803 131.38139263492016, 170.27964164509726 129.8053460762736, 171.67613768391735 128.0912867638886 M171.45812082056827 131.8511037968403 C171.754962997063 131.56994843612608, 172.06386594288455 131.52073391942102, 172.2128342974806 131.29316760832353 M171.54495474925147 131.84765037888445 C171.74701262331956 131.62928860629395, 172.06622958634838 131.318335208284, 172.28050512383905 131.11988248090486" stroke="none" stroke-width="0.6" fill="none"></path></g></g><g visibility="inherit"><g stroke="black" width="100px" height="60px" fill="none" x="36px" y="36px"><g><path d="M35.70570493866742 36.33854774095817 C35.70570493866742 36.33854774095817, 35.70570493866742 36.33854774095817, 35.70570493866742 36.33854774095817 M35.70570493866742 36.33854774095817 C35.70570493866742 36.33854774095817, 35.70570493866742 36.33854774095817, 35.70570493866742 36.33854774095817 M35.13533545735864 38.369303042311685 C36.516486803597566 37.65560152619404, 37.35790879799155 37.00906872180729, 38.952691422811704 36.932316762495354 M36.08572047264819 39.55611103495433 C36.32422722088511 38.583446852570034, 37.61474172372452 37.18919127956901, 38.82604215976827 35.80980845708925 M35.686502701544505 40.73785272562434 C39.601304985394435 40.89069642010336, 40.52734423405081 36.51482179347555, 41.90251740301531 35.323850804137216 M36.30918483814706 41.84045287025548 C38.18723286637411 38.977334275821654, 39.93699953140831 37.81224263610391, 42.00138524688517 35.246451996523206 M34.59364095753634 45.970539876346976 C36.89745330846627 40.43396198369293, 38.63068504315274 41.57446829353643, 44.39868940329447 34.791533155093035 M36.301593394127245 44.13563649621335 C38.066811677572716 41.69628589786212, 40.287396118103196 40.84150187019948, 45.215242511556816 35.388508776927154 M35.443071274729434 45.90514892394297 C34.904538544410144 46.07968550703342, 42.177202034853025 45.56928028132463, 49.52989557301029 33.467936140540985 M36.064912557143465 48.6986781414514 C39.071873147098295 43.67929180531085, 41.25211974867678 40.48179631984029, 45.861465865301106 35.139740686371105 M38.089771561373794 50.80311088340347 C40.624592692765205 44.18113607033598, 47.046884942741066 41.622568957017684, 46.68459489827856 32.98114963308731 M35.367623561561814 50.018381046165004 C37.41821773077818 45.83966752275271, 43.224695945480384 45.1972623413278, 50.23810519521383 35.303852563641605 M38.258624139666495 53.16539222280237 C39.31496275283017 50.717283601459016, 44.85260142155529 46.497009204253864, 54.723941485783364 36.34260183195959 M37.973137405452796 52.119698689350834 C41.13077786983133 47.97448225610384, 48.75467366044712 39.44032452652484, 51.294694046528996 35.74006681758752 M34.926419754207906 59.624518069521315 C40.61672433304384 50.37905896058107, 48.21810109111503 41.352156866519536, 53.00140798304129 37.539321409064776 M34.489757824368596 57.18727507857759 C40.99314250820848 49.40709239494872, 46.531475033861724 42.34996885516518, 53.85127313001244 35.27976009666954 M36.260847887787506 56.5618999712039 C43.52549308919886 47.11096882918752, 52.115934793937484 41.246914669322344, 54.74540830541022 38.066421647411275 M34.5656988174501 62.15293657364087 C43.615828999983094 50.157690823345355, 50.1537104736301 42.53590401578227, 55.65008859763923 35.174039294647436 M38.13144089335868 62.369125559886285 C47.05666986123607 51.274813613378775, 54.12621829696699 46.168700137729765, 59.70564721651484 33.696403001717 M36.466637078127754 64.66813596587801 C40.65528723837835 56.26051775016818, 47.287169661412015 51.11206803220203, 58.78004835455124 35.54696917481708 M37.06562620149572 70.27395989651038 C40.71512326637404 53.964065573953945, 55.76379940427379 49.07962117436464, 63.56331863612762 34.23564608384811 M36.53751941717977 67.93738985125772 C44.658477790795615 56.40792859986639, 52.46831460741694 44.93710045533861, 62.12190937163503 36.76723826007835 M36.37272223673267 73.47304543654059 C47.03647859181635 57.676628466754195, 51.53123563008296 52.774482571164555, 61.462416834881466 38.94670478832677 M35.84799807788573 71.24577845351436 C45.01141282949243 57.238053010943524, 53.51285858142736 45.892652691575854, 65.41291118619317 36.936803729476146 M39.101416296043936 75.00657627197435 C49.463621840151454 59.915784746517836, 56.0620555854863 48.32795792823564, 68.59075218990165 32.64755042214419 M37.75399832336227 73.58916901462725 C41.03791567837752 66.33776222845336, 50.572309859243504 57.62944350035388, 67.71608967160086 37.34741219752738 M34.38052207332848 73.38467138960729 C44.227258593412394 60.190311272722134, 56.76666704366517 47.627283484390595, 69.77509185855068 35.22281841342652 M38.12292307859721 76.74581947187656 C47.68201131995028 61.75163877182613, 58.193431265868604 49.04836283839339, 69.979186170496 35.72892093269532 M37.237600006750455 82.23164199502236 C40.95701350245441 69.83793297015711, 50.2227789611128 63.93241943589021, 72.5000932878526 36.764822451806765 M37.44974746991895 77.88895122711351 C48.182786251878376 63.930302602740056, 65.15716359732887 46.075158040590004, 72.12406365415103 36.73710186145146 M38.44314299136679 82.43692200351904 C44.16140198843775 73.14970025664473, 57.71701083351846 58.00311845843315, 74.93527683758401 36.56505278960749 M37.67080419981786 82.35019647717704 C48.108035135511464 70.9120716762393, 57.80569657826218 55.741607317795186, 75.78673940432705 35.17592065077122 M32.87271744837871 82.41421226966689 C50.572177946808864 68.28057752688757, 59.8452541431189 62.43827331452785, 81.05188210582484 38.067734483300704 M37.03577776230602 85.52845923506634 C46.741950472668314 70.15799813097517, 56.76813927466124 59.73685691051768, 79.97121793510735 35.19814527756771 M33.74375405408911 87.06914940891349 C47.54184811425981 70.71387861057379, 63.70328242355421 55.23119388819325, 79.02411426489817 34.78077821885867 M36.90953953141067 88.5393235036761 C52.19095940782119 66.95255912162774, 68.6159717990116 48.86705857831063, 80.42076697065237 35.80272765942294 M35.79824522649075 93.23769495783591 C45.71502993511397 77.80890418781601, 59.71008741540101 61.26927549054841, 86.33251409381579 33.394548182405195 M35.36130513203834 90.93662749945513 C49.79084044674869 74.14990854405875, 63.340304605989424 57.037016125303474, 83.58872185299855 34.15306325457467 M32.92604848001273 92.88159690924014 C55.293673586410705 75.12501254836776, 73.10676621746278 56.67951427558514, 83.33399275208328 34.37844936836921 M35.423346733766635 92.09001240704679 C51.81703759379307 75.299300016673, 70.50561698501518 55.5995965659081, 86.28161767995535 35.09065257390454 M32.57852267603028 96.51352960281106 C50.346358315702794 81.23507677089206, 70.31905504584749 57.480886492418506, 90.43996414153354 34.02675023654178 M36.15089812461315 96.93861540759069 C52.28941507782264 74.11861012409952, 72.03694796391173 52.1793317443545, 88.26910182515661 37.333181512984325 M38.807638857400995 98.23886566747967 C56.432830797013935 77.68935809612063, 64.61481885384693 61.10426954221167, 91.75016559043775 33.997479802329615 M38.019401396554755 98.08071811943884 C55.102379456700135 76.5115650295136, 74.01696674452756 58.538754639177334, 91.88568592782391 34.48528575608461 M42.81477070580949 99.18984823621098 C66.4106048157806 69.0754392118004, 86.17106728849501 45.394935019109866, 94.00986071015774 31.98222231236184 M43.75707216917623 97.40012263647073 C54.66343822101207 77.88021168781584, 70.87105409768739 63.544082592657546, 93.6802589603914 36.25938991976183 M42.945941566152044 94.46886454460281 C62.88749428114994 79.02056438885292, 83.01694637410478 59.75567596225553, 97.739009956017 33.90073472126741 M43.06126899289954 96.04086696078868 C62.29209443256991 76.7070284706908, 80.02079286701796 55.99647245768434, 97.0155439494146 37.54319507759347 M49.48368822829347 94.61725668292777 C62.21430377015743 78.78788526322316, 73.54492799573208 66.83428164811427, 99.40391028513166 32.17703617102782 M48.85515478227579 95.64526364089961 C64.32426849691332 78.37280941652259, 80.87065530926675 56.18060633333022, 101.10650098885661 37.67988584803818 M47.52329932809819 95.97285306936573 C67.77832794956302 74.4921483945872, 84.87769480039026 55.9527356042017, 104.33284119087128 32.01692646936978 M48.06585365792453 96.71358915133237 C67.07778464617682 75.47915923900102, 87.7374380689918 52.26031374200569, 103.46410469809948 34.37770423199575 M55.75399420047296 98.60921430264627 C71.62490639763547 78.15210973800401, 89.6827397710875 58.164830985211914, 103.04187620640788 36.82716866992142 M52.7239594369399 95.21581807666493 C68.31809699046796 73.66519265450712, 87.92240499855056 53.54202871068255, 104.74921478466283 34.21386394414455 M52.7332244394728 95.75305157962418 C67.41912809334589 78.94905356626796, 80.52134737071805 58.15919392853728, 106.26288715323672 34.90253375422882 M54.08163190822633 97.65550803874164 C72.64704053229497 76.17754190162087, 86.02069418805675 60.01640697565446, 106.6107474249852 38.03101123130138 M58.2499880460812 93.36511307943191 C68.34239167271747 82.20013861641404, 77.40657547163858 72.65419333801039, 112.64651418171793 36.1593635860788 M59.023131039109586 96.34351245770546 C78.71515941333216 72.87441035557993, 100.23687920037855 48.974403807231944, 110.30392302550234 37.23950112505525 M60.362804018043725 99.08916941038989 C72.62542154416484 80.63858443290928, 93.93852180703581 62.77998728412597, 109.82243495207535 32.024188465325025 M59.51213879490031 95.05468027953825 C74.46736180045902 80.04508505854805, 88.75475487623312 64.72980284472968, 114.29602164047144 36.64544645837304 M66.13883199108871 92.47821434911903 C78.53439076980521 79.02176449088404, 94.9783219125387 58.997736738787985, 115.80747766374716 33.79631822927011 M61.73936430006275 96.5304703072328 C72.66632474146608 80.04922654359939, 86.44070337172637 66.85984968403928, 114.50585353157945 37.51174289819659 M67.7921998873366 95.03679353368335 C75.51473360944843 83.98545369021424, 92.89846366731555 65.62326025390827, 114.34748619300666 38.799576338183 M64.99077775581205 95.15874630391365 C79.6783974841106 80.32037355242747, 92.08973582384932 66.6314961938891, 117.14514605326274 37.95941128545034 M71.68901140631367 93.70431591151018 C86.84729116657306 71.09266724870487, 107.4098553844721 49.21488931581767, 118.3080899159639 39.113402269096724 M68.33735733738087 95.36435738253233 C85.27809614884127 76.01578834375063, 102.24601401096348 56.92915652694886, 119.7176431630873 36.3630620212332 M74.10026019516313 99.48250150788031 C91.91921811867677 79.75722296798426, 110.4762569980688 54.96976448195693, 126.46771593713319 36.92832770182048 M69.54138220992446 95.30743193667595 C87.47578785984089 79.70146361802352, 99.07891687953693 62.88717750257041, 122.00385043334612 37.12308825576847 M75.83185838132944 99.3648518137089 C91.01236907160644 73.60492225705745, 113.34215634057594 51.11407110431881, 127.60798684633085 33.28996739806412 M73.53152239610517 95.60959986162045 C88.33982334998804 81.09755363031711, 103.67228720878452 64.85974822366882, 127.14559102103055 36.283520189353425 M74.60384384596215 93.7121339701003 C91.1630430094742 84.06812462707379, 107.53247878216665 66.04214141792093, 124.6710035549607 37.259220306783185 M74.76218419863368 96.95665460894782 C96.44073341125328 70.82041100677738, 118.9103706999583 48.00222607572904, 128.7294354893663 37.78093890728073 M75.98335366315892 97.67056075492673 C96.75674338233141 74.66535217116052, 116.6405565755971 61.790992603641136, 131.64982000508482 35.10898217322926 M79.05044711492177 95.31369448626052 C96.35921467774126 80.26408459871024, 112.65560175483644 60.68055475612602, 130.98963351986157 37.139819054765695 M82.13289657478512 93.10632444051184 C97.38998212664917 78.96218453755826, 113.88958264886264 56.21053552049394, 132.80201069266528 37.45209799217487 M80.49546801458295 96.69852303135086 C97.77547115254971 74.76797364714976, 120.25687232745568 54.809855421197746, 134.0206303648808 34.66305793448273 M83.4762486261581 97.84215052378738 C100.43183970498872 77.92284887663082, 123.06017753637539 59.136583721828295, 139.369962385616 38.86874752586314 M84.32515440449811 95.65489711795121 C106.16594657994351 72.90571539771493, 126.64190195180302 49.74122495886267, 137.77592098216496 35.005551820524396 M89.27685098062203 96.13987917128235 C105.25656352023736 82.48092205155265, 119.71724734224597 65.11583091783741, 139.92078286630002 41.38093095522195 M88.57211792889642 95.82788634550364 C104.80862002978898 77.71713492769199, 122.1735317073011 61.305752408768925, 137.7860153659297 38.98291211119191 M85.74576161063425 92.98853669222208 C101.19494193191905 82.54343763048581, 111.82847946728133 63.40225000250295, 132.49013662601573 44.25053256295038 M89.31138459001556 94.37194452392875 C101.42774674062078 82.56815478139002, 116.61937895020829 64.67949214712961, 136.30694286665334 43.58539128028697 M95.35389796905972 99.53819469375276 C109.64145137463687 77.09085881482466, 124.37196808327606 60.4145359871323, 135.1199008390642 46.12715545910628 M92.28921599846542 97.21816448790972 C103.7432516141279 83.59017254981714, 112.75668279642963 69.92872742635635, 137.42607295283307 46.05656904037156 M95.27585948640615 97.1968419340633 C107.09432182084296 82.23390732230848, 125.07793250992698 66.09404989970747, 139.6522247714506 47.26336474374585 M96.29607374704652 94.93531301021858 C108.0071805193011 82.891476775185, 118.71574651067581 69.68053546721849, 137.38185042744888 46.928619531436155 M98.99183724852558 93.71958382001206 C109.02216194387088 83.93774500458231, 123.4479831645204 62.04009456142764, 140.32083283543184 49.97446940695674 M98.75126230937697 97.57019345826194 C108.26191436464079 83.27452601574868, 119.53228595018876 72.001014893807, 136.50698975339944 52.964612367465676 M100.78958336316974 98.17990633941348 C109.04786524927954 85.08272541434133, 117.22414031757943 81.68584393702653, 136.98936685996918 53.587885863249596 M100.33659079747356 95.56891893217097 C110.87463057638203 85.53315776804877, 118.4449665195531 76.68738997128654, 137.4334419749074 56.56543848181909 M99.78214317859667 99.29283540560031 C113.93448872792914 82.50280555659339, 119.2967888681303 76.23089553501461, 132.74644581337947 57.66942348313003 M102.45914797714994 96.23121662330183 C113.52997645588154 83.20641848534888, 127.49098012985766 70.97061450417725, 136.98107186390772 57.54714127267181 M102.62950722067085 94.27514065774304 C109.37116725260245 90.14489924761445, 116.45836792722103 76.67603133387094, 133.68584720748584 58.48963903557981 M103.51501804735776 98.68639369286032 C115.47275412151623 83.54803555450049, 128.67043012073557 70.12666270150007, 138.5685828903247 60.826993917533215 M110.26170037590995 93.64816884911548 C116.43403866496152 83.4376378538789, 124.26952588808504 72.27667873653634, 139.07268534746348 63.8738503004033 M108.03670956324201 97.64690678832076 C115.87029866738689 86.04249065309807, 124.33787999930705 75.60550852263958, 135.1168512909517 63.012282426219905 M111.61118595379506 93.11518280291665 C115.40844801498852 92.29946528399577, 120.35574948498166 78.75659872219815, 137.1938277683398 67.82231070150341 M111.79015756088629 94.66757395765937 C121.36745833720234 83.48079668405722, 129.3991002553987 71.32724511539243, 134.55547196206643 66.93829243473225 M116.63767959866748 98.52665278634517 C122.02661244136114 89.19555885838484, 124.61782005198918 80.06181786580308, 133.81400305730227 70.06130774513217 M112.20025889619049 97.51206126732727 C118.26055313413691 90.14964154650654, 127.08820589098225 80.0444023384067, 134.58705342961434 69.96424351134691 M117.42606156553356 95.70066025283872 C116.12239267784777 92.45176171940763, 127.01839697300964 88.80270667412714, 139.5583849643503 75.63849528630531 M113.97699234766966 96.57767342305556 C124.35069652380248 89.32328011551616, 131.9947194925071 80.75688308511194, 137.97976781322365 71.72079364488717 M119.17762505423457 99.48555186731795 C125.67929569318159 92.22913587516413, 131.1225732369326 82.31100775093074, 137.9142530696803 73.31139781206684 M120.48185562324588 96.15357915809822 C121.6240024288476 91.33835051484044, 126.69435571780302 86.29295940747015, 134.64155550394602 74.72823467654457 M122.27841471507182 95.03199209890695 C124.65263506746085 96.22591346278107, 125.23658169117346 91.40984771886907, 136.19694720903377 79.67420238704102 M121.13377266966206 96.21719248829885 C124.12443828764494 93.7087075365743, 126.7125112314182 86.8860983463001, 135.07962802325437 80.20906893195139 M124.5576547368626 93.29740946885524 C131.37919805052027 88.15722506175126, 135.78567446644828 82.08342974920158, 136.3211686168979 79.83700654118836 M123.20407509799824 95.57152107337849 C129.15916750279905 92.6835386802975, 130.05638675827484 87.53968508014975, 138.0974535142367 80.86917009503331 M125.51200184007057 99.10660655556751 C129.034231426911 91.87924367401878, 129.05268467929287 89.91670745846719, 134.94518903824232 82.44125231717065 M125.76982244372438 95.28091996684329 C128.96905906929334 93.27490959709117, 133.0469631177202 89.87800602067504, 136.0940077729335 84.41570999259987 M127.24476669233694 97.67392144428669 C130.29432873490478 92.61833704210096, 135.9513629659665 91.9629332435611, 137.98885267181393 89.06774851388147 M129.37902965418712 95.94438499206184 C131.79009309161592 95.15498045479302, 133.17650771788544 92.27587627589291, 136.99765867993847 87.78506429078277 M132.44414753749098 95.01695614708429 C132.66263362637076 93.70784207328389, 135.3825217067521 94.65132914168608, 135.43459020325068 90.79384168626972 M131.97582334124309 96.50177208841198 C132.74356281397493 94.73728989506574, 133.80681011613623 93.18135552379657, 136.47334579637194 91.11230953125347 M134.20589500944908 97.00536644184015 C134.88332437536405 95.57837694373332, 135.08399925176923 95.86710389452973, 136.12127907233395 94.36375144462944 M134.23604963925413 96.79657728532838 C134.92260672091314 96.49038143047947, 134.8559758103037 96.01566531767041, 136.23546024847457 94.40013697977803" stroke="none" stroke-width="0.6" fill="none"></path><path d="M37.68744491095241 39.290745306338636 C64.85402975922028 33.7697306692246, 89.99833037124675 32.743694113943, 137.24555637603677 32.360791756383634 M35.70559969407143 36.33118347858477 C59.488741878909146 35.80231346769012, 81.39848313169938 33.5751443491293, 134.0317590160857 36.15674486200481 M137.39771587188338 37.76104587170293 C133.6023384842262 57.431800763304174, 135.0083552812643 68.44401225919744, 137.1795596332855 99.06555491803505 M137.7697908624332 36.77479624519239 C137.9586097866112 52.05039080476801, 137.40250138145262 66.26611887008748, 136.00779420086036 97.5231074316214 M132.92943662041952 94.29657290191614 C107.04081204536772 94.8659653738719, 75.52586285300768 98.74068508382162, 38.9048151229056 99.97318245445095 M135.75220270094746 96.91670895745078 C97.27150159786677 97.02878104045949, 58.41997998339146 98.8945894723435, 34.335159463687766 95.93466020018818 M39.32211499212907 97.59563021289787 C40.621880681547154 81.25701538468857, 36.40149033339182 72.66664474116277, 33.136065479146644 33.60577271736094 M36.58900636054244 96.2512316028276 C36.945302568127154 74.3771358656813, 34.431130440631534 56.372605342500464, 37.93641696909253 34.27583003151398" stroke="black" stroke-width="1" fill="none"></path></g></g><text x="36px" y="36px" visibility="inherit" fontSize="9pt" font-size="9pt" dy="-14px"><tspan class="text label" dy="-14px" x="36px">a</tspan></text></g></g></g></svg>
