<svg xmlns="http://www.w3.org/2000/svg" xmlns:svgns="http://www.w3.org/2000/svg" width="640px" height="132px" viewBox="0 0 640 132"><style></style><g><g visibility="inherit"><g stroke="none" fill="none" x="0px" y="0px" width="172px" height="132px"><g><path d="M0 0 C0 0, 0 0, 0 0 M0 0 C0 0, 0 0, 0 0 M0.9164886630696913 2.3156866508649165 C1.3940484537036273 1.907314161923579, 0.8553156733819017 1.2161870013221714, 2.557975623895691 -0.851958436677154 M-0.16514393772982539 3.1669231639018363 C1.142723037229156 1.4860860663087894, 2.487948721083777 0.7158635645724174, 2.9847591110044513 0.11641831935086566 M0.3280006290455961 5.534545763633724 C1.1048570890305607 4.188280510013837, 2.5702596284107826 2.036734539482499, 5.9504017461977705 0.43662290580757657 M-0.48565600243966056 6.633398597201197 C1.901567744512557 4.660136348668155, 2.354971641464683 1.8373514611066197, 4.883594100069907 -0.08455714700496525 M-1.3958487302077849 9.62450946391557 C0.39570086939268845 7.637906435206071, 4.901872201064426 5.396829512974142, 5.934029999069877 -0.6849351026401405 M0.8978361388243168 9.271398934444726 C1.4440875152845676 8.167066567922783, 3.410702029592639 4.312749356712815, 8.026357300574682 -0.4120088373390629 M-1.735714119032628 13.090944582986118 C4.648131232497896 9.943894358742988, 9.208467681092348 2.02997651854787, 7.432513690048182 -2.806179067407845 M0.1404048952629362 11.592828779692912 C2.7631142680149443 9.255252145837483, 4.63312403703695 4.489481181786562, 10.356737506684077 0.5098917535801251 M1.6068305210241176 16.757961385794793 C7.40734463287613 10.184546264687635, 6.707911252125523 2.793688944453711, 12.334203357354127 -3.4201690411061216 M-1.0591371014380364 14.431890962744138 C4.471380788303466 8.787905943324063, 9.315755930538874 4.341615759343892, 12.226689926026161 -0.5085863381402511 M3.5285541311661905 18.89991149746792 C9.086284231553488 13.89910207024054, 8.954600410650507 7.890745322008213, 17.125965203292406 1.385974065135854 M-2.055543479297018 18.01946750673168 C6.727351009213627 14.772561805275782, 11.240556649644006 6.428039313232974, 13.686327523635457 0.25816925142131275 M-1.943695097864575 19.37907773995061 C6.07163370392964 13.315484587208871, 11.600650744874235 9.326484662992888, 15.298801073666784 3.0943026371584352 M-0.18643738876612836 23.17682129376504 C6.860649529765382 16.21838665904125, 10.21190850444328 11.035164849555137, 19.45513239461942 -1.124630962197191 M-0.45826358994489347 22.06453783410067 C5.520659485177279 18.355205517148153, 13.317666661380882 9.68761438357545, 23.615044026836493 -3.839258277043168 M0.3347049736338601 24.34456620940316 C6.0284973919845015 14.647606526102168, 14.935213061896008 9.411579267251678, 21.262542852417752 -0.7676528677630419 M0.10463113656567913 25.125050579585647 C8.947460228152757 19.263760674985264, 16.01842985121685 11.131983346532401, 22.41075639293411 -2.290811450521568 M-0.03294683913939611 29.65222241529976 C5.595508259462853 21.419320893692205, 9.682805672400576 15.094641946825996, 24.655711562481947 1.5376271082626491 M1.7627439671735328 26.7163205029729 C12.910762614034365 20.109517356785425, 17.112363400690896 5.215373322096006, 28.606623306933486 -1.920072823172422 M-1.6837173567450616 31.419200542624562 C12.629895652072289 18.811198790326067, 22.665551095040918 8.480040623966628, 27.184733495015948 -0.8373854826318592 M-0.821075896826688 35.793418129069934 C9.435484925455686 23.356859547500143, 11.87056162163684 22.85785281983098, 32.005647983498235 -0.668688582478909 M0.9613474932709041 34.423286047057964 C10.592236199283558 22.292569008746945, 18.907286467983397 12.621597029919434, 27.450212022089534 0.1722834149003658 M-3.0489868495097383 37.71981304783534 C4.858350787714185 28.879266392833703, 19.00328923139493 16.868151792440734, 29.69835498162353 1.9853077536864099 M1.2175809451336033 36.31308786124771 C9.217991744527437 28.136363903590325, 16.298973162413517 16.40106170224309, 30.736681372194234 1.796931260314798 M1.7338674890699384 39.19207678872803 C9.435768008747122 32.25204851899099, 19.95499454087181 18.388755816352067, 33.280857178857346 -2.575181083105015 M0.34915984480170614 41.61741950274942 C13.815482993412592 26.794735899055496, 24.76010795387748 10.733753023046011, 34.39729244840138 0.3433261786645474 M2.357475480215138 43.59070574293388 C11.93519776862176 36.07357102212909, 15.842633185885814 21.06682703454252, 38.09368997962438 3.6213053297629205 M-1.15921415075307 42.197180534146916 C8.075412427103519 30.937940673236337, 17.858714230944905 22.604914380708983, 37.592288457492025 1.571439166276929 M1.2450330435230175 48.58958574831685 C10.035697898283873 28.936077706329186, 28.828022471087557 14.152260506974118, 37.624368401644574 -1.1353964619990151 M-0.6310977632349051 46.13513158163458 C12.70653165018527 29.820294977500346, 30.665485434406264 9.826730970167613, 40.41135334973514 0.19775337285327854 M3.1906157739812695 50.6697616257099 C8.177557371260502 36.85024390732704, 20.236199163724642 20.120645947856126, 42.9890784096999 -2.1679413622086567 M1.5647185824517003 50.417113455899596 C10.108493139396689 36.50324175649285, 18.254707734996366 26.94561343736911, 43.2093169887799 1.5666334874465164 M-1.497705249028984 49.33155217774721 C13.101076004275976 34.929121157843404, 28.30760939925569 22.19086445019375, 43.896095617075986 2.9484747028363696 M2.0191004270255544 52.398043783859364 C17.169766277983477 29.65664811564021, 34.60762998592695 8.979685790312331, 43.485351802163215 0.022566730548324365 M-0.2665212918771971 52.939634278289844 C21.198347330736233 37.46788306398404, 36.03732950814763 16.501907027047153, 49.54699640499082 1.805095456067157 M-0.6819049334456251 54.837333580335326 C10.79876587799845 38.77723902558395, 24.2991795255327 26.204959758902824, 46.381920818456074 0.16661452281942513 M2.3318628675974953 59.657367147952854 C19.95854379651952 31.151361730066263, 40.64444843881033 7.15789437090009, 46.47421331105184 1.0932174519354199 M-2.0174361790564177 57.6686619725629 C13.713532736790127 38.87045293949526, 29.776881912075968 20.378560938082096, 49.539785332354825 -0.036841274339323604 M-3.7247051065671553 58.47901669936688 C14.741838514038871 46.79764179788314, 32.05170368706425 26.540626974849182, 52.466103773795396 0.6190556918969605 M-1.5859549155753685 61.237703925187176 C18.77983260816481 38.809886527288036, 41.25040556490263 15.711956228597717, 54.32522411202934 0.21429351374546535 M-1.2568779384506907 61.41533605710744 C7.596147060817184 53.80871732401608, 19.397815000018625 41.67906252693176, 52.40359646782469 1.4549072768454447 M1.7480950558654396 64.74151651560811 C15.862541753115671 43.8349215802922, 32.58521767401034 24.8197541686404, 54.2298890817389 -2.2159068210404103 M0.038483665681489754 63.89172546664784 C12.467789984177298 49.3878743963235, 27.790469064359904 35.406880717654616, 57.595250900043595 -0.9170615452122313 M0.9909922432120686 69.28550389191898 C16.521214070930142 50.46863618348142, 29.79595850128942 32.81120458107513, 56.36784463765683 0.49896516419991777 M-2.987992630452938 67.78310242522738 C16.44260056173299 48.52811479365127, 35.90354428006293 28.592310156798828, 62.76151372954884 2.1158014391290543 M-0.2648409288102265 71.43948750987084 C24.544927212650848 42.81480865357563, 46.486486656608925 17.134759532570545, 61.43910226258148 -1.2305339921089216 M1.3959730285394407 73.46704779399518 C19.77856699680445 49.54047963264186, 37.33715152420263 23.863476518238727, 62.78615655115581 -2.6557657365093164 M0.27534283286865957 71.74117264826823 C25.54855229262359 46.30853150029414, 47.251195345225824 20.76556503609268, 64.96488203023713 -1.35593430962916 M3.4914801291489557 72.59333518555955 C26.247731324795577 44.508920208660065, 54.22791131533281 15.997002221540221, 63.614085123791085 3.8116745037088915 M-2.0509001389180774 76.88819131624611 C24.36280001399498 46.71123027680269, 51.89896547264243 18.80354065817926, 65.61095324781789 1.7762064196645042 M-4.082981668826902 79.69306259687052 C12.463315254966709 61.159035678622594, 33.71483866761016 47.08328959159426, 66.34732199851446 0.7899201983098578 M0.34699771933131895 81.07377956581502 C18.689699839478084 57.70690503023177, 40.58184548647742 38.784671437520316, 67.1218054671275 -1.6476229070432602 M-3.3887398992571924 83.8660110380653 C21.566403317305728 58.76517023137002, 41.8423369308216 40.40619587082003, 72.5433677457896 -2.604429927009692 M-0.6123774494888385 82.43075354339041 C17.183462483250143 63.464705069958974, 36.207252455763765 39.743873015955344, 72.3906980372525 0.10766025185342265 M-1.859018822118383 87.78986625335342 C15.363601494155946 64.54187282596862, 34.41862174403031 42.672965577801406, 71.71414116566454 0.9455693737575004 M-1.0558193178777584 83.72910858444516 C27.17718028307874 56.95101102031675, 50.71433643437118 29.779950506596492, 75.84469531770455 -0.9182183259022647 M0.7408975219668328 91.46148628569973 C20.580812226055137 61.511530215619416, 50.203643153927274 32.922984543385276, 75.34515985775319 3.9506493350621312 M1.245063945560922 88.02199948904305 C22.580339148195144 62.3186568132082, 42.66948659321336 38.98221704022788, 76.91423246152402 -0.8213762921650591 M-3.43287818687498 89.00792059522394 C20.3510508086323 62.67667605915165, 50.648655783541436 32.94472594705351, 77.58684361173465 -3.1765966346256658 M-0.5928230420987175 90.8528998425575 C20.542628104775492 70.98749468347282, 35.87309452756516 48.48649537722395, 78.65443780629968 1.5433611032364238 M2.2236596282275567 92.74097868978713 C23.91842251815724 67.60836000884224, 45.46552607095906 42.08067571419597, 83.13091981458676 -1.30796687581695 M1.021228450233532 94.07825367272345 C23.224221627922436 68.49367042442614, 46.00645013601628 44.51646201289552, 83.16784696495868 -1.5816442350785964 M0.12584260119893997 96.33341932490458 C23.615496182588963 67.55214143107305, 51.29969917818934 37.59686026683509, 83.8090282794973 2.0032490084475363 M-0.3438662215628998 96.22499724004635 C23.35746412553038 70.02237060984929, 49.254603557696385 38.88757097241295, 83.45822560388346 -0.345218135576685 M-2.2233662226098048 99.00460872151818 C36.566019011390864 62.531500602733225, 71.96803910921497 26.456938389860223, 86.77063599198992 -2.038232540247824 M-2.038223657115961 102.34082366876386 C24.735384904758735 70.41873034546413, 49.55442230251711 47.029723417175624, 87.1632884858191 1.957092948825638 M-2.6096956373554914 104.17200969083336 C22.10879511433835 81.44405130189723, 38.137559705855864 56.68890408525222, 90.3543388968313 -3.2652587216150515 M0.8461669132023184 104.9651364693668 C22.86817717276522 77.6974759853966, 41.044009580557265 54.59354353799837, 90.48942998833336 2.0794991857906897 M-2.603021078744785 103.44980028755388 C24.989005413031506 78.83136791569797, 46.444969402945944 55.10488624437132, 90.85305704256658 3.2482433335284995 M-0.03193219931029745 108.99046026763175 C22.881990250951215 85.68575191397483, 41.87681626582313 59.89794429104967, 94.64621062536963 -1.9758929962398613 M2.96507044079717 110.8898752760779 C27.887998796678232 82.62682192707554, 55.111149984722104 52.662984436563946, 95.78478499488749 -1.156760900972282 M1.21670860194705 110.3237589970463 C31.376670820726183 73.91623392076478, 65.03248944420665 35.10613607956929, 94.24337782664918 -1.6811105230177565 M0.3654624008972167 113.03755627650489 C27.888842042828493 81.00038650944431, 61.625761782783236 43.79921682057724, 99.18340539583188 0.507374199513297 M-0.8052187143433613 111.42976375733008 C29.311822018502845 79.68206183656498, 55.06294271604854 50.11678600470016, 98.0745999941515 -0.2864125850689243 M-2.5561376649172693 118.25722867000523 C36.8121726096706 76.22099540043224, 68.52339764363286 40.295380942964556, 99.30538568023167 -0.18178513073025293 M1.405866388107901 115.1140467812185 C20.974465302440553 95.53909642382163, 44.18731629726852 70.13376683439432, 102.1975452046286 -1.5685079100288686 M-2.4732792648775987 119.48907838316474 C34.13345575718881 87.65377856855957, 61.99043618027569 50.94983044920481, 103.93636406708852 -2.495565909217733 M-0.2943658342051485 119.24423759315593 C28.524162899863718 85.93514275156359, 54.34370398557463 55.422242091441866, 103.48588213443158 -1.8682168895690134 M-0.21974547418082047 119.64489033117202 C26.393990868490633 87.07732847023968, 54.618588454886186 53.869170507125716, 108.9241660289385 3.29716171023116 M0.7168754099919328 123.39369591014673 C34.90184763427775 80.85681748185361, 72.41177851604387 36.10810633531916, 108.29795269665028 0.47294590408363657 M0.11349479122871031 123.91866404157544 C41.66986542178306 74.94327832551609, 79.40256058577882 28.808959135044923, 109.43830324294971 -2.8153978381476765 M-0.11971507282754601 125.20287071884898 C43.06648037991072 74.7810604923984, 83.1798632103604 25.73169873307746, 109.451832581307 -0.6262069609870142 M1.9867777650139935 125.12261660670258 C24.648785557401723 101.98988110968608, 46.17359901966444 72.64732013603556, 112.35856613432999 0.5091982777703077 M-0.5307826498358539 127.35242891358503 C38.14361281258429 86.58073615462499, 76.62347265291636 42.10640487829417, 111.18813326929678 -1.3028445466010332 M-3.9860349031304256 133.27558863903704 C42.00726630124579 86.74970753755318, 78.39746888209874 46.35813332276198, 111.89573859967905 2.265059833676757 M1.0701715612230096 130.8777465681787 C25.60741472264523 104.03355554210209, 53.46902409383747 70.97459268813319, 114.13363041080117 0.49100348162085794 M0.07771581274658601 132.44142481151408 C43.06774123386824 86.38035628557618, 79.40583727368187 38.07178255283914, 113.37417507419994 -1.3543281008019843 M1.223112834691281 134.40017758293243 C47.94309741455745 81.89988818210313, 92.66580533447639 30.538288890650932, 114.8780590173629 0.8706407423169624 M2.318181082656963 129.14695088144188 C33.36051723387392 95.43788744673698, 59.82540960572807 60.55246540307887, 115.20785705941506 1.6901938757540709 M3.4072932661819975 134.02151774546974 C47.095055902111596 80.94967441995674, 91.27378426456004 30.50395980629638, 117.2309219279666 -0.9213524113091056 M4.378998673004753 132.50168371216785 C38.464928775686914 96.09813169587989, 72.8896237756184 58.47229927094226, 120.03125669856627 -2.5546370443039557 M6.529713306488576 134.3409369439833 C35.73427915834197 104.75199320915847, 59.80901950754872 74.66060731908698, 122.48099778452519 1.7077424757197326 M12.752189002933072 131.45292191112475 C34.86562311503475 101.79233618552202, 62.39684749236871 70.00394827303515, 128.06231237822175 -4.091140637596942 M10.123015655140994 131.86326716650422 C43.19305273771809 94.51446626565055, 75.27151161619932 57.49190880610794, 125.58865821607178 -2.0422178728191227 M9.180473080854338 132.59845967683253 C48.76676864288116 87.64543992109168, 92.69569909076588 37.162768278703204, 129.1297889588945 1.8990576648128528 M13.360036976077629 133.96906632033816 C39.64146463198281 104.54900412604958, 68.0184843502237 70.23890714748032, 124.9956584784676 0.9729649872646986 M10.681769871032442 131.85457071555516 C51.109035250718975 87.92947546907001, 91.24026960624164 43.3909561791417, 131.58675361154522 -3.1917202725711515 M13.70756595258769 132.6577678268887 C56.830402756187745 84.50463168336864, 100.41561371173496 35.35649962907661, 129.9781584252725 0.3964851838900483 M19.060966540846525 132.78852977584495 C56.50318930170454 85.04126747488613, 95.90632522171326 40.985190428719605, 129.82030974748292 1.9023633499391153 M16.696474135605335 133.90100223353568 C60.25122765786744 78.93526548228854, 106.3456956711111 23.45592024198089, 133.8088446139796 -1.6446295504242148 M18.08069390325977 131.46427312789675 C56.85412048744386 88.89946720260589, 92.2418163104254 47.16285042145948, 131.99706317766373 -1.1363935097543312 M21.785871147140803 133.7141961618081 C42.45471349230297 105.41933520326658, 64.50519468417139 79.54513577168564, 135.71976018686775 -1.6428620906361173 M24.54242065583532 133.38772555877372 C62.31921461725885 82.75257013234837, 108.4060105634642 35.973791985699116, 138.25871121494163 3.5117092161030268 M21.05282282902172 133.08315794653595 C50.14263863590751 98.49446380292947, 77.81270431089749 70.90804358632774, 137.07108365638925 1.062157635724854 M26.413483052347893 135.84845916684384 C49.03127354147703 106.07843817937834, 74.21030265211036 79.5472752289881, 140.49422872385165 -0.6068836727803699 M23.033446066727112 134.41331109859058 C60.09981138522602 89.02908015626556, 96.9516263962129 44.33318781804699, 139.08422340163446 -0.10943653255430252 M30.77694098231604 129.3690226455382 C57.20271337210406 89.09850276055829, 95.29881960323299 52.92331877220795, 142.35246831824705 -0.7561488736199742 M25.755559785356056 134.62498546409643 C59.91577129822489 92.66448623624248, 92.21436261495359 57.872260340370964, 141.3869998348055 -2.036371376629355 M29.028704623520564 134.96582129296078 C61.861356066475714 95.99863904025763, 86.98042817114606 67.21999078879298, 148.9751128156587 0.7667053874258887 M29.752428382750534 133.9408965460692 C57.16935532882866 99.86829864410923, 87.40893140826813 64.1930839541598, 145.8831254147685 -0.906264858921749 M33.41909628390227 134.4669857972805 C70.83250350219606 91.53592398392223, 108.24137581239698 42.86462268661789, 149.51504710945224 -3.6304428044369494 M32.52939518686318 132.60401662312782 C67.76907108078221 95.49912219429007, 100.05125921159446 55.09463789052942, 150.02197070169927 0.5799038607405764 M39.28684184043317 130.61192011275668 C66.34445094800195 98.29073596388263, 90.84875150729547 62.779555584969046, 153.651065483868 -3.5852682722007145 M37.231411171634065 131.12792462802332 C73.79676103724624 89.51809333705984, 116.42798584324618 42.83201707265941, 151.52540619331504 -0.29624970808423257 M40.903428426772535 135.02427629463529 C66.71664190434898 92.71674427321153, 100.05752390609501 60.43206560370002, 150.89045188059697 -1.3654057258422707 M37.02042946478724 133.94199166784983 C71.00236474333624 97.64950489292815, 100.89255571694825 60.4026802531458, 152.66154942316103 -0.09303498665174548 M38.55475403954725 135.0663499878099 C68.53332378444826 101.24942449278876, 87.46706991673744 72.47632773234321, 160.34281896689822 -0.37547935576678526 M40.87325972676598 132.32531473207368 C80.93415828593868 86.88369988411172, 124.4252156021474 37.63054699394612, 158.21170341621695 1.2045744897466575 M40.693083291732556 132.44866816349136 C74.46423075384334 95.51287700891322, 115.43125367992685 52.70819524202523, 161.6031523875478 0.22658311053499602 M45.14139675409262 133.82353484905636 C80.37781994107362 86.62340831512556, 123.34684424524458 38.30734254414271, 158.99349178659486 -1.1404700930897302 M46.18032443795843 136.67847102527782 C83.59113505423718 88.10545712346293, 123.47461308960298 43.558596136042055, 158.88126128357692 0.7148713012072943 M47.79636831923484 133.8637807641811 C79.39201992193158 94.54709766306142, 112.867402460462 54.66786407459115, 163.3424171594222 -0.07874032198767011 M52.070675389568436 133.89504037824764 C73.10181905597331 96.41552382663542, 105.27873034174081 62.65783420017213, 163.65926305710983 -3.0613085274267196 M50.645777512061365 133.03667821794818 C88.26736363497919 86.16540325842323, 131.75540180159555 36.50157657061394, 164.5934560352635 1.2195155849596526 M53.406553498377725 131.23781925320856 C85.7525460352013 93.86314417941048, 116.53383054856367 56.920359780074335, 166.1256474913117 1.0932744363486524 M50.949465720192606 134.41823725663556 C84.77081216326498 95.55569097757673, 116.13094745909017 60.159558134579456, 168.92392293737828 -1.2545785614762854 M50.405982305849406 132.9134062879625 C79.46746425529794 95.59915683334178, 106.05766494055483 64.95713331456878, 167.89413442630885 -1.9937198655826567 M54.10899890766974 134.96020930676826 C86.98453566415792 101.19680938798432, 117.71149869140599 63.662535303243146, 169.7422940731387 0.01924079993898875 M58.397150493302256 132.9055411496963 C79.75221005297216 106.7139506902223, 107.01914641250343 75.45746848393811, 170.90362876412698 -0.6039863676262787 M58.62548927280843 134.5388617541301 C101.49573203982587 81.7361858422717, 146.15692209169742 29.165079747026745, 172.56034895488284 -0.7779747752202679 M57.91887849963909 132.39919838369664 C98.20230516910107 92.04778128206448, 133.32927358059356 55.202064693410506, 171.4541046556362 3.8176157421339276 M60.24991987020604 132.9634565318693 C86.89238927687862 103.23023879149966, 113.86612861159334 76.50677367977511, 171.6867696812614 3.4033400992543337 M61.77409316953306 136.2364556450212 C101.20388630217678 87.1715383784343, 142.77611932783415 39.72857607986669, 169.2241109458269 8.98466125299716 M62.056221579496324 134.5345834309899 C101.40503173514952 87.21016693421504, 139.1687666713383 40.86055361750383, 173.94926705420778 7.214450818252081 M62.282750671985994 133.5576587090003 C87.64166573109746 107.84023026373683, 107.18084683182875 84.93833075166111, 175.50535310882165 7.365962356272085 M62.6551366686099 134.1382053689398 C108.77212648478759 82.41475368183032, 150.38296152442194 35.95065581351358, 172.94310976319917 8.641257548946019 M64.61326146209306 130.20770583093193 C99.15763090237988 98.73141107465746, 128.85551065331347 64.0645972001505, 173.15804591674433 14.597194512067448 M65.9036352076378 133.2773139201157 C105.8330128800754 86.32323943878428, 145.9060611109189 42.75330763240172, 172.02842471515274 10.080401847329284 M73.01863383799802 130.18372850816093 C100.87816879938721 95.58161961067933, 139.2046846407366 53.19086882431231, 168.04554016869622 17.940265003370712 M71.74623016021795 133.4616289111633 C97.57678737911763 104.75131163600297, 121.52510923341049 73.0903239502261, 173.22519337418143 15.591678172711207 M68.77316190059229 134.336806130449 C112.10075125771465 90.88714468137049, 151.4204482622393 48.00166412961999, 174.97106084605937 19.627330575179226 M72.06016946431909 132.64042378464552 C99.5437613810912 99.00710806953482, 127.83578241566737 66.13236966865315, 171.31058911916648 20.23167311717628 M78.5098016489515 130.3126335330838 C101.48919132332556 102.99693820668995, 127.57362601499624 67.36545848850663, 169.6532317515435 18.985248886247675 M73.8198682209621 134.3646416647108 C108.33190768235602 90.50837511822326, 143.63590875076957 51.62737127557578, 171.1910969484747 20.93063460343792 M79.96483513256689 136.62279758074942 C98.79185165249316 113.73793906641369, 117.5391204139976 84.71371910422955, 170.78511727655115 28.10592111522483 M77.03541455722207 132.79193776795657 C116.37521730909366 90.44190792125312, 150.35303302366805 48.44897530186333, 170.96330574779063 24.916112975365444 M80.33204427029908 134.7597376332283 C110.89137595722308 94.26935184424849, 145.87149498776907 56.92625623959059, 174.71666402135725 26.3742870981718 M82.84416289490942 131.3294660452072 C115.38362014152374 92.15387122515752, 150.67896290802716 52.588359665126966, 172.56537214071335 27.998199457594392 M79.15842011506213 129.53163155036353 C97.06539669680967 106.93578810156227, 116.4264010473743 86.61943227017494, 175.55549922134588 33.33680196063858 M81.98242838303713 133.45432946264643 C114.01747165375055 98.40778503339081, 141.79114165474877 65.19908115503247, 170.9962762795327 32.45987851937942 M87.19213865354304 133.96729913761007 C112.49240317419391 103.08442031636476, 133.8945381549392 84.5431197000368, 174.92068706867474 33.939090723144886 M84.28089125194239 132.12666405213488 C112.23541211467584 99.09144884631723, 142.62616409634842 67.03804800026782, 174.16684441241551 35.27765272935211 M88.78718226160615 131.6202895380549 C106.05879199545274 107.17443928298131, 136.0461739024854 78.30184550602338, 168.27735128437274 39.008115355381065 M87.96573287177875 134.50731700083804 C107.96591377217169 109.3584784950736, 126.18746323791365 88.17068399357252, 170.16459102778876 37.04813717744705 M93.92694561779467 131.06603589333568 C126.92643337909422 95.90939440451244, 153.97926684836156 64.99479529740165, 169.90905867010744 37.915947523758064 M89.04411071206164 133.25547686801988 C110.62593686740915 112.54372238065653, 129.47404423954697 88.2175477902116, 172.208023938798 39.10175934024614 M95.98047397148385 131.56824636488113 C114.46847839296392 112.54123935839398, 135.19669558900094 83.97900067806316, 173.3302524939347 39.38579351826123 M94.06318656296028 132.47366617770214 C120.31859387643809 99.47134505245907, 149.86672435745822 69.15555269612959, 170.97880205494764 43.7753142926189 M100.00056595212877 134.5402077486947 C118.55311969930167 107.9613876328809, 141.9751673124327 84.95384661577242, 170.69616386100904 48.23146703825264 M97.05946945867211 132.56890326194838 C115.60217205246882 107.75919873776499, 137.65820047202124 86.42475504896056, 172.21417495159417 47.08493742850701 M101.22230909193338 135.7692872522066 C121.21647958109159 105.51244489218162, 147.27486413734567 83.63360613325207, 172.40015142000405 48.57264821839412 M99.4315357666968 133.3414576571101 C118.01560974261166 110.32711762516011, 140.6090883818094 83.5397060267702, 174.07792927542394 48.23515608338657 M98.329732595649 130.59669505504732 C124.20625158246958 108.9037292081331, 146.1316798758251 83.98055671767263, 170.46499417224828 49.36596385563993 M100.59120615840887 134.77357170289167 C115.63745025405696 117.55042284894581, 130.7916919397861 96.93657148780235, 173.63082295682935 50.66306331484625 M107.96803893155376 130.53479453515507 C133.91082401625292 101.63561637105867, 161.25710927585018 78.70376943324622, 168.52697474217118 53.692404263599 M105.68252413314927 133.94253971825083 C120.00661421746915 113.62599881831281, 136.43422520220085 91.86729704602598, 171.83545641733488 54.83329920748771 M105.5166677929604 129.7628640836566 C121.20735585696563 116.31332441160858, 137.95843967303216 97.8648992465735, 169.13342394125044 57.335805266363636 M106.21769430190346 134.117412634626 C124.28954244725556 115.79845138494292, 137.62954538864722 99.01740689149379, 170.29664184151193 59.127530294403236 M110.84113282073862 131.66158048193788 C136.4524522649109 106.27136229926576, 157.16130783601318 83.81575808742386, 173.14096575278174 57.35339706708182 M108.99936687664776 131.47339863070616 C129.87649407002576 109.37620103899317, 150.46064735222583 89.30744169292402, 171.46735295144305 62.01386097131436 M115.17701351985222 134.99129673195728 C136.6216616668216 110.57541053845165, 155.71799006869736 83.2745887913615, 171.10570080008137 61.57107105136697 M113.74925311685314 135.19238696619587 C136.50259431711413 104.35054169476535, 159.1709396231537 78.72779482185179, 173.40751282374583 62.50588484384897 M112.57208977665914 132.04491094768971 C123.57818280077787 115.80233618486487, 139.71086760407434 104.30396418913944, 171.60778487043336 68.92201017343126 M115.9520000119844 131.79634349953864 C127.7840881173926 121.45280234454884, 137.9578148224443 106.07398596596045, 171.40686237194151 67.44129930220222 M117.04385552192402 129.100061806779 C135.1197832013731 112.8469087352524, 154.01019548786476 84.06250195941385, 171.6291575383518 69.15456334614264 M117.75850708741136 132.86850622667285 C136.17973941688868 112.40497138256639, 155.8045751911683 90.06683729473635, 173.00014196303414 68.61219602460453 M119.19076628038628 135.27347678554426 C136.52882705407248 111.74901966001943, 148.11827360051464 93.03313291907638, 175.1315177998972 74.02314274370853 M119.48873852488387 134.29889769642293 C132.04312178710344 118.07364526227877, 142.73196625255312 105.0447091237118, 173.6081834445105 71.91655798979264 M123.19201593503936 133.24389365725003 C139.92104558740687 112.30977456559742, 153.21325745705113 98.7020586310965, 174.9921399597597 80.50044439277988 M121.54926811610852 134.59802260192637 C140.86277237668867 110.8012955629035, 158.92632690804388 92.0721455694149, 170.34258975103634 75.41707120690705 M123.89300968611167 135.01876780963246 C140.92721952474855 116.06407715340559, 152.63968745070366 103.19012169588724, 169.10299958620124 83.00320704802135 M123.59223835443234 133.05898365431878 C135.68480422684746 121.0192117420258, 148.5355428578321 107.83260274728148, 170.7771842570647 77.93390406120034 M127.96740820730409 134.395453888301 C143.45038861220513 116.22753547564035, 155.77659495562855 101.68633114835356, 169.56357979071973 82.47310068736871 M126.9550734229566 130.92362477693095 C140.79048665304842 119.13905562105927, 154.74105005242615 104.83407161688002, 172.34839623112282 80.99504251430778 M127.74971375875182 131.57590202907556 C147.38339521150442 113.61385622915357, 160.21632008215516 102.29495432133776, 174.4655917417119 87.60883688676728 M131.53179265908946 133.88902907010942 C142.6345281666884 123.00881028387971, 151.56870290602708 108.1205282959643, 170.71522510086788 85.56988540929343 M135.5986770665973 132.6428213570208 C144.234155242216 120.69268411682984, 156.49674622757178 107.94285317793124, 168.10636489525874 92.46689172660676 M133.15621540213016 134.38906514885326 C144.37027087719142 125.05947593133874, 150.23339826627821 112.38278929567097, 170.86703363207855 87.62223651388037 M139.9260786680312 132.46772032443877 C147.59277555675177 121.04861066042166, 157.4585902901742 108.83818729661456, 173.03051585999924 89.94652412345961 M135.60442364266683 134.46188634829605 C151.22457514061378 117.54385637668082, 163.33796123092984 98.62678271455307, 170.27039742091753 92.41599678925144 M137.42048704554094 134.78686615266398 C154.57995592581685 113.55782519475548, 167.16267488132917 105.59833866090005, 169.99269367293627 90.47245735468546 M137.75950741728607 130.9878180048706 C149.69975950022513 120.96676103081367, 164.40967930244844 103.96957254032408, 170.60823421921944 95.13442604953482 M137.8944966982214 133.18961060028076 C150.3590536094685 122.81117133622136, 164.95369302418172 109.13036904179917, 169.8028792564878 99.90119796807909 M140.63715762701892 131.62283223941182 C152.48702658985502 119.48529423051744, 162.47150416855905 105.10201703612597, 172.02854114177046 97.76702326866415 M141.130671434114 135.02722529968375 C154.61072593708636 120.7983391219895, 164.24331716814908 112.81421915938355, 173.74107823559524 104.31112391255444 M143.4221718143873 131.48280322421274 C148.067658290642 126.30059935226306, 156.832505640922 121.30928486237728, 171.68490088164478 99.37454100371228 M147.36458571995234 135.04742289276655 C159.13358253338504 123.61838164647509, 162.28348170811688 111.36217325446799, 170.56702636647722 103.9078202213592 M145.1706563330844 133.64779390482977 C152.83479459361592 122.71607459692468, 163.5464752264615 112.3452953081314, 171.72864015071153 103.53914170002517 M149.5346186854792 133.40392505536275 C157.59238305279152 121.65720275968759, 162.63580622717714 117.36101696127957, 168.44883025013138 108.70600743140349 M150.77219547468871 131.63817698350468 C154.1366562057547 125.71529042988249, 158.3691423816837 119.03860305912356, 172.47008371965916 106.64152059771031 M150.91763283727695 130.132355791553 C158.19498536433377 127.83341963901577, 165.28633306253923 117.99332784568458, 175.39273840649568 112.84397527300119 M152.22222915883236 132.5632673419309 C155.69378131127547 127.66848181449312, 162.85779261456182 122.04731440117502, 173.12473564733415 110.41149063295052 M151.80368692927505 131.94285872253286 C159.78983759584102 128.72805320201388, 162.8337943249545 118.7338192153782, 173.0520668201633 108.98462706860964 M153.13752375493362 134.96624474197594 C158.4999343503237 129.82996861411576, 164.02680088264708 122.56631804721798, 170.7647193229432 111.72015919534756 M156.606071230802 128.9515391696267 C165.42636153674718 124.86248217811874, 169.59109349211562 124.22403118517214, 167.96610606333337 118.40804033393148 M156.30987252334174 133.35463314246596 C162.13741568994527 128.3498676622993, 167.08730518972084 121.18007394928134, 172.6100781031395 114.30854000935992 M157.81416932389072 130.61982381776144 C162.08051778422666 132.09061411156966, 165.13127413131278 125.58605762213561, 173.17293016050644 117.23321581376865 M161.2866149494797 132.64554675707595 C165.16887073938494 128.92572067251749, 166.27337119701534 125.66357524491826, 173.76026002005415 118.18137904559897 M165.15516135950404 131.6965267980821 C162.8274161811327 133.67378328569959, 167.3037396944102 127.25357219684172, 174.04707092447495 122.82019823674358 M161.60364848158895 132.53394174464856 C165.9243199357675 127.73626592108198, 170.17154530581428 123.84175368764349, 171.57021272293264 122.05025285384214 M166.29911429905735 133.75390599973875 C166.23843369951803 130.00167395431438, 171.26829216123326 128.41264563722473, 171.1973226040001 123.74708171771643 M164.8791598891926 133.33317820866864 C168.8695400483927 129.0878740170338, 171.30020153115643 125.86310849826428, 171.75639712809874 125.36761949103251 M169.26398624287864 132.89346205412824 C169.20482612743635 131.17999596084138, 170.0325953451644 128.95049631673734, 172.2775944589169 128.50278771335667 M167.78067328752337 133.2689470310399 C168.36576923022486 132.27164818990107, 170.21489065037173 130.35707248914014, 172.53289728484947 127.77827249967291 M170.5724723832081 132.49022805694165 C171.24769141862814 132.42008512915316, 171.39781657894804 131.92737173684037, 172.59426911492992 131.3961073921758 M170.8703353121711 132.7748000077941 C171.50789145879358 131.8958500731556, 171.84260247047214 131.36934768257117, 172.05654330673275 131.01099422895126" stroke="none" stroke-width="0.6" fill="none"></path></g></g><g visibility="inherit"><g stroke="black" fill="none" width="100px" height="60px" x="36px" y="36px"><g><path d="M35.70570493866742 36.33854774095817 C35.70570493866742 36.33854774095817, 35.70570493866742 36.33854774095817, 35.70570493866742 36.33854774095817 M35.70570493866742 36.33854774095817 C35.70570493866742 36.33854774095817, 35.70570493866742 36.33854774095817, 35.70570493866742 36.33854774095817 M35.42313179476969 39.730522303699885 C35.92878018173134 38.1950349213584, 37.73416188069532 37.77446324276399, 37.87958596460161 35.72793310517501 M36.16810428685503 39.01349411972261 C36.511336556647 38.35249604485795, 36.93884207889992 38.02497180959278, 38.55591088799422 36.06432378042096 M35.7401039063449 43.09444987410763 C37.87081783687112 41.60947086014788, 39.56573438994085 38.22568268654701, 41.868380960236536 34.624829650084116 M35.83111764366542 42.67310192127185 C37.347081308020115 41.212124009159886, 38.044161024919724 39.769426033576295, 41.577496891780314 36.024003987677034 M37.25986956383512 44.91606184642608 C39.66375763796145 41.82739688228202, 41.64334199746405 41.4568792735193, 42.68028179118937 36.38041891978307 M35.53938950266421 43.991861188078694 C40.1993454896327 41.05175002575162, 42.71803114675372 37.254592620133906, 44.320759495546255 34.89750443648099 M34.66481319038936 50.05679442493166 C41.650960647644 47.04328597046912, 39.70300688610875 40.58598522138589, 48.78220547599852 36.75461134797282 M36.26169720350704 47.55217547796371 C38.00131630808943 44.78156125568624, 41.46769871396739 44.15369206122268, 44.8307610008147 35.917919965473644 M38.00095832196085 49.51983671871504 C41.834618623530126 42.53445333880492, 43.02929540620862 42.493236200721455, 46.377413095815385 33.15805929449927 M37.66110874164003 50.195747016652355 C40.51781066529994 47.69838915188824, 42.76436697192777 43.7846948482975, 49.23005179220377 36.83636822453182 M39.90948635273698 57.67526209296959 C44.79807038189484 44.191631969370164, 48.112863179497545 41.93338076384343, 48.196738256720174 35.48620241147809 M35.55594259278663 55.25583933409112 C39.78963126206252 47.616609539029156, 45.36176775539383 43.254526852556964, 53.415579168376084 37.442373435698116 M35.152800547208145 60.4452418689495 C44.12509761714978 52.82374157079214, 49.0880626477049 41.031802699417945, 55.04295826417737 37.540550308319986 M34.234858100450424 59.043012814891625 C40.69097457395794 53.9843271563201, 43.30299206572788 46.549618657092836, 55.60380445804263 37.253234521017525 M32.518039588787865 57.28575419024973 C39.68370394530219 57.64016896720781, 45.74584326154381 49.40195067261666, 58.61776324979131 34.49961808879496 M34.894840730744136 62.08228059410766 C40.57943257351036 52.77011028909368, 45.55978338746689 48.105364177824995, 57.08436346311171 37.197544725341096 M32.21749582095511 61.73865574422803 C43.70420138700359 54.20174607220552, 56.13608319751755 43.20818386765555, 55.82923402159117 36.543898520945426 M37.51222313979667 64.77521210222453 C45.19043861246676 55.254945825361226, 52.72559230340069 45.48841516758565, 59.35510362003888 34.24337102695652 M35.695656555877534 63.51402346645556 C48.624474076299336 59.49112638867592, 55.27212009956864 46.40964940060902, 62.73745679291048 32.16793321530986 M35.63885933036775 66.14226795893599 C40.45005814306989 60.83548243764898, 47.59861045282331 54.09323369753425, 63.99409741778607 36.732510815828334 M34.51414369104618 71.26588703827643 C48.899146013086565 53.86543079815738, 56.35666742496778 41.14650531172795, 65.35819080730977 38.015103731278785 M35.43022295540217 68.91011128207786 C45.74302094163349 58.97621064534538, 54.46950888494259 49.06930654207626, 67.05351704681371 35.178912545762955 M38.73816271213731 74.41046463190145 C45.33884907180784 56.60990744782593, 62.484542666038834 47.98199800605435, 64.85614555834135 39.11284238443952 M37.056048818772304 71.08111133561812 C47.406334495782744 61.285485727092706, 57.936521598546065 44.80260297535959, 66.04979051831214 34.74106043642537 M40.05647941410754 71.58884357176359 C41.917210182426764 64.31761994888622, 56.11154687404684 59.0919620116565, 68.97621836475825 39.67642855839331 M35.437306472201826 75.72149486793279 C43.51994647327808 63.09777500480901, 55.411787221930965 53.06947777735759, 68.54897805660396 36.33579659941189 M35.68149753276967 75.94963732590475 C48.295308086095325 64.27403695906472, 58.83675084747047 51.33937280703991, 73.22703904718784 38.10376802436299 M36.912535473547536 79.6105667120992 C46.496731820752004 66.89641147147499, 57.79380440949164 52.612076754732236, 71.30709554157201 34.824716990145994 M37.74006289776077 78.86624574963392 C48.21649445174807 64.097737823224, 70.19800173475222 45.17566380226504, 74.24523515810438 35.67283346986632 M37.11645233006048 81.83432599892247 C47.935413988275315 69.27498661493242, 57.18704702393053 61.984787120983576, 77.8005162298701 34.58318680401311 M38.76019505208322 87.66503761245896 C51.343460105390186 71.07651493318053, 66.7505261776364 53.27407133043596, 80.63987055748396 35.33248812621973 M34.525623363421474 86.27575101358234 C51.70199809000502 64.61555493062163, 69.45451501218822 46.519324268289544, 77.227277665652 35.44848003138187 M39.54390733367539 87.16359752513988 C48.55839153529476 78.3472113934696, 59.24518681851452 63.98897428020905, 82.76006402463601 39.291926479398214 M34.852241255747145 87.42419390265609 C49.16185911617809 72.3381496909276, 65.18114937768718 51.39583411738755, 81.83179152442541 35.9933805660126 M33.71212817572167 89.45566739124925 C52.869399396837835 75.32963424299342, 67.16587730349477 55.99973973926943, 81.82741719608245 37.964143355978365 M37.66926932908423 91.3101012666344 C50.144017880530384 78.66423392808973, 60.053335435130265 62.8836583906833, 85.33713121111342 35.22254602640909 M37.83669328132328 91.85063408367131 C48.69404589016921 76.6728985915703, 62.67386048775885 61.671304569895256, 84.50940742032968 34.6085263235776 M37.17658509321718 92.46701082764162 C53.93232085084191 72.1938624179203, 71.49985804995362 53.332654006655886, 86.18665262259391 36.86090702255915 M35.6810726021176 98.8132823927718 C49.74167303375057 78.66381747695041, 66.97767856728441 57.971280256502006, 89.06824716939745 36.188124714941125 M36.73707262922931 95.13089574542309 C58.12222727525558 69.67564212936765, 77.86376889860135 45.6182409431759, 90.78253135778803 34.59042237459877 M38.41589691718007 93.66592412667427 C55.12874090151412 81.20341247542437, 63.32082274736321 70.92242228672725, 95.03343129544523 35.55149162627288 M40.71344353028438 95.12424996647736 C58.07197301082658 75.48987418945437, 76.35894449429716 53.10972725772703, 89.7890614194494 36.36752159436767 M44.12408890050485 94.51408783147278 C62.727554079099036 73.73379138115642, 83.4215244193747 50.011237804869324, 91.7290648885957 39.67354114889721 M43.42651467957356 96.59214318380259 C52.89522521766405 82.19519176787652, 67.95867692382652 68.59221260423833, 93.20795566356362 36.48037395182786 M41.609222846811484 99.4240254184996 C57.04288999681347 78.27520075798343, 74.33217672250431 60.67044762489865, 96.19018658364884 34.28558479187674 M42.49797471188357 97.16677501285565 C55.886090038526426 84.55955135637996, 67.02204763818638 67.64905415293647, 97.36921486386846 37.66028001966786 M47.39000916945986 99.01866692419425 C64.86518069118331 77.87491852939989, 77.73417666311515 66.64875616905444, 100.75750320079668 38.54127990684091 M47.69829518597152 94.74069518150264 C62.715191584634255 75.26659344574576, 80.47152805454162 57.882310055758005, 99.47265641823178 35.35396717453258 M49.948721706469584 92.54297574835735 C62.13997133527323 78.19464288580488, 80.93162802568291 60.14295781814731, 98.53185279844662 38.84999387142657 M50.09033810209283 97.52188734903135 C70.05483506441229 74.03487423211155, 89.80421245053232 49.41760343720888, 102.85833410646896 34.088090402630726 M53.77115981200682 92.77514307102793 C60.07565150431793 81.53948828402459, 72.74562928882065 62.97341723116405, 108.09122467680992 32.32524940473378 M52.216058905448705 97.89604021829302 C65.73305482813215 81.11154252625805, 83.09749913958397 63.08706851925551, 103.4799846384311 35.6742981255712 M58.40824671415927 95.59197102844874 C68.42093114004781 80.9844684058946, 81.85654698640747 64.79632381116002, 106.77103551052642 39.992147133715115 M53.2203567004791 97.08386796252795 C68.72404210711434 81.2962999900113, 77.64764720782114 70.96265698364863, 106.47137653050622 37.917037214843305 M57.902723582719 97.03167764849131 C68.02976162082217 82.06360411207027, 81.76538959585513 70.28837280093705, 110.3827173801022 37.26247352199811 M56.9418417594877 94.70117743704908 C74.97146045032116 74.53505351572313, 95.756909871998 53.919464912712485, 110.26767641488918 35.37347443105264 M56.69894591591703 96.80794006262045 C75.67942897461585 79.93656170930599, 86.77527573773783 68.38569739554457, 115.97784097543884 33.96917737703958 M62.24662796797491 97.11226043598646 C72.44188562617235 81.90453613331798, 83.56036585396546 69.21891328268185, 111.52670840759052 34.67435483926902 M61.69903587401524 99.26661762287704 C80.40971018425091 74.83004268022995, 94.0298103180862 60.36467609975866, 116.70041331681885 34.34399956133601 M61.360863836987015 97.20254701503477 C76.88586744303657 75.55556965793124, 93.24238050275635 61.29603625251337, 116.26260997771148 35.64452845095926 M67.60313124728519 99.16783712908196 C84.12698213796517 82.0458889024684, 97.63019622550505 61.60208572013679, 119.52429713751857 32.87205296517548 M65.8704802859732 97.82636095200324 C86.21070345258073 73.33578864340359, 103.33538197353002 51.96849432285109, 118.08539631685534 36.691762711987124 M65.41241421956836 100.06253326632546 C82.41114402639766 80.78080357894386, 97.38962118750086 61.31040055800369, 118.48601154697083 37.28315753316905 M69.81501123813204 96.40488768302589 C81.01139761632516 82.24602608651371, 94.21584925960912 71.09624819151904, 121.48269627898232 35.90062098398741 M68.78523158125144 94.3578296615107 C85.38410016854345 77.94414179349589, 104.77863185751762 57.37893884525479, 121.202798863313 36.98390902033293 M72.99251549277643 95.69038002481742 C91.43546574976556 72.92578236897067, 111.25147093921133 47.844454012540666, 123.45890116463764 35.430654310068036 M76.11764971099839 93.0656546802123 C93.55020688793206 76.45702175394786, 105.3387898181179 55.656849848701405, 124.71738006410736 34.509498744537964 M72.32368219701868 96.67421191993047 C90.8763953753074 76.01304930750355, 111.48670468581133 52.88254632049863, 128.0860095252899 36.89072246971013 M72.38229466949252 93.71303500052237 C96.22997521990638 78.10085726515194, 110.64077010972919 58.75380984753771, 129.81256150629113 35.18893862127762 M77.3794291153176 97.67909353010121 C89.70400462663696 77.99586112333463, 106.29740310594121 61.366360121467224, 127.54603787948562 34.589609376376345 M79.77847523549579 93.90417185112295 C92.83144256245328 81.78687582990537, 103.61003149290676 65.52638656024551, 131.20689609399267 39.72034224943934 M79.52598372932896 94.61367110465397 C95.92669130477113 77.1677599849702, 113.98357201341511 59.38660460132594, 130.26466728697838 35.54969293967448 M82.70227614023025 95.45917101590565 C104.07039154481048 74.95449432344381, 122.63640362348045 57.52290297924041, 134.94123926485358 35.90040177963452 M82.91536086937506 95.64119143970149 C95.53989742249101 81.31808523189332, 111.23410300180872 63.69178128290914, 136.13772228956262 36.6014908587284 M85.00785172473117 96.84654404174194 C99.05371208114285 77.62542973842372, 113.56241673059421 58.714063987353384, 132.4119528290154 32.43718839055913 M85.65644579051968 97.04254238385876 C98.89819345435156 80.00656128576487, 111.48262488715685 62.36300781932877, 135.2065656532266 35.56694936155526 M84.4105326803289 99.45392915991098 C99.59166297522552 76.46360719343122, 116.53574299065112 58.00174636759128, 138.09254235591743 35.83686703994614 M84.88609735181117 98.32050694620108 C100.09980665229898 84.89921489531169, 112.08307770355881 70.95701024724742, 135.7699565770007 39.74605795610109 M90.4840635554618 93.07757631783068 C105.56548401160269 79.11483323261352, 121.46123204869698 54.1961199875988, 132.49024157408275 44.4668849349014 M90.543072884402 97.77428143063034 C100.4675988201888 81.1580196087232, 113.3789022890813 68.26185362202513, 137.5072049642369 44.31064768560254 M94.83290039344743 98.35337047042353 C105.49960037775114 75.28665865561456, 121.32505637319949 59.371430693934386, 136.55804862388828 48.032809303443244 M91.7834074286901 97.03303277418122 C104.33582246963087 83.79161271938152, 111.25146953159432 73.3301336837084, 136.42002962632657 45.5583895436499 M91.56221970210701 98.35054557041026 C111.54268633769948 82.60298858050739, 124.37145104552964 62.29622723906637, 136.39867154617838 45.78720490105522 M95.09501563414614 95.6057765650562 C103.58198178306469 86.10014526175046, 112.04000531529508 74.29476057180943, 135.73076292635494 49.072917947154735 M96.9378888841412 95.99720713538686 C114.54308636957961 76.46045038562059, 126.57140315986125 63.8130536951863, 132.89690214651753 50.98543293737103 M95.33378621187751 97.07631770638608 C106.1222517448717 84.38955815508075, 113.08259255805918 76.48606189611878, 134.88153392675818 52.67376812321197 M96.27399117819324 95.037208457288 C117.23884245146004 83.88279165549596, 124.90221347343949 67.9093332836695, 136.66061578040438 54.92593156977229 M98.81093885458516 95.87102253119178 C115.26878135250081 80.1457607929986, 126.73968396955593 63.12010680466912, 136.15589189873182 55.381611994091315 M103.89048505813253 100.12957244869126 C120.00718582588655 79.68067160726105, 133.51572980109816 64.90502642771945, 138.6485701245044 57.97808858803636 M104.97202498481174 95.10089076501981 C108.38068413582349 89.2686291568444, 115.8217686320997 80.54758672715195, 135.1731853892042 59.50506663098204 M106.7769464812688 98.90266498389313 C117.00942798501127 82.55472884292844, 127.46933258399326 70.35694750852466, 138.37770951485567 58.428648913303334 M104.42558479797735 97.33198194978996 C113.34112780073372 84.4338928762754, 125.53495759832781 73.43525769261485, 137.6663860579443 58.75738393197923 M107.94641390393444 95.8949133942871 C117.07636993037192 82.98078550190593, 126.23827802419693 67.49570284707092, 138.96261320352878 60.451234581289754 M109.59632071025393 98.08318550525253 C116.10483664393129 89.73631577652881, 123.96222590913987 80.40016277335067, 134.94291698704026 64.20755750334183 M109.29414767076257 99.43423162179008 C114.65047018449329 86.89683075653781, 118.83183337043137 80.70501125406517, 134.78705873382142 67.52873025373952 M109.60663458213037 97.76964958102062 C116.61486988035182 87.71695619047935, 125.96787217125573 79.92856848660726, 137.83665660954696 66.1500095498542 M114.81698635487024 96.02716898269524 C114.69850141750123 93.56229276107766, 126.69787383037183 83.86846914911635, 133.6423161639558 66.88368008669957 M115.04338459130715 97.11438927234039 C118.31842465324934 87.39111425704523, 126.80033889239603 81.7279978953362, 135.12072990086264 70.19512985801113 M113.7082951476892 97.22372954765738 C121.04165368565542 89.83242001921595, 127.41061170017348 81.14532846489513, 135.29039390978392 74.18181205070032 M117.09541949060838 98.15564838132124 C119.28540522378864 92.50929914138732, 124.92934421999122 83.79152654673642, 136.0917936391555 72.07585432248209 M121.11759282437194 94.7306405245092 C126.39309006629391 89.3519502450343, 129.27607188385173 85.08683347191995, 137.82391701040487 77.89988569184625 M118.83396469194741 97.65308771059811 C123.62718677341734 86.89560194863304, 131.24450636690864 83.02078176586808, 138.13303667343968 77.60981803719628 M123.05491509653129 94.2215868823095 C128.0981072655553 86.29418359024156, 128.70980590561558 84.31891446817374, 132.72421279393848 80.12864629350602 M122.90635921833923 94.37934690830797 C122.90216937285008 94.29392558825124, 126.81052305301354 90.22937500657562, 137.9793439313172 80.77579230780267 M124.79897292368248 97.97507961077146 C124.42384284141744 94.9091632599502, 131.32898505485383 90.05675024079059, 139.1685627567974 81.6375272050414 M124.42274839798552 96.68825598595397 C128.7871676984359 91.0867845579595, 131.65038079856285 87.99709191483201, 135.43250035651081 82.05597850727312 M126.82401351192905 99.45739923174105 C127.39669651888396 92.76660080759102, 133.95883350259342 91.8856815671273, 137.3921508226014 83.04893600380777 M125.07360840075951 97.27093770245452 C129.32891528370237 94.14349458270851, 132.51503886676684 89.31769798534762, 136.8216586025399 85.30187318812291 M128.83421346817275 94.65377089145592 C132.03220846562706 93.54870479774624, 132.80027201251957 90.52548179599188, 136.40308578937794 88.81013848621875 M128.6598006167511 96.1890351330927 C131.02605846719803 94.55054289738312, 134.20144054774377 91.89411769031508, 135.69868494383113 89.22135400439684 M131.1596907754402 97.37900534525124 C132.33364107074036 93.60382413216095, 135.666195277445 92.94834610394344, 136.51526783719407 91.550643609014 M131.65912864721196 95.57305778340942 C132.5471713424044 94.3261051805859, 134.3129972670442 94.00815606579813, 135.9386425810568 90.67788739561036 M134.64710492745417 97.36659167957703 C134.8871352745177 95.6540759845628, 135.13980272711112 95.40217762750424, 136.29561375093203 95.01449761781146 M134.22653020063083 96.69193913087682 C134.97541438093637 96.01491392321961, 135.1729157707858 95.66179269100896, 136.34711536283547 94.8041061683091" stroke="none" stroke-width="0.6" fill="none"></path><path d="M36.39899716020449 34.85758847414391 C76.258537226012 37.167808117422204, 113.86123683253471 34.506946850736554, 136.7145138964451 33.32242107020883 M36.740434164284174 35.65924093787475 C63.114354492964935 35.90701864268598, 88.73107872218463 36.028135591756985, 135.88261530232379 35.03337979869977 M138.9771320133686 36.2962532248873 C136.44353939785967 48.493636468832335, 137.08877210251717 62.652552368707696, 138.510056528473 99.99190658232315 M137.49015552390034 35.97662872135355 C136.70024539424688 51.996294549540316, 136.83615159090732 67.3573857771795, 134.25311367748165 95.52821130716114 M135.4192336452131 94.84787006299261 C103.35958238258405 92.8851378138607, 78.171464483422 92.17133599725035, 35.5985608333594 93.41386615122568 M134.3509552523502 95.2449481536062 C102.18551130949923 95.67885273912918, 67.38500066513569 96.2223159375979, 35.57115239080487 97.82430249959096 M34.428019247387375 96.45213725615544 C35.7171445904291 85.84175655696069, 33.806405046890916 68.10813193597663, 35.90871453265221 35.520694224861835 M36.25665820381685 95.39592060596699 C33.98547685626184 81.10411934181977, 36.55805380777819 67.66606388155463, 34.945451975732944 35.90061534381273" stroke="black" stroke-width="1" fill="none"></path></g></g><text x="36px" y="36px" visibility="inherit" fontSize="9pt" font-size="9pt" dy="-14px"><tspan class="text label" dy="-14px" x="36px">a</tspan></text></g></g></g></svg>
