<svg xmlns="http://www.w3.org/2000/svg" xmlns:svgns="http://www.w3.org/2000/svg" width="640px" height="132px" viewBox="0 0 640 132"><style></style><g><g visibility="inherit"><g stroke="none" fill="none" x="0px" y="0px" width="172px" height="132px"><g><path d="M0 0 C0 0, 0 0, 0 0 M0 0 C0 0, 0 0, 0 0 M0.7454611569184291 2.651806899832731 C0.5116780614062255 2.0476850432042033, 2.382666536124856 1.3251189555322083, 3.053502450954152 0.24066272493132224 M0.003466315594457231 2.5467031176716133 C1.3405359811246362 2.026336768962278, 2.3719416761622862 0.3683746680696002, 2.527799692654187 0.1949792398346335 M-0.733217268447399 7.598478226941369 C0.10877382080363773 3.3876976773948164, 2.204015770629982 0.8217096514259596, 5.3393960401452905 -0.4570398738062501 M0.11027560250284785 7.000112741213066 C1.3884967105443224 3.8405808543374547, 3.7689847871721054 0.9247318262915191, 5.175393348479453 0.1896733737547307 M-1.1063163470451503 8.681479258537513 C4.277083468481593 3.6710317876190857, 7.362123887137441 4.444852330592929, 5.559946020461115 0.8749356288805199 M0.8870361567412424 9.457675232551118 C2.5706555339126878 6.424526349101866, 3.275798732799363 5.448384185295536, 7.632819140387863 -0.4454090087928696 M3.156503587299474 13.385215202269372 C1.1571262849535442 9.491101361403228, 8.321906567549988 4.254833831255142, 12.828907207365123 -2.3052937832875693 M-0.0068305185247878875 12.831194018770972 C4.052523068988669 8.151309900584856, 8.319833410696845 1.4675575163111243, 11.998349844589503 -0.5048520891855526 M0.6755816120853604 19.21420901120708 C0.3826012912433021 10.208073996813452, 8.011753846157445 3.5756213245150654, 14.032279489742013 1.0036664808512947 M0.11543563424707948 14.123425297454538 C4.788481754055943 10.691205048024441, 8.172384404106392 6.288337397591668, 14.928162498642894 -1.8654690837878993 M-0.47181367444105504 19.2037261552155 C7.492325786603531 11.281778271538663, 11.092193931678931 2.280928741445507, 13.214758839277641 0.05544430003971623 M-0.36604409445827635 19.166670537119067 C5.34837905120786 13.419644727729448, 8.593446135501154 8.987827145732783, 14.92280734511232 0.9403968785042771 M-2.985249257446661 19.007864969943995 C5.377982380772195 9.982933791211309, 14.016853201891772 3.6587332355707485, 16.524105374061364 2.637341695601574 M1.0696307577669382 22.44543705308368 C6.18861858044597 15.985236977848027, 9.910181988691622 9.799512974225598, 17.928584398412497 1.3533491998132732 M-3.5678306980678993 20.544772929348486 C3.3903572477314228 16.964281799489868, 16.32628699827849 8.71511893863586, 24.316571648444125 2.6167873168103792 M0.6222359791434329 23.482042022666793 C4.179539766571297 17.131454107460744, 10.588586101500873 11.86321607983571, 21.40401525417852 -0.5318644614223977 M-0.25371346933184746 31.40306751421534 C4.904313582685472 15.731076793621746, 18.599236807305065 10.038982949130183, 23.149685205108465 -4.062212938269509 M-1.560823613167142 26.321426185967447 C7.886701778605332 19.668910642741274, 13.326687496475742 14.994819301300165, 24.558739530956828 -0.4616150264995147 M-2.9659295559413934 31.692274849199286 C9.881947262054638 16.87500464268338, 17.215792833046123 7.430192513667688, 26.51835793215266 -0.8136544063048294 M-1.1738428385247879 30.712515061194146 C7.7495758593604664 22.906292085201038, 14.052845141032753 15.247851880303909, 26.319787908340068 -1.4995864066906073 M-1.273107517277369 32.420170588731295 C9.331284857375895 22.87729477209234, 17.3656913482175 19.19777858692771, 29.42187677370599 -2.690094097008485 M-1.541002912771381 31.543641345198836 C5.026302081214344 26.673964314460097, 11.729014269038231 19.26965385573, 28.68077324787274 1.303252194440037 M-3.802121658093917 37.89994273114401 C4.7601682127146026 25.710415763529873, 11.448976911957981 21.309031596428138, 31.064620987518005 -1.4590260548700922 M1.0245711617701883 35.340562603986086 C13.492789510561343 25.906847645211563, 21.996926064422023 11.393016666116404, 31.297380014888716 -1.1768263611613898 M2.29647162598671 40.1299992857783 C9.3312699747144 27.683857433393893, 24.16479506137701 12.99779468934547, 33.148217790323365 -1.6631222112109008 M-1.5095967271704165 40.041676760153806 C7.038356816419637 27.11632531742776, 19.220650320137267 18.16672863543885, 34.04154613682813 -1.809013301343441 M0.9239515074203535 45.74482836474057 C15.043173968125886 25.983749756768084, 26.551966133496986 12.727940152259135, 37.53526629233484 -2.764681649945075 M2.012462437214685 40.93159257197222 C12.214306493076396 30.934994758944942, 20.501485362159208 20.18498577490677, 37.28924367186643 2.2154663747946497 M-1.335284818920032 44.11114831005878 C10.234947732503068 31.568299229645483, 21.477345964716836 17.53666949550513, 37.62066617272512 3.9664294506459257 M0.16840841915284432 46.95098263326819 C13.918517788285854 30.345070464529527, 28.862837097175976 14.594154046968445, 38.84942167190174 0.7875610554984309 M-1.8581704759831208 47.279789836946016 C10.42301261946687 33.161156446498325, 21.445572288165916 20.351830501086994, 41.103051675473395 2.221731890688792 M-1.5779151660991095 48.895871744708906 C12.369452215453306 33.11677162482218, 26.43594770361588 19.5890503398391, 43.057954554954875 1.8149382393669349 M0.687920363409738 49.028872113196414 C14.448938889301472 33.641372982099476, 33.929461010977775 13.706433177249785, 43.36023826376766 3.241100838373571 M-1.5984046327247157 52.47992519284807 C13.132032821273896 34.48552610926451, 26.959818733027255 19.200599682687464, 44.784255904576476 0.7789951800222399 M2.18828596246896 51.73095125796431 C16.88608067195194 39.154366783227914, 32.85746501997161 17.292136495104593, 44.88501060790663 3.4519945941339465 M1.5723057258061042 55.13343486822509 C12.40929976814792 41.77613681512615, 20.32732136763004 29.352640985464802, 46.718072906300236 0.7160724096037301 M3.4283726899544593 60.47943315000487 C13.56307983448784 40.55818695218727, 21.080231848843706 31.88528931708165, 53.32284007993155 0.5760378636575254 M-0.4926417961405969 57.124281600852576 C20.248195119990957 37.27747042668245, 36.88346090058699 11.914589727360731, 49.842174364000606 -1.7339415214213645 M-2.1704177389696415 60.61507625015898 C20.295910112929832 41.449813446981025, 42.64936924950588 13.009820867021325, 50.93694517067954 -3.4590613938077066 M0.5378407561301906 59.79837032591463 C20.174349602977276 38.30144056763969, 40.23874805904904 13.225180203781669, 53.573813647642226 0.6961845174870556 M-1.6293290911072553 64.26959644125658 C20.138084295940054 48.45907514178348, 33.46602193152998 25.13063231954332, 57.68622508388911 1.2043544227505727 M-0.04137049586790642 65.07154520954468 C16.068157301754457 43.268864397725984, 33.753260721858716 23.664521929902914, 57.80801173494126 -0.7025305897739509 M1.7649178785709072 67.68508982552942 C10.413803321938863 55.239992286296335, 21.808669997830975 33.6495760089717, 58.12212905468553 -0.5208207866886241 M-1.200575957075399 67.99544151307242 C13.629952150191386 53.63639472639742, 26.42240620438752 38.34733359777171, 57.305472859896774 1.06589611285131 M1.3546330030567066 70.8919918892055 C16.52630645449926 44.5766880081467, 36.0672569502866 27.13637600992061, 57.63632054262232 2.5949632881841858 M0.7536295145080292 70.11226814281565 C18.781588272283013 50.87800226078873, 33.85042466820595 30.068608976213344, 60.859532670964015 -1.3899388304824853 M3.3179344459859212 75.74394366994521 C16.93973120959747 53.075149597940566, 41.13675851764303 28.063024319799666, 62.00350351324019 -3.0879288237506355 M-1.420294645773895 72.96398145422832 C16.07341342250695 52.31425503528088, 30.045531274562514 36.520931973441186, 63.894743684324936 0.6451884834459714 M2.469282106178264 77.57047631801932 C14.214783429683713 56.4391579493377, 34.73228379440984 33.05352560063947, 65.69952350193002 -3.3251071703978052 M1.4602779163149133 75.57136127490473 C14.25171017310374 56.80777891164068, 32.96321571286461 36.749459234739064, 65.10990729179261 0.3121348468354519 M-2.69598246223849 76.10985904942704 C14.521040815234597 60.64482906367068, 34.646967565005816 41.961363005968195, 71.0270206860916 -2.0978194974897697 M-0.1943235738062521 79.065370948977 C19.35849640241351 54.49946178344402, 40.46624167039077 30.725095285878986, 67.22684515092017 1.3498704354639468 M3.656106376192266 82.98113624021563 C24.57476499456501 53.174993345662784, 55.977173618684255 20.734343768509312, 72.80241069418047 -0.23927691315388522 M-1.303602422104099 81.32869644601239 C13.834554819189634 65.46309787401883, 30.666025062691887 45.423126105871994, 71.48483010222616 -2.0205666257893604 M2.0593849527300794 88.58820162950457 C22.251982152667324 67.6688380028674, 38.380720248116766 39.553871129627694, 71.20629911621782 1.0923074236730965 M0.30559533943169637 85.23142974855391 C17.920055843845688 59.68341221760731, 36.99067865919456 39.854709745534436, 75.05208848223538 -0.5929111589883149 M-4.056799717247191 86.79165262833956 C18.12570761211483 68.4348845850245, 36.80193914086985 49.47722544649329, 76.1959547385608 3.991996178627721 M0.5371408202853454 88.56703435674976 C27.291711605344886 58.777282843372106, 52.21583060601372 29.045394100709537, 75.49465930556768 1.0192059170871515 M-1.1178641539698262 93.06169815362419 C22.152684300194956 73.06608379786906, 44.27630565626451 48.9640651826592, 82.56666383676489 -2.415227985977962 M0.6406443628012362 92.64657706449701 C23.716844527811393 62.05309937115369, 51.799300246733296 35.30781515353435, 80.87875963210183 -1.1926547371186142 M0.847688415932053 96.403235850682 C29.126183305860923 60.07856061718238, 55.03421690917572 34.768661817704704, 86.01785759398412 1.6821482687078735 M1.7370558558603788 93.28686883469283 C22.903911931814108 69.67982835993091, 42.30075145832354 45.8311051078199, 83.1805057971009 1.4568495787629798 M-1.9031841485264387 95.98065473705917 C20.736647392945486 69.55951921447704, 43.24205393823514 44.90041339324618, 84.00738398848449 2.667063786954488 M-1.5391331658033032 97.33175250236252 C29.743829572139038 64.08232914143278, 59.606847453069896 31.102383765208195, 83.08983217952962 -0.21971378379689188 M2.307821797811714 103.99729471543127 C26.024412522091822 69.58058786283603, 54.974887474917416 42.99351531392876, 88.44825438869569 4.16370016068039 M-1.9422424061253922 102.28864910017455 C29.572473407689642 61.710371981213974, 62.13323090002935 23.97080859582586, 85.66916023743421 0.6871947030941952 M-2.834540371729032 103.72554460368698 C31.752852234192424 61.040258877383884, 68.11391526404395 21.380032672300196, 90.9636499232721 1.8389696774055793 M1.8520536436288193 101.72820992595787 C35.13545411524669 64.91621224421196, 67.58643573039039 23.940299856963925, 90.46676781722948 -1.3976241011867572 M0.9318374592909535 105.94743775995038 C29.234281560866215 75.29215608037934, 57.35392330906799 39.37803873037549, 96.43472059734744 -1.853495228028109 M0.8124065724607119 107.01130564313964 C26.55734179727718 74.50817654748681, 54.04809204849195 44.03545983973593, 94.7391188370552 1.624269993341068 M2.104383345624731 107.5429568641566 C26.042430680527698 82.1502154756934, 50.42746764929625 47.605973289053814, 92.77259001172496 -3.568179977520341 M-1.189682621740202 109.50895941471302 C37.707538722838464 69.48092747602982, 74.34382937923817 24.23740736222803, 97.44161647963344 -0.32393887682000955 M-1.3001574676288552 108.82952834338933 C38.57537392011745 69.82824698741075, 73.78925282341173 27.69698858043338, 100.72727446366775 -1.645917633677401 M1.4865339698363114 112.2846637193979 C28.95253261414788 76.40288626241204, 61.98004057710395 39.99168611984078, 99.24974950829251 1.2575066027008646 M-0.7464473897394832 116.0909457707813 C29.311472409952238 86.36382330289432, 58.01256436624458 50.52837000558378, 97.77036583921858 1.1581037519956894 M0.3174391874315674 115.06986631580376 C27.563038021146422 82.10220474726746, 59.34297529524008 51.03665776045569, 98.94760559679018 1.7268175792497278 M-2.5633923792555127 115.98541019802484 C32.213779420081295 86.23784414244714, 58.963677821142184 45.68770029925862, 104.38487376933381 -3.0492541226884295 M-0.32819772166277783 118.8631895868552 C28.101946059054416 87.6563267978143, 54.286894180709915 53.35186219203957, 103.30150096161984 1.8315019177009404 M0.32543513728942663 118.05176412376221 C27.58776250891291 89.99753712668947, 59.63124415991767 50.110317896778426, 109.17991413334025 1.2532221321823673 M-0.5821281667653233 120.15634634009416 C35.892584218159314 83.57144143678251, 69.9876178496659 45.861404675302225, 106.58568208292492 1.0064910197051242 M3.4136544857179487 121.7350086089532 C26.494975850906563 93.82027118094356, 51.72119660473001 73.76542172876447, 105.71284435478329 -1.984013982286637 M1.0722526848464549 123.44464767712873 C27.771129831849898 93.65292274662724, 56.60630880437329 60.609272761385824, 106.85816461134343 0.2654132385143386 M0.6186832715172379 126.54211392362782 C24.32260386216408 96.5773208651785, 53.535920611785734 69.50714231983325, 107.61117055150599 3.271767644659647 M-0.13038937547338936 129.98962260781187 C23.679614398456977 100.2810261397131, 47.33061206212681 75.80718610801578, 112.97227622606506 1.2497570402249938 M0.357936065139727 133.40072568499906 C24.77629010740291 100.52720536501494, 51.94868665718646 72.46186399130853, 114.69928086488889 0.5430328282092045 M0.9844436743103087 129.38682910161066 C40.004284588643586 82.4334634907649, 82.08397355929681 37.57842041631292, 114.37935182931624 0.4538647921575363 M1.9168027618655934 133.6694692342955 C32.38987506223154 94.54327009382985, 65.54926696289672 62.403798392765566, 113.64754773511245 3.870983600702468 M-0.22066479252242654 130.51753705737593 C43.952211443829135 79.12986540730542, 90.93530805258567 25.827755712669198, 115.95512020764681 0.38962010570509786 M5.036682661227513 135.31810001025255 C36.370488431773055 102.3704761680986, 68.0807777216399 62.27688933708844, 122.5561034627882 -0.6814023079530198 M2.381852859166793 131.87966566899647 C32.992849533430274 101.15441981463843, 60.32161065754503 70.73396569022289, 118.94063802115367 -1.1176623296403205 M4.460913335576667 129.75854631091516 C38.06277116713504 98.12792762751606, 67.05029138780128 65.84697027730188, 118.99157296638914 -2.3146313422917757 M6.624935390016009 130.18637345773914 C35.862004167387525 100.52889525587055, 63.441264573271674 66.88851364540774, 121.66637143453946 -1.2153141588595657 M8.697203964116161 136.21866127318907 C56.205332030413274 87.21548251637728, 99.61776424439691 33.48377985848922, 126.89650279475985 -3.014879715708064 M7.519349202760087 133.31402516971906 C52.90878018223029 89.3252957764923, 93.23168014023376 40.5369713353372, 126.05167394458674 -1.0291125612107033 M12.03501734065851 128.42458213102947 C47.765514536000815 93.85523990547811, 81.83343397650074 50.669896206295284, 127.55869873950472 1.2092019529745315 M10.312205610296466 133.2219690454411 C34.67749595886474 101.07800520358958, 61.957872699397115 75.50550042368359, 128.53778517167228 -1.4394426020382243 M14.43436076806952 129.84247897038858 C56.91827458482997 81.83679987982735, 98.76701118534223 37.780976110128975, 131.09323800367542 -3.7371606696489703 M13.913677523515505 134.1526443121952 C39.73091560801368 103.59737346333127, 66.46232286856282 74.27107565592533, 130.67279538157663 0.31098170331364994 M15.439708233320358 129.43547237212434 C46.24556381833028 97.16207596135888, 66.23367602359133 72.58476456559502, 133.72326396153392 -0.13527621525824962 M16.739463024472165 133.3008880110297 C54.17918458460173 89.65791607676968, 89.70183911113875 46.7940760902822, 133.45527206837167 -1.2981487484678231 M20.663495039470543 129.38523189930442 C57.38206599124155 84.44676377292315, 95.95919554706128 40.19070364280537, 139.1181791259287 2.2968011389288563 M20.242558020882328 133.1588955705665 C50.49100748022825 102.14309883865299, 77.53124069737603 70.22006605095379, 133.5268054625723 -1.8828271481139147 M26.063629883220372 129.9115287426912 C49.18431800754714 101.68899150804836, 84.66406023037496 68.69011289481395, 140.4473230895261 -1.6615658895971848 M22.035430288632853 134.064078385077 C61.25592252965518 90.48471902897836, 98.60258935565774 45.38389677298276, 137.49073407451888 1.1441896850897484 M23.660952305211246 132.64310405549725 C68.40931133593989 82.22253412180234, 117.45479449060812 30.507460513032154, 139.52729015044505 1.9267609827893946 M24.479449705667218 130.32112659804923 C56.06468826890687 99.3066228900376, 87.4805181207749 64.78001612478775, 139.2057448410448 -1.2847058065622479 M31.027985356793202 133.91059229235879 C62.81954151942656 96.83605953506097, 96.24335136171597 60.52747203781526, 141.19533025299685 3.33991658827269 M28.912260080445503 130.04538898961493 C69.19723014863776 90.21314320944698, 106.74959010328584 42.93869358129845, 144.6747484399017 -0.9259191577397736 M28.365982892758662 132.33334340188935 C72.37731743494959 81.46618563172336, 118.36557264642401 33.44961633208271, 144.60262512467085 3.6231013610461265 M32.22740134644675 130.59719207278152 C61.716060792744344 97.78917573160251, 92.1871960803093 59.55824390761366, 145.20463330042196 1.0202400912097795 M30.939545728617368 132.37028405342474 C66.88876221817557 91.29792366543, 93.3481466313537 57.60802075894655, 145.0372745440923 -0.6956519734459423 M32.86126642840729 131.46572704487593 C63.53189359974517 94.29454111483503, 96.77868237960477 58.30830889538506, 149.682007801758 0.33742769579329845 M39.53970392491606 130.65506793238714 C84.47167444909435 81.27373115463269, 124.74190762003991 29.821675296623233, 151.3706611323577 2.0802105898294982 M34.874166667249064 130.94361090291244 C72.0464508345797 92.62742353488977, 107.16794318348055 57.20315582211717, 149.77897101442343 -0.16200427870139045 M38.1071831935478 132.383023569279 C81.06221000217977 86.40441512058375, 121.1969913380281 48.979837391435744, 154.62435484345508 -0.49915725751623796 M40.69396918266483 133.54006823523744 C80.17191833118147 79.79915206450566, 125.54260652289473 30.580993628078623, 154.15767970322224 -0.03011792635930899 M44.353210207905086 135.06153300927906 C67.48287172571774 98.94998245782368, 100.18170536390531 69.12910902492854, 156.92381002105301 0.6030248456462246 M39.56672885613437 131.02176774066407 C78.98183694193308 92.76845776866695, 120.22263118144124 46.728672063068956, 158.32989784576884 1.484108361027853 M44.05426388201212 132.24447616337997 C87.42366610778004 82.70801894219738, 124.11075306433386 41.3519883914486, 160.77768416450954 0.9117995552182592 M45.06616087475518 133.43519215756703 C72.13631046814245 101.13262377154686, 102.21402840712642 65.82856682497355, 159.75093368568082 -0.6303763473582356 M48.51157335808373 131.72344121093892 C83.27476981195703 83.66088828506149, 127.21384824917193 38.407384038311555, 161.99346050175942 0.6128485205836434 M46.59251801129485 130.6696936789991 C77.00656884640802 102.2631145022108, 103.71372663393751 70.64437929666657, 162.52131309732465 0.6203471493609714 M52.7839553373167 130.47443042815766 C94.50807342069974 79.14510447663373, 141.22449275913283 23.18504798312358, 168.34296083751508 -2.9527797878406137 M50.415583074224024 133.25661816737673 C84.87559596112366 93.57758945848997, 119.73325560309479 52.24500991890864, 163.46299397155326 -0.21936882901761479 M52.01358381120687 136.36897332278977 C79.81140878926983 102.56668124287579, 107.55936564994393 72.56699024808464, 168.9250875550541 -2.991845960727847 M50.33675108968728 133.320785377336 C97.4081124055793 84.1567040249466, 143.02435457593185 32.6585759568596, 167.13516032537783 -1.807222049368871 M58.604772540517864 128.30495300841045 C82.26636294424722 100.59967042856157, 113.69720200525191 63.31376557342624, 170.14993585583562 0.009782149422676412 M54.260303687071314 130.96714824341842 C92.10482679679083 92.65764213884387, 127.67385722109795 48.334082151340084, 170.4902181400497 -0.9486989238852734 M58.70229627434861 134.85656424941504 C89.46359767634885 100.80524979187157, 111.18497331761881 66.13881757695538, 174.22536697047704 2.75683523913756 M58.19000887594486 133.8549398830041 C83.292909609289 103.10862047097422, 108.42291258383344 76.8509669606097, 173.44210315605932 -1.6634025270245987 M63.150387172461976 129.29174001206786 C89.02320764407804 98.33001307996594, 118.25902981845003 66.23144361000894, 169.07604297341675 -0.7603521764136758 M59.78067883697033 134.58078609620497 C84.27242124768124 105.22794707403261, 110.95270262726712 77.00411002340886, 172.1294953486215 4.170397993247028 M61.36173042089586 134.671734166057 C92.05767232980463 102.1984874567742, 118.12732566263502 69.80240924462237, 172.18673131751726 4.42391548299941 M63.19455302665904 133.08312993773296 C81.94664998212275 106.24454775327513, 103.85603348475888 78.12642125721904, 170.96287275811258 7.814285449157349 M69.00196097090384 130.94663079203258 C91.81225922792949 101.32930385918877, 119.4442779438429 75.1550568917412, 171.83117123529465 6.491439356617937 M65.14582163860857 130.5359660104513 C91.90628538938816 100.96479748319314, 121.23681069310764 68.62291674788138, 170.9948851661906 9.32455320127064 M69.48914871335784 133.42423332661178 C98.89810331034698 103.38942913791902, 124.28580470450937 65.93275989335346, 170.3784813522429 10.239328764958731 M69.82793338643351 131.92998686904025 C101.86895267935381 89.80273800048676, 136.54226499370452 50.40128529297547, 173.20659557661517 13.403111309508756 M68.11737878441895 134.2201604100876 C92.94192014826702 108.6449283481452, 118.50969415598097 78.55427911453809, 170.74525804235702 19.13657278135151 M69.41164906695938 132.8580674223082 C105.7534513590132 93.30496204789888, 140.17978380762315 50.676735222994104, 173.26012474476727 17.073990237650086 M74.01724742412702 130.37563498405973 C100.87210678295317 98.06907003859092, 129.68336641788835 61.723020674174684, 173.547645114424 21.931955320790635 M74.117257493884 133.35785838244638 C99.07819702642841 102.50533343353382, 127.32885136423712 71.73884373605054, 173.85488864580284 19.432813599571343 M77.16169489032423 135.35630981333088 C96.08083781082479 111.15762831958796, 120.02249963229657 88.44428196240449, 171.0855943968785 21.17009834391922 M75.90065272130005 133.3021748968266 C114.07716665595069 84.60363910648, 155.01169885709257 40.92716839077594, 173.19841853609606 20.415971343213744 M77.72539739408165 129.73806584978385 C97.73891478712689 110.64279487242186, 126.1067262998516 81.84293791694222, 168.528052165888 28.686793515812838 M80.27727975250201 130.4200825648453 C97.4040570900831 108.88179327982606, 121.06747539725866 86.09915594930254, 173.83658227242313 26.084185063151594 M83.55877392782556 133.86124138393689 C105.42796734489453 102.14984309884247, 136.83381742091223 70.18492685274198, 169.81704563226492 26.05369759143433 M82.08709201495641 131.01229814456474 C104.86129291441641 106.26092582366427, 127.91513046090576 77.82630246625361, 173.63983200522858 28.972323009397567 M85.14071409064462 135.5313596474322 C115.32406000068816 103.06707194739903, 139.29082878655592 65.92535496037338, 171.19249304251528 30.729070712368127 M81.97033090967975 132.82959215655077 C106.3599645447348 107.24565539539732, 124.59752187556968 82.30104613761533, 172.56281030286655 31.536485106479503 M87.1934993033955 131.04787659534364 C110.46828269098113 102.49129754140925, 144.19863239513464 65.84397271058793, 170.85145428273398 34.08043408354327 M84.82664579488448 133.55128976942765 C113.30326059694664 97.44076898548978, 144.42367419487994 62.42699018102489, 172.761769397056 33.62623410322459 M88.8768357551789 130.6115216048682 C102.90639954534902 114.25155371116458, 122.21789625414301 89.44426917355196, 169.5927816223067 36.23364161538258 M89.18438771357654 130.08419065919784 C104.84007213501528 112.09702432770563, 123.42349227061327 89.05323697655905, 170.80357991317436 35.30578538379677 M87.6356398259231 131.16689347487136 C108.19859624489123 112.99793801621769, 124.77536514246728 94.53143340021116, 172.50730772840578 37.794806596738276 M92.81549405132822 132.78607671367095 C109.16515007416854 108.24951487652106, 132.24062744822297 85.43273188188451, 171.93569540571028 41.15110620841417 M97.10096029351811 132.58567923127328 C126.38774129074699 101.29877886547295, 146.8152563146721 69.99320246303901, 175.47294751645555 44.38165048212857 M94.37294096951292 131.28037252160087 C111.46345742091154 112.02875852296539, 128.68395713764974 92.74717880840785, 170.61917315963336 42.89991903392907 M99.61431033817608 134.73267153657113 C114.69051587384534 110.77627846922861, 129.23554734167487 87.35703736168367, 169.96234435415494 48.6034238141023 M96.70194724205552 132.3061854970464 C121.32952536887721 103.49283636166167, 145.3170139504341 75.75836756340256, 170.66816187882603 46.76574033291945 M101.46010825891088 135.14100347632282 C124.13047852412086 99.41152923845506, 156.36288932763594 67.09592503791578, 175.13932628796172 52.25148542324418 M100.77529011655714 133.1451543560753 C121.77829825423963 106.03629260081227, 144.9069205849812 82.4335522595816, 171.51447176050667 50.4488339702173 M100.2959596265052 135.35902290988884 C127.49039288348848 105.18971680388138, 149.67384525585476 78.74148268323096, 169.96010067367237 50.600275509236994 M100.59966973782575 132.44998048491036 C121.80267480572789 107.47285378545894, 143.85105537242782 86.57126548728118, 173.6277268135837 52.08069958488305 M102.80561572528725 135.5599121425228 C130.20916444648938 108.0422553484927, 148.51715289048516 82.24105301855754, 169.58262998135217 55.08015767484599 M106.75831700152418 131.3277759292703 C126.1363505140656 105.68910605795037, 146.02027026518041 83.16886603647109, 173.54830513715032 54.23464454264815 M104.58424574056819 130.3519657609381 C123.75811554104254 113.49521976510694, 143.70841055273567 93.49953638632101, 175.6268168946265 61.06984676994581 M106.73176544468848 130.52934695294937 C124.15229645760346 111.5874504375774, 138.6715532547083 95.56056454303744, 171.7488764676094 56.36661533257112 M114.05056030091257 130.9199087862513 C135.55591642365903 101.36930108699465, 156.58290295820348 77.62350727719185, 175.76292421690542 62.685956429293775 M109.59937249815991 131.64574168194872 C122.8718967274391 114.82202053800607, 136.49834879853455 101.91491247131329, 170.7255155125905 61.82512123739041 M113.17995860560671 132.82066860828357 C126.67668343155574 107.16163016335773, 144.89636947360717 91.82110269558986, 176.0286055371485 66.3042373773622 M111.87798864015953 131.4400864484706 C129.97144170020843 112.02640589016787, 148.93627232366782 90.39057995973553, 170.7714872497005 62.325674014583676 M117.27526082447179 132.91760047249744 C135.1982406635926 109.56040256149075, 154.9833264284558 83.6184162318626, 172.1926513468027 63.51520520860262 M115.50867674465519 132.02525238754396 C130.08508261494137 116.62089002063112, 145.10560526515258 97.9074217583963, 173.4023840573161 69.23203704982114 M114.72378964290054 130.99145104229717 C128.68147136511598 121.3004078642344, 140.36078846630863 107.2795232320789, 173.8963580802726 71.07752537901122 M117.21906446817991 132.81933156091495 C139.79413957707305 106.8456617024031, 157.0070174131372 85.59588590986401, 172.50758241598282 71.77952113871319 M124.17223614912567 132.59285213384632 C137.11355566209266 113.00247090566486, 157.43879135716966 86.1234340969233, 168.89710522049037 73.14697836923938 M119.88455186888832 132.30765767506085 C131.4765081724315 117.87413494710518, 143.52743181234203 105.95673875887746, 172.7080670992243 72.54429455149057 M122.19183264768425 134.65512969862743 C135.31657934190002 119.1408119589061, 151.4788169542259 104.71592157707445, 168.42501273597392 76.52443971806497 M125.24919423602908 133.69612235621796 C141.34024549398794 115.9227913985807, 155.47444389923103 98.01181738748667, 171.28590142025953 76.03744075174778 M123.7541614351069 130.77867858184186 C141.55784605838386 114.11833023984683, 157.62155135126673 97.24207895046251, 170.18134360480798 79.21683776595559 M125.446786266751 133.74398858771522 C134.54241738436028 120.89138942205494, 145.89851391131975 108.68923350604824, 171.87593658392834 79.83061631701463 M132.40528652301916 129.32731350203156 C144.28613259458876 116.80737553606497, 152.8912797285946 104.90483450711818, 168.74322630943647 78.49244974141348 M128.33494456529505 131.6673621338684 C145.56186889777493 115.40450938702098, 159.43886358148808 99.08237884016124, 170.7338084378945 81.90856960750263 M129.0368472492838 131.7310066733768 C146.14217160163474 113.82511049672222, 156.5552404919768 105.87715787082173, 175.4849243537629 89.58846844583701 M131.35466831256207 130.9875559262701 C144.53975462141534 115.98611712039484, 159.82323262438985 102.64597380846209, 173.69083266031168 85.46736261328542 M134.98253136222084 135.72686491567396 C144.14189822550367 120.90183257920769, 154.40528994609662 111.59279823757231, 174.42579102057059 86.13774146749542 M135.7649376877713 131.17992049326605 C146.31090669933144 117.03524653151523, 163.7757240947323 99.01688138697068, 172.4193591638493 87.92061376436659 M135.59028378639994 134.86498491447148 C152.69534844388187 119.94061608003499, 164.46837175718943 100.32154175682459, 168.9589425231312 89.88062786258673 M137.16415507839014 132.28842330559016 C147.90463798810973 119.83643447347767, 153.89309912971277 112.81417951931395, 172.23820533733556 91.91032792062617 M142.54108667229713 130.04533400925177 C149.33463727875042 124.77768178459358, 154.52242840734428 109.95668760175595, 173.39730154006855 93.46855305372226 M139.61366542406654 133.13557531590814 C146.03740142486672 121.94050795214501, 153.54411612789227 117.18873970546082, 172.44866505613868 95.79229192407185 M144.41662149434262 134.02334956129886 C148.58362444424117 116.98275373991153, 160.70182871664485 112.22155990682809, 175.18194870485982 98.21094676928112 M141.14685274563783 133.65945849431841 C153.17226016706604 119.74067732665478, 161.9212926698807 111.5099578733034, 170.12154967654706 99.80699037030197 M141.2619779268331 133.77192542456314 C150.07309528813477 123.08408072896314, 156.5712813150523 115.47295554255706, 171.12964436454456 97.22300216489847 M143.30601530662662 131.18945879698677 C154.97445380171163 120.26356759859652, 160.92824922828737 112.13291905719663, 170.75650627388075 101.28295703263545 M143.77204655290862 131.97830490882905 C157.85455776492216 121.52990340977851, 163.10560763874508 117.50491614150552, 168.6548974142391 102.14376666891042 M148.20843093624825 131.81715688607932 C156.05482475530835 122.92655066441242, 163.5952899781848 113.38832827492561, 173.84573533559433 102.0603363600388 M151.9822630309688 129.87723320106468 C156.7743723120812 124.76077990523534, 166.1866569947851 120.74169736555605, 167.9702690847134 109.16674636669184 M149.12955005194573 130.19056562976425 C156.61148099373028 128.33661930684687, 159.9829224655021 121.63601324042341, 171.63426165030106 107.37220217722394 M148.70459800108569 133.5102406044399 C155.12018950198663 123.74955300966151, 165.61374870094986 118.82942473563448, 168.4880018235365 107.74994278024931 M153.121675061894 131.7430677818588 C156.95906933914594 126.44070458065892, 162.78946136198536 123.32669060986923, 170.40419282820284 109.68868423257204 M155.05952588359787 129.0289336297855 C159.99775345653285 125.13039966917407, 168.32734573417122 121.75620892113838, 171.2499829909373 114.34257591767339 M155.0874919901348 133.84700002408405 C160.97242752924447 126.5970890946159, 164.69704952384814 124.53882609436705, 171.25504406187312 111.58460195463188 M157.99494044836774 134.89769360668208 C161.84159767131658 126.95567904644271, 167.5560686254205 126.42082861300631, 173.76905851809437 117.94991850418475 M159.52929023691485 132.7626199918274 C160.44853314453607 126.30858030935808, 165.1253850614191 120.52651719049524, 171.3980704950185 116.09251043450368 M159.79557030996787 131.629232230856 C164.45554864336103 128.0218946524259, 165.5896036403023 122.89508414685538, 171.12311449484324 117.67273783782767 M161.3869461250371 130.32040676540697 C163.84982475296061 128.11795747485476, 165.03657557310754 125.03660190088355, 172.36833900325425 119.29995779807182 M163.77179397695602 132.65366287105346 C163.92725142136018 128.84015839375962, 170.5949432091614 128.40148140219074, 174.3559054104481 119.83899536577903 M162.59322904198808 133.07068641583305 C165.5102143660758 129.19576195513332, 169.33843273444467 123.2138723478119, 173.5319603058485 121.99571930168035 M167.5393260757079 133.0495922657904 C167.39703870227632 131.25272308214812, 169.1515886641891 130.6087147717174, 171.79918351217796 123.62853537744648 M166.49893622708217 133.15523401860708 C167.78447041219198 130.6005536663602, 170.06169085729852 129.36060709331105, 173.22583297265194 124.06085454197657 M169.61968311679152 131.50410042290216 C169.2804851719537 129.9331861919427, 171.38442256942872 129.03846106156868, 172.72421129989382 127.40593586888437 M168.9494798739593 132.40185842739695 C169.74087947897772 131.35476155145182, 171.00244770532328 129.62082682135352, 172.4012185956643 128.124096954699 M171.59055272851896 132.00557846646302 C171.6978775326202 131.60945636151422, 172.0833126627418 131.4469009199777, 172.29803231515737 131.30841155122016 M171.53541655293753 131.9353325792019 C171.79837308840823 131.64575117223083, 171.95509033220227 131.43300408299945, 172.22864839490214 131.1672340463061" stroke="none" stroke-width="0.6" fill="none"></path></g></g><g visibility="inherit"><g stroke="black" fill="none" width="100px" height="60px" x="36px" y="36px"><g><path d="M35.70570493866742 36.33854774095817 C35.70570493866742 36.33854774095817, 35.70570493866742 36.33854774095817, 35.70570493866742 36.33854774095817 M35.70570493866742 36.33854774095817 C35.70570493866742 36.33854774095817, 35.70570493866742 36.33854774095817, 35.70570493866742 36.33854774095817 M36.41164780049834 39.45074036975267 C36.41559761601003 38.58375719689861, 37.32215179197148 37.48980330386144, 38.443197491271846 36.75501725125714 M35.912728236264 39.23282199637689 C36.51000941093325 38.37171601954823, 37.08891278547496 37.86942627526074, 38.881766888083405 36.15964856014905 M36.02261622488321 42.472998754584125 C37.693239143623714 40.98204819620201, 40.05712743469414 39.58046623956512, 40.55751239792313 35.10728458388293 M36.29509817403303 42.03095029762739 C38.28539184250812 40.674590969332364, 39.273290384195946 39.52874422383906, 41.26296111535887 35.97899707325141 M34.1865808180813 45.525547086275424 C40.293992809035444 43.416072487522364, 39.58348840601164 39.19110678780588, 45.08883365234233 35.68064961487852 M36.13081928239427 45.428265356264724 C39.00109994168857 42.22041058469107, 42.817072207545266 39.40243757101989, 44.56013486271324 36.8091232247334 M37.63355079657927 51.41403292506209 C41.58901423165132 47.60087999901587, 41.29232530669868 39.40228871625445, 47.67336338213 38.04603385296839 M37.3065278095456 47.07247785372155 C37.53555537007314 46.43096082433403, 41.405244269644264 44.019448252627924, 47.75594614974902 37.047372454629524 M38.159171315583905 49.61947365316564 C41.85014426631189 51.02868190783159, 42.8929644053537 41.784085329054676, 48.314230362774765 32.65680476230397 M34.52729139474544 50.74833729299184 C41.83416635477181 47.24202888360375, 48.10177812549189 41.06168699385409, 48.42019483632766 37.98003867518913 M38.997356462523264 52.971225180584625 C35.77819524236256 47.426385409987226, 38.602074497375575 48.932309575443824, 53.9403231046106 33.10030698949576 M37.76955622789714 52.03374067165231 C42.22250629012308 47.364428045625445, 49.03326654395356 40.800537709642725, 50.667255359397785 36.891934190468646 M38.3278679423607 55.46865558959587 C37.7086306806227 51.25128873106692, 47.45427308226245 49.69569591764299, 56.41788641067048 34.93923097531287 M35.23234791192279 57.306125569093666 C40.98090437430536 52.04723486863979, 49.645695095610705 43.41578405234734, 56.427705965130784 37.62101437503003 M38.2621465758254 64.03874595005749 C42.74598828666681 49.39501451698803, 49.185963805677346 40.18553498154496, 60.961083746186034 39.68500935252591 M34.264242847478805 61.948298692659996 C43.23152879752227 51.86973325306013, 49.72900728290266 44.6358252531716, 58.24476679677424 34.37596334973809 M34.473777392249225 60.8384979258968 C44.374332236761475 51.08466734803424, 59.06918634329517 38.690934788766384, 60.72123442656751 39.313184116637345 M34.3130116786709 62.04889743008508 C40.733536631883325 56.018711243509415, 49.507561463919586 50.80734197883579, 58.14935565903579 37.458866542676056 M34.57887947746912 69.58389079438588 C45.70936428131539 59.520767766404276, 51.6958365372565 44.367284273808735, 64.89736797670668 34.599764291394976 M34.379991207978286 67.47147491755443 C40.6791553204944 59.199000689980316, 48.56381637428344 52.16005694751328, 63.17457047371679 35.280492871506475 M38.68905539955282 71.31329691342606 C43.571469809707295 60.7312158593531, 52.09316069634081 50.662054059021386, 61.518189104240214 37.68058054771714 M36.66453457053186 69.11018244539724 C48.9588195056832 55.84969764673383, 59.759663944535944 42.07091642098399, 63.48178862686975 33.7234766017873 M35.58191487668276 74.97026841291652 C41.12273689128687 65.28937904411848, 55.65679379096612 53.02950585807499, 68.96500250138365 33.50146839107104 M36.02341515548193 70.51522785126488 C47.378174345867386 59.69705765891041, 62.164257956506475 43.00379002331821, 66.61011630609589 36.662177215577465 M40.24956623600655 76.35596335929773 C48.188989849314325 64.18351641513608, 53.57586608056412 53.493175103668456, 71.43636810529429 35.18235831189841 M34.63765409166402 75.351995904692 C49.08573587519671 62.95151191622715, 59.47433670863509 47.62628368751024, 71.62543861370062 37.669710626779484 M35.95222879994307 77.24789805499985 C45.95638622633081 63.58517494701583, 60.39871050611888 42.82015361079554, 76.83982453591666 34.88299360830562 M34.50433228134543 77.65110249471728 C45.847105030729345 67.42992752770283, 59.362717240024615 55.72526074954233, 72.07642694885597 34.43863455531764 M35.400005843932576 78.46130383973134 C48.42397800412547 70.72307175858667, 59.33664093770602 54.55853494056058, 72.42902180974438 32.11533973888375 M34.255039477331856 83.38498028611679 C49.941748984726615 66.91888910736334, 64.01803738888434 53.120556181275596, 76.94523253368685 37.36344240861006 M35.79269265495799 81.42580972044738 C46.6650323734621 76.16389239732217, 51.01543980952237 63.84166184947459, 78.7916607466325 39.48294961056776 M38.12990731265064 83.49344622329758 C48.062105375055204 66.62699115850056, 64.63029016493059 51.29995543440754, 76.35486037696269 36.47971831651258 M39.60842117477754 91.27425524459622 C50.55045413289106 78.31916112906973, 60.60620066000825 68.18262726088439, 81.63087886433033 33.63038666777251 M34.64948532723317 87.13495821457052 C48.508335296686354 74.95267414473554, 58.34306502122157 61.047517646122216, 79.62074117823065 37.98241967070712 M37.9848164946938 90.32234718813078 C46.23224487584555 74.33520015721182, 60.163463405861684 58.6401395437578, 85.37689676035063 39.07904344715013 M37.82310678593975 91.12737209203578 C49.87368619417757 75.35142995039209, 63.30957276187498 57.511568855357176, 82.65813030062354 37.3521110678936 M33.35411747923413 94.51539432720791 C54.60326516027331 69.4377091466872, 72.99314803630855 49.99826968169636, 86.4107559656747 38.497730758358976 M37.174361969553345 92.40829496253058 C51.09327221731881 78.6435522146509, 62.74530078321784 59.624503888954, 86.67090595160923 37.20141458466679 M39.445906082508984 96.81278998656155 C52.12872791472193 75.34424370747723, 66.74069456600247 60.92244234523558, 88.27815658044477 33.224915865840615 M37.6298635102427 95.46457753997505 C45.17783980001159 84.65205463739153, 56.38492547990376 71.0834809802355, 90.12637704200529 35.829201527844255 M43.03325516006941 94.63490515876943 C59.972383898771106 70.5693179082492, 84.11381738661201 53.4124704016585, 89.37731469812093 35.23921614360694 M37.997577390830955 96.67407670697379 C53.22011793109858 79.34190189670235, 68.13971194520668 65.01874016996427, 92.98288653511598 35.48068261413683 M43.42412543558626 93.38385993884972 C65.39683105095504 74.59809014686122, 83.24818747369044 52.26511553284212, 92.0793058249241 32.46518710457322 M43.12311465776682 96.95907661556872 C58.964281120212604 76.79136771519536, 72.0630871565098 61.30922545314581, 95.9605313765795 35.37045099586233 M46.12361257010266 99.58391402071904 C57.89362632650626 77.37044259623468, 75.10592195751722 56.72694775778406, 92.8263594304573 33.055263276008475 M45.43573833890139 97.49710526838695 C57.18852205077911 81.4283473702432, 70.51733262696075 63.14323044517829, 97.60145492863342 35.34207656804569 M44.40006111602407 97.14465747783647 C67.49966230331562 75.0511269042578, 86.04300649920008 58.70793344568995, 102.38740497828597 33.48391377385637 M46.86426572974749 97.4542297638268 C62.85936042480209 77.60996046803729, 80.36194740107474 59.27824668026537, 99.30997383794606 37.052316014822225 M51.296417953600184 96.60718396749807 C64.94636945282366 77.39408356413274, 83.08522951979921 65.49204868047022, 102.78211351719436 32.27772215695938 M50.37204240053794 97.69247127215462 C63.25569286571724 80.99561610217982, 72.518813421673 66.50718409040405, 103.5281317855379 36.31856897581723 M55.00984423968608 92.36855387216747 C63.48061169045145 75.5494810733881, 78.70887591400923 64.28553848477027, 104.21476536344078 33.1657692722298 M51.84937533177511 96.09121010936724 C67.7476958316934 83.81576149165627, 76.48282385116237 67.611132314489, 104.57689648774083 34.71708198580717 M53.71805732195281 93.35342173240599 C73.70091461818248 73.91006025680402, 93.0617865873506 55.5772704491049, 104.81308631664174 37.97570242344412 M55.81609404132296 96.06694561280507 C75.9789403904384 74.36915627187989, 97.00164970551884 50.19113703659295, 106.30434497106235 35.0300359595946 M55.98077859757221 92.84257497556082 C68.08186655446544 87.43977996015118, 79.66938135155691 72.6873728797109, 110.20737692648783 35.38640428102128 M57.64081460322211 96.00966856333017 C70.4636940353258 83.71040568086093, 81.31854601734159 68.98932947665264, 111.51685808483101 34.79167033693287 M57.17285295119541 99.38917024863154 C73.32750620375332 77.91438809477815, 88.66835405830192 65.9700002375193, 114.9028942609239 34.56039123127928 M58.45997285078257 95.73150649305575 C78.6356688211104 80.2644719920632, 90.95242624259815 59.696230815485286, 114.30012806295234 37.77224177167214 M61.1339187559516 96.06746004753269 C76.92882254912055 82.99263323072641, 85.00579365046784 70.17757499577158, 117.65585208392267 37.17738460585164 M62.40436187158209 97.04806801810113 C81.31703907164062 76.56973165358347, 97.71099017184247 58.37881724060149, 113.94253294048164 36.12193398777208 M68.19194982899988 93.70410183667701 C84.45722393453258 75.19353701771439, 110.64438990874173 49.883059136064254, 117.08859908298943 34.38418899689693 M66.94244828025653 98.51133255486226 C79.61635089327251 80.43417326387117, 90.00599388572182 64.70465615783354, 118.31891841121241 36.47852211347447 M69.51776503438664 100.31646677312307 C82.77939458657585 73.93257632878218, 103.763266533978 59.06819449387494, 117.76111462012199 35.21622276029987 M68.70473331129556 96.85263042119207 C85.84284515936508 76.5111937762229, 101.95508196024109 60.918039144210624, 122.03304712531846 34.181859940635086 M68.16315212766821 95.55050214993614 C88.42385868807212 81.30261571309677, 98.40487380348988 62.848429265693625, 125.56414838852442 36.731544535223186 M69.60286366251273 96.37185805163739 C89.69049393408888 72.06040861567087, 110.95921364100312 47.81837640325486, 123.55951138748924 36.569533529141104 M77.50273722279029 93.24777782359644 C88.16853618101557 82.27964516873891, 98.80782131242073 62.131482475205146, 123.98296903833486 33.82743384988107 M72.89141867836133 96.04952233544782 C84.90122691006732 81.79539677895409, 95.2786803197813 71.80368962151503, 127.22714213508814 35.968739527037854 M74.77998072432082 97.68451640830483 C89.3173158808041 80.67220566355283, 96.7397168315906 68.84084382186704, 125.31573199437341 34.89724179174038 M75.80082171286769 95.02364712769659 C89.45581516559818 81.6458587380068, 105.1108794610294 64.80922736390316, 128.23276178261278 36.87637063826957 M77.17897008033592 99.3812588330359 C87.61995341036645 83.38506412312482, 103.6858792482448 65.76722263030469, 127.76946525078208 39.348407503747026 M78.80775201051352 96.92435478424927 C92.93162510366085 80.84431399116453, 102.34832919095258 67.85247795507586, 132.73046735313636 36.11281354993605 M81.66481252991653 99.92639035088622 C89.8123857481707 85.21916808862163, 100.93603683028316 73.1464526084339, 130.4023733083947 37.19600199065049 M83.35136116788505 97.35167801924463 C94.7877363782617 82.59631465766392, 106.17016093510728 69.8840935762247, 132.70882249847597 37.715850231558974 M87.5484386392815 97.82284540069695 C97.2344590795766 84.6109081233072, 109.94821859141882 72.87350577171036, 135.72416786518005 37.68727884205826 M85.51238840065801 97.04134280396569 C95.67655001330029 83.7477003696388, 112.04171745773073 67.03120660325314, 136.80790399529334 34.76509990353538 M90.44121480351903 98.71919904267196 C97.17268064278582 80.91624159539349, 111.09186046520226 65.08318286831276, 134.20234443395344 40.40645492186301 M85.04888441526924 94.69691541534576 C105.63252387395346 78.51186849945444, 119.64543825623677 57.931813984037966, 136.39364007471747 39.380788145920064 M90.68612482684938 95.4442552797891 C99.30219340249819 82.47955685883497, 109.64035453056744 74.42123359551235, 139.0310434030433 38.954250361182204 M90.16101230279256 96.98040631000462 C104.05453604468667 82.33273018113815, 114.70791252027736 68.70598962515955, 135.88828021097495 41.80049292945952 M88.70853521401214 98.43173277948445 C108.89199654422055 79.43599855002806, 129.40302148537427 59.56439826895207, 136.68098464847617 43.01373320229855 M92.76895197844657 94.96558892370317 C104.67811030844676 81.89360948330828, 117.7482711647987 68.83128753651853, 136.81654377677566 45.08014278368931 M97.03741948179415 93.70453681640264 C104.22828294848465 89.74471920012797, 110.61403609255873 80.32620511286818, 139.36908519717784 46.18345568977041 M93.54455260276553 96.22112702302836 C108.97003797936554 79.12708564430518, 122.98774690637416 64.73374218309957, 138.27148176047515 47.94748554639278 M98.18556990986397 98.06144184305563 C113.96016187792917 85.54935873732319, 118.73595530460977 72.53575866460302, 133.4089040486893 49.796358167366655 M97.5077903522907 96.23005023687367 C108.89193064244064 79.16988984484918, 122.47188060087313 64.98589449835346, 138.14899319743836 49.470360726749476 M102.95236479903268 96.07210112094532 C116.04213972429966 84.78000048658294, 128.01214168673175 66.8943680204276, 136.25760029179352 54.24788803920303 M99.74538392960824 96.14629180183795 C110.53146108608489 81.22056600210142, 123.36677625262591 69.44380649019077, 135.5759694082272 55.78225904334837 M102.58396571541778 99.32018980430611 C112.48862600751664 89.76188571615403, 113.87047740015731 79.09783534424861, 133.25293362464544 56.596184951654394 M103.16339213530424 95.67426912625164 C113.52409917570009 86.47703117450254, 123.2612409769566 75.98742396371068, 137.6026616558875 56.51078291683848 M107.11532711872347 93.12724481313005 C114.19244147371613 92.5872336238745, 115.28265870570857 83.51054231411966, 138.95938228931408 57.08714082467313 M104.2504125780978 96.09305914116966 C114.96454077535884 87.55319721676138, 125.96726884380949 73.30062777484966, 137.2215495013469 61.87362099892534 M111.9575425497565 98.31782272230808 C114.43520503331386 88.19032889305714, 132.38367540321718 74.27708358259773, 137.77073314775225 64.57962367013658 M106.29299156608614 97.4364559144942 C112.92088514686921 88.39434268365991, 121.30418583228375 81.07623602087733, 136.2873133746726 62.29374199681063 M107.25999874442597 97.33504725009394 C116.00671400350366 85.23267287430686, 124.08226046928138 84.16767010448825, 140.218663163259 63.479869962467895 M110.38538055534626 95.22320054626182 C117.96760900489285 87.31409458817863, 126.02005002495363 81.6126673348232, 137.64464831621797 65.86567985650062 M110.20679306128112 94.597838855417 C124.44297551517435 87.32710421246257, 128.00687621753937 73.13456294631732, 137.35960515625717 68.36989702756686 M114.84669824400488 97.75186399989471 C122.13476156294051 87.5575850929189, 126.58225765509629 80.7706370766244, 135.88484578576575 70.05413658747685 M117.68707132252091 100.18773965620785 C122.31119321626417 92.83520437862653, 126.88993031575026 81.22139722247218, 134.7791262470276 76.4670048399995 M116.82506240679675 95.09642584905382 C123.79807666558574 87.38190988343952, 127.32982238808174 82.41916521115805, 134.59051379280058 72.51003524280252 M116.73295919178419 97.00072397004098 C124.13327293737741 89.22980868000994, 130.7208360587695 83.96090950473427, 132.45139250542258 79.35502581908162 M119.56590906672307 96.65477324322512 C126.440095169851 89.34182886629686, 129.53671786528952 79.81150443543919, 137.00302087037397 77.74090643329006 M117.96731080978854 92.34706172041709 C124.44273375797377 94.05398995133615, 129.86241736004308 83.12151650753302, 133.47748532647952 77.98596620966256 M121.10330160290764 94.70294330429269 C125.82217461191135 93.03201370092326, 128.94781186708073 85.30761127114461, 138.15510450560305 77.02228429308825 M125.08904314898372 98.94551893747146 C131.34317849869728 94.69031712159436, 129.59027061689847 85.86738524626867, 136.45769358743465 82.68791468103221 M125.15834563545515 94.22321180138638 C129.6672634007275 90.21856412119887, 133.24779031693816 86.04016971676246, 135.62215595920716 81.92194712549662 M124.32466462016457 97.14043364348782 C128.48787513258466 92.20673363918385, 133.8389831044268 92.82083148584948, 134.80029672060584 86.70425106518535 M125.09148107442721 97.2238713514155 C129.363927059306 95.18719331120191, 131.7448695022149 91.23458602356719, 134.86371649771309 85.42738235981581 M128.430770117318 95.17854221379255 C133.41674896504273 95.69482033814167, 133.32723140137267 89.69951894752009, 135.03336189735083 89.28391732754673 M128.45659052259657 96.43798332327168 C130.70340117890046 95.37831304986607, 133.56032652071977 92.20812367693904, 135.63601958885923 87.80439791501108 M132.2402853108918 95.66758556182546 C132.46934170982365 94.96399798261474, 136.0636929136117 92.04846996824729, 137.22693905021674 90.57003646852424 M131.71242494094562 96.58312851951409 C132.53529473680567 95.46720578801754, 133.95916503724598 93.51132226388596, 137.284781967446 91.55143215921333 M134.52950697318573 96.69699090633964 C135.28819539474742 96.26963080670347, 135.6067258875213 94.93958188967258, 136.16645887857072 94.1497191764503 M134.32361339718005 96.86707743913685 C135.1142843175219 96.32731012627639, 135.5709079911925 95.2423131700627, 135.98069927002817 94.55105728257412" stroke="none" stroke-width="0.6" fill="none"></path><path d="M39.411072526244666 34.877116941760505 C58.019978449442476 39.63345573862945, 89.4334779587707 32.824408215467216, 135.90819410165264 33.48221900882119 M37.98450645848366 34.26247560040513 C66.74152464425235 36.52282799274416, 98.96039662245641 34.47232406155756, 135.76030092797615 36.31168773803932 M137.58838929487175 34.68517614014623 C136.54021652453176 54.51093612558427, 139.0012128256942 64.2142300276201, 134.50490072348015 98.7797619148494 M135.0962159002512 35.74205891430481 C134.90497837140478 59.178085215538864, 134.5141032176022 79.50104618210635, 135.3033978685195 97.4803779185853 M138.42247496063567 95.37676970354552 C100.19025445988518 95.0611777590152, 68.71131530197232 96.82522006033005, 35.59396920043146 93.6077323757288 M137.2386929172846 94.74161080757014 C110.36142216014679 96.4056620197001, 83.35324519336883 96.05011906754251, 34.213330197856166 95.01469695916025 M35.45638191502715 94.7102920040825 C39.67025879020654 84.94201966309906, 35.78964141205292 69.39644718974863, 36.771747917549504 39.16979483189706 M36.740526650987455 96.07920454165631 C34.649628804946595 82.1343994989242, 35.26296649619353 69.89619185835684, 34.8926312220564 35.522048672325106" stroke="black" stroke-width="1" fill="none"></path></g></g><text x="36px" y="36px" visibility="inherit" fontSize="9pt" font-size="9pt" dy="-14px"><tspan class="text label" dy="-14px" x="36px">a</tspan></text></g></g></g></svg>
