<svg
 xmlns="http://www.w3.org/2000/svg"
 viewBox="0 0 640 320"
 width="640" height="320"
>
<text
font-size="12pt"
>
<tspan y="1.3em" x="0.5em">---</tspan>
<tspan y="2.6em" x="0.5em">style: |</tspan>
<tspan y="3.9000000000000004em" x="1.5em">#root { visibility: hidden; }</tspan>
<tspan y="5.2em" x="1.5em">.node{margin: 0px; padding: 10px; width: 50px; height: 45px}</tspan>
<tspan y="6.5em" x="0.5em">---</tspan>
<tspan y="7.800000000000001em" x="0.5em"></tspan>
<tspan y="9.1em" x="0.5em">group array {</tspan>
<tspan y="10.4em" x="1.5em">c1;</tspan>
<tspan y="11.700000000000001em" x="1.5em">c2;</tspan>
<tspan y="13em" x="1.5em">c3;</tspan>
<tspan y="14.3em" x="1.5em">c4;</tspan>
<tspan y="15.600000000000001em" x="1.5em">c5;</tspan>
<tspan y="16.900000000000002em" x="1.5em">c6;</tspan>
<tspan y="18.2em" x="1.5em">c7;</tspan>
<tspan y="19.5em" x="1.5em">c8;</tspan>
<tspan y="20.8em" x="1.5em">c9;</tspan>
<tspan y="22.1em" x="1.5em">c10[label='...', stroke='none'];</tspan>
<tspan y="23.400000000000002em" x="1.5em">c11;</tspan>
<tspan y="24.7em" x="1.5em">c12;</tspan>
<tspan y="26em" x="1.5em">c13;</tspan>
<tspan y="27.3em" x="1.5em">c14;</tspan>
<tspan y="28.6em" x="1.5em">c15;</tspan>
<tspan y="29.900000000000002em" x="1.5em">c16;</tspan>
<tspan y="31.200000000000003em" x="0.5em">}</tspan>
<tspan y="32.5em" x="0.5em">---</tspan>
<tspan y="33.800000000000004em" x="0.5em">c1;</tspan>
<tspan y="35.1em" x="0.5em">c2;</tspan>
<tspan y="36.4em" x="0.5em">c3;</tspan>
<tspan y="37.7em" x="0.5em">c4;</tspan>
<tspan y="39em" x="0.5em">c5;</tspan>
<tspan y="40.300000000000004em" x="0.5em">c6;</tspan>
<tspan y="41.6em" x="0.5em">c7;</tspan>
<tspan y="42.9em" x="0.5em">c8;</tspan>
<tspan y="44.2em" x="0.5em"></tspan>
<tspan y="45.5em" x="0.5em">---</tspan>
<tspan y="46.800000000000004em" x="0.5em">c1[t='a'];</tspan>
<tspan y="48.1em" x="0.5em">---</tspan>
<tspan y="49.4em" x="0.5em">c2[t='b'];</tspan>
<tspan y="50.7em" x="0.5em">---</tspan>
<tspan y="52em" x="0.5em">c3[t='c'];</tspan>
<tspan y="53.300000000000004em" x="0.5em">---</tspan>
<tspan y="54.6em" x="0.5em">c4[t='d'];</tspan>
<tspan y="55.9em" x="0.5em">---</tspan>
<tspan y="57.2em" x="0.5em">c5[t='e'];</tspan>
<tspan y="58.5em" x="0.5em">---</tspan>
<tspan y="59.800000000000004em" x="0.5em">c6[t='f'];</tspan>
<tspan y="61.1em" x="0.5em">---</tspan>
<tspan y="62.400000000000006em" x="0.5em">c7[t='g'];</tspan>
<tspan y="63.7em" x="0.5em">---</tspan>
<tspan y="65em" x="0.5em">c8[t='h'];</tspan>
<tspan y="66.3em" x="0.5em">---</tspan>
<tspan y="67.60000000000001em" x="0.5em">c9[t='i'];</tspan>
<tspan y="68.9em" x="0.5em">c10;</tspan>
<tspan y="70.2em" x="0.5em">c11;</tspan>
<tspan y="71.5em" x="0.5em">c12;</tspan>
<tspan y="72.8em" x="0.5em">c13;</tspan>
<tspan y="74.10000000000001em" x="0.5em">c14;</tspan>
<tspan y="75.4em" x="0.5em">c15;</tspan>
<tspan y="76.7em" x="0.5em">c16;</tspan>
<tspan y="78em" x="0.5em">---</tspan>
<tspan y="79.3em" x="0.5em">c11[t='j'];</tspan>
<tspan y="80.60000000000001em" x="0.5em">---</tspan>
<tspan y="81.9em" x="0.5em">c12[t='k'];</tspan>
<tspan y="83.2em" x="0.5em">---</tspan>
<tspan y="84.5em" x="0.5em">c13[t='l'];</tspan>
<tspan y="85.8em" x="0.5em">---</tspan>
<tspan y="87.10000000000001em" x="0.5em">c14[t='m'];</tspan>
<tspan y="88.4em" x="0.5em">---</tspan>
<tspan y="89.7em" x="0.5em">c15[t='n'];</tspan>
<tspan y="91em" x="0.5em">---</tspan>
<tspan y="92.3em" x="0.5em">c16[t='o'];</tspan>
</text>
</svg>
