<svg
 xmlns="http://www.w3.org/2000/svg"
 viewBox="0 0 640 320"
 width="640" height="320"
>
<text
font-size="12pt"
>
<tspan y="1.3em" x="0.5em">style {</tspan>
<tspan y="2.6em" x="1.5em">#root { visibility: hidden}</tspan>
<tspan y="3.9000000000000004em" x="1.5em">.node{fill: #60EFDB; stroke: #A3B5FD; }</tspan>
<tspan y="5.2em" x="1.5em">.node .text { stroke: #6F89A2; fill: #6F89A2 }</tspan>
<tspan y="6.5em" x="0.5em"></tspan>
<tspan y="7.800000000000001em" x="1.5em">.edge{stroke='#C3C5F8'}</tspan>
<tspan y="9.1em" x="1.5em">.transient {dy: 20px}</tspan>
<tspan y="10.4em" x="0.5em">}</tspan>
<tspan y="11.700000000000001em" x="0.5em"></tspan>
<tspan y="13em" x="0.5em">group layer0 {</tspan>
<tspan y="14.3em" x="1.5em">c1;</tspan>
<tspan y="15.600000000000001em" x="0.5em">};</tspan>
<tspan y="16.900000000000002em" x="0.5em"></tspan>
<tspan y="18.2em" x="0.5em">group layer1 {</tspan>
<tspan y="19.5em" x="1.5em">b1;</tspan>
<tspan y="20.8em" x="1.5em">b2;</tspan>
<tspan y="22.1em" x="0.5em">};</tspan>
<tspan y="23.400000000000002em" x="0.5em"></tspan>
<tspan y="24.7em" x="0.5em">group layer2 {</tspan>
<tspan y="26em" x="1.5em">a1;</tspan>
<tspan y="27.3em" x="1.5em">a2;</tspan>
<tspan y="28.6em" x="1.5em">a3;</tspan>
<tspan y="29.900000000000002em" x="1.5em">a4;</tspan>
<tspan y="31.200000000000003em" x="0.5em">};</tspan>
<tspan y="32.5em" x="0.5em"></tspan>
<tspan y="33.800000000000004em" x="0.5em">---</tspan>
<tspan y="35.1em" x="0.5em">a1[t='v=[10]', label='root'];</tspan>
<tspan y="36.4em" x="0.5em"></tspan>
<tspan y="37.7em" x="0.5em">---</tspan>
<tspan y="39em" x="0.5em">a1[t='v=[9,10]', label='root'];</tspan>
<tspan y="40.300000000000004em" x="0.5em"></tspan>
<tspan y="41.6em" x="0.5em">---</tspan>
<tspan y="42.9em" x="0.5em">a4[t='v=[10]'];</tspan>
<tspan y="44.2em" x="0.5em"></tspan>
<tspan y="45.5em" x="0.5em">---</tspan>
<tspan y="46.800000000000004em" x="0.5em">a1[t='v=[9]', label='root'];</tspan>
<tspan y="48.1em" x="0.5em">a1 -> a4[class=transient];</tspan>
<tspan y="49.4em" x="0.5em"></tspan>
<tspan y="50.7em" x="0.5em">---</tspan>
<tspan y="52em" x="0.5em">b1 -> a1;</tspan>
<tspan y="53.300000000000004em" x="0.5em">b1 -> a4;</tspan>
<tspan y="54.6em" x="0.5em">b1[t='thresholds=[10]', label='root'];</tspan>
<tspan y="55.9em" x="0.5em"></tspan>
<tspan y="57.2em" x="0.5em">---</tspan>
<tspan y="58.5em" x="0.5em">a1[t='v=[9]', label=''];</tspan>
<tspan y="59.800000000000004em" x="0.5em"></tspan>
<tspan y="61.1em" x="0.5em">---</tspan>
<tspan y="62.400000000000006em" x="0.5em">a1[t='v=[8,9]'];</tspan>
<tspan y="63.7em" x="0.5em"></tspan>
<tspan y="65em" x="0.5em">---</tspan>
<tspan y="66.3em" x="0.5em">a3[t='v=[9]'];</tspan>
<tspan y="67.60000000000001em" x="0.5em">a3 -> a4;</tspan>
<tspan y="68.9em" x="0.5em"></tspan>
<tspan y="70.2em" x="0.5em">---</tspan>
<tspan y="71.5em" x="0.5em">a1[t='v=[8]'];</tspan>
<tspan y="72.8em" x="0.5em">a1 -> a3[class=transient];</tspan>
<tspan y="74.10000000000001em" x="0.5em">hide a1 -> a4;</tspan>
<tspan y="75.4em" x="0.5em"></tspan>
<tspan y="76.7em" x="0.5em">---</tspan>
<tspan y="78em" x="0.5em">b1 -> a3;</tspan>
<tspan y="79.3em" x="0.5em">b1[t='thresholds=[9,10]', label='root'];</tspan>
<tspan y="80.60000000000001em" x="0.5em"></tspan>
<tspan y="81.9em" x="0.5em">---</tspan>
<tspan y="83.2em" x="0.5em">b2[t='threshold=[9,10]'];</tspan>
<tspan y="84.5em" x="0.5em">b2 -> a3;</tspan>
<tspan y="85.8em" x="0.5em">b2 -> a4;</tspan>
<tspan y="87.10000000000001em" x="0.5em"></tspan>
<tspan y="88.4em" x="0.5em">---</tspan>
<tspan y="89.7em" x="0.5em">b1 -> b2;</tspan>
<tspan y="91em" x="0.5em">b1[t='thresholds=[]\nsibling=[9]', label='root'];</tspan>
<tspan y="92.3em" x="0.5em">hide b1 -> a3;</tspan>
<tspan y="93.60000000000001em" x="0.5em">hide b1 -> a4;</tspan>
<tspan y="94.9em" x="0.5em"></tspan>
<tspan y="96.2em" x="0.5em">---</tspan>
<tspan y="97.5em" x="0.5em">c1[t='threshold=[9]', label='root'];</tspan>
<tspan y="98.8em" x="0.5em">c1 -> b1;</tspan>
<tspan y="100.10000000000001em" x="0.5em">c1 -> b2;</tspan>
<tspan y="101.4em" x="0.5em"></tspan>
<tspan y="102.7em" x="0.5em">---</tspan>
<tspan y="104em" x="0.5em">b1[t='thresholds=[]\nsibling=[9]'];</tspan>
<tspan y="105.3em" x="0.5em"></tspan>
<tspan y="106.60000000000001em" x="0.5em">---</tspan>
<tspan y="107.9em" x="0.5em">a1[t='v=[7,8]'];</tspan>
<tspan y="109.2em" x="0.5em"></tspan>
<tspan y="110.5em" x="0.5em">---</tspan>
<tspan y="111.8em" x="0.5em">a2[t='v=[8]'];</tspan>
<tspan y="113.10000000000001em" x="0.5em">a2 -> a3;</tspan>
<tspan y="114.4em" x="0.5em"></tspan>
<tspan y="115.7em" x="0.5em">---</tspan>
<tspan y="117em" x="0.5em">a1[t='v=[7]'];</tspan>
<tspan y="118.3em" x="0.5em">a1 -> a2;</tspan>
<tspan y="119.60000000000001em" x="0.5em">hide a1 -> a3;</tspan>
<tspan y="120.9em" x="0.5em"></tspan>
<tspan y="122.2em" x="0.5em">---</tspan>
<tspan y="123.5em" x="0.5em">b1[t='thresholds=[8]\nsibling=[9]'];</tspan>
<tspan y="124.80000000000001em" x="0.5em">b1 -> a2;</tspan>
</text>
</svg>
