<svg
 xmlns="http://www.w3.org/2000/svg"
 viewBox="0 0 640 320"
 width="640" height="320"
>
<text
font-size="12pt"
>
<tspan y="1.3em" x="0.5em">---</tspan>
<tspan y="2.6em" x="0.5em">style: |</tspan>
<tspan y="3.9000000000000004em" x="1.5em">.group{margin: 0; padding: 0; label: '';}</tspan>
<tspan y="5.2em" x="1.5em">.node{margin: 0; width: 45; height: 45}</tspan>
<tspan y="6.5em" x="1.5em">.group .node .label {dy: 14px; dx: 8px}</tspan>
<tspan y="7.800000000000001em" x="1.5em">#primes {width: auto; margin: 30px 0px;}</tspan>
<tspan y="9.1em" x="0.5em">---</tspan>
<tspan y="10.4em" x="0.5em"></tspan>
<tspan y="11.700000000000001em" x="0.5em">primes[label='prime list:', t='[]'];</tspan>
<tspan y="13em" x="0.5em"></tspan>
<tspan y="14.3em" x="0.5em">group g1to10 {</tspan>
<tspan y="15.600000000000001em" x="1.5em">1[visibility=hidden]2;3;4;5;6;7;8;9;10;</tspan>
<tspan y="16.900000000000002em" x="0.5em">};</tspan>
<tspan y="18.2em" x="0.5em">group g11to20 {</tspan>
<tspan y="19.5em" x="1.5em">11;12;13;14;15;16;17;18;19;20;</tspan>
<tspan y="20.8em" x="0.5em">};</tspan>
<tspan y="22.1em" x="0.5em">group g21to30 {</tspan>
<tspan y="23.400000000000002em" x="1.5em">21;22;23;24;25;26;27;28;29;30;</tspan>
<tspan y="24.7em" x="0.5em">};</tspan>
<tspan y="26em" x="0.5em">group g31to40 {</tspan>
<tspan y="27.3em" x="1.5em">31;32;33;34;35;36;37;38;39;40;</tspan>
<tspan y="28.6em" x="0.5em">};</tspan>
<tspan y="29.900000000000002em" x="0.5em">group g41to50 {</tspan>
<tspan y="31.200000000000003em" x="1.5em">41;42;43;44;45;46;47;48;49;50;</tspan>
<tspan y="32.5em" x="0.5em">};</tspan>
<tspan y="33.800000000000004em" x="0.5em">group g51to60 {</tspan>
<tspan y="35.1em" x="1.5em">51;52;53;54;55;56;57;58;59;60;</tspan>
<tspan y="36.4em" x="0.5em">};</tspan>
<tspan y="37.7em" x="0.5em">group g61to70 {</tspan>
<tspan y="39em" x="1.5em">61;62;63;64;65;66;67;68;69;70;</tspan>
<tspan y="40.300000000000004em" x="0.5em">};</tspan>
<tspan y="41.6em" x="0.5em">---</tspan>
<tspan y="42.9em" x="0.5em">primes[t="[2]"];</tspan>
<tspan y="44.2em" x="0.5em">2[fill="#7f7fff"];</tspan>
<tspan y="45.5em" x="0.5em">---</tspan>
<tspan y="46.800000000000004em" x="0.5em">4[fill="#7f7fff"];</tspan>
<tspan y="48.1em" x="0.5em">6[fill="#7f7fff"];</tspan>
<tspan y="49.4em" x="0.5em">8[fill="#7f7fff"];</tspan>
<tspan y="50.7em" x="0.5em">10[fill="#7f7fff"];</tspan>
<tspan y="52em" x="0.5em">12[fill="#7f7fff"];</tspan>
<tspan y="53.300000000000004em" x="0.5em">14[fill="#7f7fff"];</tspan>
<tspan y="54.6em" x="0.5em">16[fill="#7f7fff"];</tspan>
<tspan y="55.9em" x="0.5em">18[fill="#7f7fff"];</tspan>
<tspan y="57.2em" x="0.5em">20[fill="#7f7fff"];</tspan>
<tspan y="58.5em" x="0.5em">22[fill="#7f7fff"];</tspan>
<tspan y="59.800000000000004em" x="0.5em">24[fill="#7f7fff"];</tspan>
<tspan y="61.1em" x="0.5em">26[fill="#7f7fff"];</tspan>
<tspan y="62.400000000000006em" x="0.5em">28[fill="#7f7fff"];</tspan>
<tspan y="63.7em" x="0.5em">30[fill="#7f7fff"];</tspan>
<tspan y="65em" x="0.5em">32[fill="#7f7fff"];</tspan>
<tspan y="66.3em" x="0.5em">34[fill="#7f7fff"];</tspan>
<tspan y="67.60000000000001em" x="0.5em">36[fill="#7f7fff"];</tspan>
<tspan y="68.9em" x="0.5em">38[fill="#7f7fff"];</tspan>
<tspan y="70.2em" x="0.5em">40[fill="#7f7fff"];</tspan>
<tspan y="71.5em" x="0.5em">42[fill="#7f7fff"];</tspan>
<tspan y="72.8em" x="0.5em">44[fill="#7f7fff"];</tspan>
<tspan y="74.10000000000001em" x="0.5em">46[fill="#7f7fff"];</tspan>
<tspan y="75.4em" x="0.5em">48[fill="#7f7fff"];</tspan>
<tspan y="76.7em" x="0.5em">50[fill="#7f7fff"];</tspan>
<tspan y="78em" x="0.5em">52[fill="#7f7fff"];</tspan>
<tspan y="79.3em" x="0.5em">54[fill="#7f7fff"];</tspan>
<tspan y="80.60000000000001em" x="0.5em">56[fill="#7f7fff"];</tspan>
<tspan y="81.9em" x="0.5em">58[fill="#7f7fff"];</tspan>
<tspan y="83.2em" x="0.5em">60[fill="#7f7fff"];</tspan>
<tspan y="84.5em" x="0.5em">62[fill="#7f7fff"];</tspan>
<tspan y="85.8em" x="0.5em">64[fill="#7f7fff"];</tspan>
<tspan y="87.10000000000001em" x="0.5em">66[fill="#7f7fff"];</tspan>
<tspan y="88.4em" x="0.5em">68[fill="#7f7fff"];</tspan>
<tspan y="89.7em" x="0.5em">70[fill="#7f7fff"];</tspan>
<tspan y="91em" x="0.5em">---</tspan>
<tspan y="92.3em" x="0.5em">primes[t="[2, 3]"];</tspan>
<tspan y="93.60000000000001em" x="0.5em">3[fill="#84c1ff"];</tspan>
<tspan y="94.9em" x="0.5em">---</tspan>
<tspan y="96.2em" x="0.5em">6[fill="#84c1ff"];</tspan>
<tspan y="97.5em" x="0.5em">9[fill="#84c1ff"];</tspan>
<tspan y="98.8em" x="0.5em">12[fill="#84c1ff"];</tspan>
<tspan y="100.10000000000001em" x="0.5em">15[fill="#84c1ff"];</tspan>
<tspan y="101.4em" x="0.5em">18[fill="#84c1ff"];</tspan>
<tspan y="102.7em" x="0.5em">21[fill="#84c1ff"];</tspan>
<tspan y="104em" x="0.5em">24[fill="#84c1ff"];</tspan>
<tspan y="105.3em" x="0.5em">27[fill="#84c1ff"];</tspan>
<tspan y="106.60000000000001em" x="0.5em">30[fill="#84c1ff"];</tspan>
<tspan y="107.9em" x="0.5em">33[fill="#84c1ff"];</tspan>
<tspan y="109.2em" x="0.5em">36[fill="#84c1ff"];</tspan>
<tspan y="110.5em" x="0.5em">39[fill="#84c1ff"];</tspan>
<tspan y="111.8em" x="0.5em">42[fill="#84c1ff"];</tspan>
<tspan y="113.10000000000001em" x="0.5em">45[fill="#84c1ff"];</tspan>
<tspan y="114.4em" x="0.5em">48[fill="#84c1ff"];</tspan>
<tspan y="115.7em" x="0.5em">51[fill="#84c1ff"];</tspan>
<tspan y="117em" x="0.5em">54[fill="#84c1ff"];</tspan>
<tspan y="118.3em" x="0.5em">57[fill="#84c1ff"];</tspan>
<tspan y="119.60000000000001em" x="0.5em">60[fill="#84c1ff"];</tspan>
<tspan y="120.9em" x="0.5em">63[fill="#84c1ff"];</tspan>
<tspan y="122.2em" x="0.5em">66[fill="#84c1ff"];</tspan>
<tspan y="123.5em" x="0.5em">69[fill="#84c1ff"];</tspan>
<tspan y="124.80000000000001em" x="0.5em">---</tspan>
<tspan y="126.10000000000001em" x="0.5em">primes[t="[2, 3, 5]"];</tspan>
<tspan y="127.4em" x="0.5em">5[fill="#89ffff"];</tspan>
<tspan y="128.70000000000002em" x="0.5em">---</tspan>
<tspan y="130em" x="0.5em">10[fill="#89ffff"];</tspan>
<tspan y="131.3em" x="0.5em">15[fill="#89ffff"];</tspan>
<tspan y="132.6em" x="0.5em">20[fill="#89ffff"];</tspan>
<tspan y="133.9em" x="0.5em">25[fill="#89ffff"];</tspan>
<tspan y="135.20000000000002em" x="0.5em">30[fill="#89ffff"];</tspan>
<tspan y="136.5em" x="0.5em">35[fill="#89ffff"];</tspan>
<tspan y="137.8em" x="0.5em">40[fill="#89ffff"];</tspan>
<tspan y="139.1em" x="0.5em">45[fill="#89ffff"];</tspan>
<tspan y="140.4em" x="0.5em">50[fill="#89ffff"];</tspan>
<tspan y="141.70000000000002em" x="0.5em">55[fill="#89ffff"];</tspan>
<tspan y="143em" x="0.5em">60[fill="#89ffff"];</tspan>
<tspan y="144.3em" x="0.5em">65[fill="#89ffff"];</tspan>
<tspan y="145.6em" x="0.5em">70[fill="#89ffff"];</tspan>
<tspan y="146.9em" x="0.5em">---</tspan>
<tspan y="148.20000000000002em" x="0.5em">primes[t="[2, 3, 5, 7]"];</tspan>
<tspan y="149.5em" x="0.5em">7[fill="#8effc6"];</tspan>
<tspan y="150.8em" x="0.5em">---</tspan>
<tspan y="152.1em" x="0.5em">14[fill="#8effc6"];</tspan>
<tspan y="153.4em" x="0.5em">21[fill="#8effc6"];</tspan>
<tspan y="154.70000000000002em" x="0.5em">28[fill="#8effc6"];</tspan>
<tspan y="156em" x="0.5em">35[fill="#8effc6"];</tspan>
<tspan y="157.3em" x="0.5em">42[fill="#8effc6"];</tspan>
<tspan y="158.6em" x="0.5em">49[fill="#8effc6"];</tspan>
<tspan y="159.9em" x="0.5em">56[fill="#8effc6"];</tspan>
<tspan y="161.20000000000002em" x="0.5em">63[fill="#8effc6"];</tspan>
<tspan y="162.5em" x="0.5em">70[fill="#8effc6"];</tspan>
<tspan y="163.8em" x="0.5em">---</tspan>
<tspan y="165.1em" x="0.5em">primes[t="[2, 3, 5, 7, 2, 3, 5, 7, 11, 13, 17, 19, 23, 29, 31, 37, 41, 43, 47, 53, 59, 61, 67]"];</tspan>
</text>
</svg>
