<svg xmlns="http://www.w3.org/2000/svg" id="svgRoot" class="svg-root" width="916px" height="161px" viewBox="0 0 916 161"><style></style><g><g visibility="hidden"><rect stroke="none" fill="none" visibility="hidden" x="0px" y="0px" width="916px" height="161px"></rect><g visibility="inherit"><rect fill="none" stroke="none" x="40px" y="40px" width="836px" height="81px"></rect><text x="40px" y="40px" visibility="inherit" font-size="9pt" dy="-14px"><tspan class="text label" dy="-14px" x="40px">array</tspan></text><g visibility="visible"><rect stroke="black" fill="none" width="50px" height="45px" visibility="visible" x="58px" y="58px"></rect><text x="68px" y="68px" visibility="inherit" font-size="9pt" dy="5px"><tspan class="text" dy="5px" x="68px">a</tspan></text><text x="58px" y="58px" visibility="inherit" font-size="9pt" dy="-14px"><tspan class="text label" dy="-14px" x="58px">c1</tspan></text></g><g visibility="visible"><rect stroke="black" fill="none" width="50px" height="45px" visibility="visible" x="108px" y="58px"></rect><text x="118px" y="68px" visibility="inherit" font-size="9pt" dy="5px"><tspan class="text" dy="5px" x="118px">b</tspan></text><text x="108px" y="58px" visibility="inherit" font-size="9pt" dy="-14px"><tspan class="text label" dy="-14px" x="108px">c2</tspan></text></g><g visibility="visible"><rect stroke="black" fill="none" width="50px" height="45px" visibility="visible" x="158px" y="58px"></rect><text x="158px" y="58px" visibility="inherit" font-size="9pt" dy="-14px"><tspan class="text label" dy="-14px" x="158px">c3</tspan></text></g><g visibility="visible"><rect stroke="black" fill="none" width="50px" height="45px" visibility="visible" x="208px" y="58px"></rect><text x="208px" y="58px" visibility="inherit" font-size="9pt" dy="-14px"><tspan class="text label" dy="-14px" x="208px">c4</tspan></text></g><g visibility="visible"><rect stroke="black" fill="none" width="50px" height="45px" visibility="visible" x="258px" y="58px"></rect><text x="258px" y="58px" visibility="inherit" font-size="9pt" dy="-14px"><tspan class="text label" dy="-14px" x="258px">c5</tspan></text></g><g visibility="visible"><rect stroke="black" fill="none" width="50px" height="45px" visibility="visible" x="308px" y="58px"></rect><text x="308px" y="58px" visibility="inherit" font-size="9pt" dy="-14px"><tspan class="text label" dy="-14px" x="308px">c6</tspan></text></g><g visibility="visible"><rect stroke="black" fill="none" width="50px" height="45px" visibility="visible" x="358px" y="58px"></rect><text x="358px" y="58px" visibility="inherit" font-size="9pt" dy="-14px"><tspan class="text label" dy="-14px" x="358px">c7</tspan></text></g><g visibility="visible"><rect stroke="black" fill="none" width="50px" height="45px" visibility="visible" x="408px" y="58px"></rect><text x="408px" y="58px" visibility="inherit" font-size="9pt" dy="-14px"><tspan class="text label" dy="-14px" x="408px">c8</tspan></text></g><g visibility="inherit"><rect stroke="black" fill="none" width="50px" height="45px" x="458px" y="58px"></rect><text x="458px" y="58px" visibility="inherit" font-size="9pt" dy="-14px"><tspan class="text label" dy="-14px" x="458px">c9</tspan></text></g><g visibility="inherit"><rect stroke="none" fill="none" width="50px" height="45px" x="508px" y="58px"></rect><text x="508px" y="58px" visibility="inherit" font-size="9pt" dy="-14px"><tspan class="text label" dy="-14px" x="508px">...</tspan></text></g><g visibility="inherit"><rect stroke="black" fill="none" width="50px" height="45px" x="558px" y="58px"></rect><text x="558px" y="58px" visibility="inherit" font-size="9pt" dy="-14px"><tspan class="text label" dy="-14px" x="558px">c11</tspan></text></g><g visibility="inherit"><rect stroke="black" fill="none" width="50px" height="45px" x="608px" y="58px"></rect><text x="608px" y="58px" visibility="inherit" font-size="9pt" dy="-14px"><tspan class="text label" dy="-14px" x="608px">c12</tspan></text></g><g visibility="inherit"><rect stroke="black" fill="none" width="50px" height="45px" x="658px" y="58px"></rect><text x="658px" y="58px" visibility="inherit" font-size="9pt" dy="-14px"><tspan class="text label" dy="-14px" x="658px">c13</tspan></text></g><g visibility="inherit"><rect stroke="black" fill="none" width="50px" height="45px" x="708px" y="58px"></rect><text x="708px" y="58px" visibility="inherit" font-size="9pt" dy="-14px"><tspan class="text label" dy="-14px" x="708px">c14</tspan></text></g><g visibility="inherit"><rect stroke="black" fill="none" width="50px" height="45px" x="758px" y="58px"></rect><text x="758px" y="58px" visibility="inherit" font-size="9pt" dy="-14px"><tspan class="text label" dy="-14px" x="758px">c15</tspan></text></g><g visibility="inherit"><rect stroke="black" fill="none" width="50px" height="45px" x="808px" y="58px"></rect><text x="808px" y="58px" visibility="inherit" font-size="9pt" dy="-14px"><tspan class="text label" dy="-14px" x="808px">c16</tspan></text></g></g></g></g></svg>
