<svg xmlns="http://www.w3.org/2000/svg" id="svgRoot" class="svg-root" width="676px" height="584px" viewBox="0 0 676 584"><style></style><g><g visibility="hidden"><rect stroke="none" fill="none" visibility="hidden" x="0px" y="0px" width="676px" height="584px"></rect><g visibility="inherit"><rect fill="none" stroke="none" x="40px" y="40px" width="596px" height="136px"></rect><text x="40px" y="40px" visibility="inherit" font-size="9pt" dy="-14px"><tspan class="text label" dy="-14px" x="40px">layer0</tspan></text><g visibility="inherit"><rect stroke="black" width="100px" height="60px" fill="none" x="288px" y="78px"></rect><text x="288px" y="78px" visibility="inherit" font-size="9pt" dy="-14px"><tspan class="text label" dy="-14px" x="288px">c1</tspan></text></g></g><g visibility="inherit"><rect fill="none" stroke="none" x="40px" y="224px" width="596px" height="136px"></rect><text x="40px" y="224px" visibility="inherit" font-size="9pt" dy="-14px"><tspan class="text label" dy="-14px" x="40px">layer1</tspan></text><g visibility="visible"><rect stroke="black" width="100px" height="60px" fill="none" visibility="visible" x="148px" y="262px"></rect><text x="155px" y="280px" visibility="inherit" font-size="9pt" dy="5px"><tspan class="text" dy="5px" x="155px">thresholds=[3]</tspan></text><text x="148px" y="262px" visibility="inherit" font-size="9pt" dy="-14px"><tspan class="text label" dy="-14px" x="148px">root</tspan></text></g><g visibility="inherit"><rect stroke="black" width="100px" height="60px" fill="none" x="428px" y="262px"></rect><text x="428px" y="262px" visibility="inherit" font-size="9pt" dy="-14px"><tspan class="text label" dy="-14px" x="428px">b2</tspan></text></g></g><g visibility="inherit"><rect fill="none" stroke="none" x="40px" y="408px" width="596px" height="136px"></rect><text x="40px" y="408px" visibility="inherit" font-size="9pt" dy="-14px"><tspan class="text label" dy="-14px" x="40px">layer2</tspan></text><g visibility="visible"><rect stroke="black" width="100px" height="60px" fill="none" visibility="visible" x="78px" y="446px"></rect><text x="85px" y="464px" visibility="inherit" font-size="9pt" dy="5px"><tspan class="text" dy="5px" x="85px">v=[1,2]</tspan></text><text x="78px" y="446px" visibility="inherit" font-size="9pt" dy="-14px"><tspan class="text label" dy="-14px" x="78px">a1</tspan></text></g><g visibility="visible"><rect stroke="black" width="100px" height="60px" fill="none" visibility="visible" x="218px" y="446px"></rect><text x="225px" y="464px" visibility="inherit" font-size="9pt" dy="5px"><tspan class="text" dy="5px" x="225px">v=[2]</tspan></text><text x="218px" y="446px" visibility="inherit" font-size="9pt" dy="-14px"><tspan class="text label" dy="-14px" x="218px">a2</tspan></text></g><g visibility="visible"><rect stroke="black" width="100px" height="60px" fill="none" visibility="visible" x="358px" y="446px"></rect><text x="365px" y="464px" visibility="inherit" font-size="9pt" dy="5px"><tspan class="text" dy="5px" x="365px">v=[3]</tspan></text><text x="358px" y="446px" visibility="inherit" font-size="9pt" dy="-14px"><tspan class="text label" dy="-14px" x="358px">a3</tspan></text></g><g visibility="inherit"><rect stroke="black" width="100px" height="60px" fill="none" x="498px" y="446px"></rect><text x="498px" y="446px" visibility="inherit" font-size="9pt" dy="-14px"><tspan class="text label" dy="-14px" x="498px">a4</tspan></text></g></g><g visibility="visible"><path d="M 178 496 L 358 496 M 343.74389561298614 488.73615200416725 L 358 496 M 343.74389561298614 503.26384799583275 L 358 496" stroke="black" dy="20px" visibility="visible" x="178px" y="496px" width="180px" height="0px"></path></g><g visibility="visible"><path d="M 186.58695652173913 322 L 139.41304347826087 446 M 151.27127203523082 435.25837928938734 L 139.41304347826087 446 M 137.69298164034572 430.0927253348115 L 139.41304347826087 446" stroke="black" visibility="visible" x="186.58695652173913px" y="322px" width="-47.17391304347825px" height="124px"></path></g><g visibility="visible"><path d="M 232.23913043478262 322 L 373.7608695652174 446 M 367.82534601493137 431.14168380387605 L 373.7608695652174 446 M 358.25142604726375 442.06844028871404 L 373.7608695652174 446" stroke="black" visibility="visible" x="232.23913043478262px" y="322px" width="141.52173913043475px" height="124px"></path></g><g visibility="visible"><path d="M 318 476 L 358 476 M 343.74389561298614 468.73615200416725 L 358 476 M 343.74389561298614 483.26384799583275 L 358 476" stroke="black" visibility="visible" x="318px" y="476px" width="40px" height="0px"></path></g></g></g></svg>
