<svg xmlns="http://www.w3.org/2000/svg" id="svgRoot" class="svg-root" width="676px" height="584px" viewBox="0 0 676 584"><style></style><g><g visibility="hidden"><rect stroke="none" fill="none" visibility="hidden" x="0px" y="0px" width="676px" height="584px"></rect><g visibility="inherit"><rect fill="none" stroke="none" x="40px" y="40px" width="596px" height="136px"></rect><text x="40px" y="40px" visibility="inherit" font-size="9pt" dy="-14px"><tspan class="text label" dy="-14px" x="40px">layer0</tspan></text><g visibility="inherit"><rect stroke="#A3B5FD" width="100px" height="60px" fill="#60EFDB" x="288px" y="78px"></rect><text x="288px" y="78px" visibility="inherit" font-size="9pt" dy="-14px"><tspan class="text label" dy="-14px" x="288px">c1</tspan></text></g></g><g visibility="inherit"><rect fill="none" stroke="none" x="40px" y="224px" width="596px" height="136px"></rect><text x="40px" y="224px" visibility="inherit" font-size="9pt" dy="-14px"><tspan class="text label" dy="-14px" x="40px">layer1</tspan></text><g visibility="visible"><rect stroke="#A3B5FD" width="100px" height="60px" fill="#60EFDB" visibility="visible" x="148px" y="262px"></rect><text x="155px" y="280px" visibility="inherit" font-size="9pt" dy="5px" stroke="#6F89A2" fill="#6F89A2"><tspan class="text" dy="5px" x="155px">thresholds=[10]</tspan></text><text x="148px" y="262px" visibility="inherit" font-size="9pt" dy="-14px"><tspan class="text label" dy="-14px" x="148px">root</tspan></text></g><g visibility="inherit"><rect stroke="#A3B5FD" width="100px" height="60px" fill="#60EFDB" x="428px" y="262px"></rect><text x="428px" y="262px" visibility="inherit" font-size="9pt" dy="-14px"><tspan class="text label" dy="-14px" x="428px">b2</tspan></text></g></g><g visibility="inherit"><rect fill="none" stroke="none" x="40px" y="408px" width="596px" height="136px"></rect><text x="40px" y="408px" visibility="inherit" font-size="9pt" dy="-14px"><tspan class="text label" dy="-14px" x="40px">layer2</tspan></text><g visibility="visible"><rect stroke="#A3B5FD" width="100px" height="60px" fill="#60EFDB" visibility="visible" x="78px" y="446px"></rect><text x="85px" y="464px" visibility="inherit" font-size="9pt" dy="5px" stroke="#6F89A2" fill="#6F89A2"><tspan class="text" dy="5px" x="85px">v=[9]</tspan></text><text x="78px" y="446px" visibility="inherit" font-size="9pt" dy="-14px"><tspan class="text label" dy="-14px" x="78px">root</tspan></text></g><g visibility="inherit"><rect stroke="#A3B5FD" width="100px" height="60px" fill="#60EFDB" x="218px" y="446px"></rect><text x="218px" y="446px" visibility="inherit" font-size="9pt" dy="-14px"><tspan class="text label" dy="-14px" x="218px">a2</tspan></text></g><g visibility="inherit"><rect stroke="#A3B5FD" width="100px" height="60px" fill="#60EFDB" x="358px" y="446px"></rect><text x="358px" y="446px" visibility="inherit" font-size="9pt" dy="-14px"><tspan class="text label" dy="-14px" x="358px">a3</tspan></text></g><g visibility="visible"><rect stroke="#A3B5FD" width="100px" height="60px" fill="#60EFDB" visibility="visible" x="498px" y="446px"></rect><text x="505px" y="464px" visibility="inherit" font-size="9pt" dy="5px" stroke="#6F89A2" fill="#6F89A2"><tspan class="text" dy="5px" x="505px">v=[10]</tspan></text><text x="498px" y="446px" visibility="inherit" font-size="9pt" dy="-14px"><tspan class="text label" dy="-14px" x="498px">a4</tspan></text></g></g><g visibility="visible"><path d="M 178 496 L 498 496 M 483.74389561298614 488.73615200416725 L 498 496 M 483.74389561298614 503.26384799583275 L 498 496" stroke="#C3C5F8" dy="20px" visibility="visible" x="178px" y="496px" width="320px" height="0px"></path></g><g visibility="visible"><path d="M 186.58695652173913 322 L 139.41304347826087 446 M 151.27127203523082 435.25837928938734 L 139.41304347826087 446 M 137.69298164034572 430.0927253348115 L 139.41304347826087 446" stroke="#C3C5F8" visibility="visible" x="186.58695652173913px" y="322px" width="-47.17391304347825px" height="124px"></path></g><g visibility="visible"><path d="M 248 318.2857142857143 L 498 449.7142857142857 M 488.7614690443888 436.6509957082339 L 498 449.7142857142857 M 482.0013041340999 449.5100050484573 L 498 449.7142857142857" stroke="#C3C5F8" visibility="visible" x="248px" y="318.2857142857143px" width="250px" height="131.42857142857144px"></path></g></g></g></svg>
