<svg xmlns="http://www.w3.org/2000/svg" id="svgRoot" class="svg-root" width="676px" height="400px" viewBox="0 0 676 400"><style></style><g><g visibility="hidden"><rect stroke="none" fill="none" visibility="hidden" x="0px" y="0px" width="676px" height="400px"></rect><g visibility="inherit"><rect fill="none" stroke="none" x="40px" y="40px" width="596px" height="136px"></rect><text x="40px" y="40px" visibility="inherit" font-size="9pt" dy="-14px"><tspan class="text label" dy="-14px" x="40px">layer1</tspan></text><g visibility="inherit"><rect stroke="none" fill="#60EFDB" width="100px" height="60px" x="148px" y="78px"></rect><text x="148px" y="78px" visibility="inherit" font-size="9pt" dy="-14px"><tspan class="text label" dy="-14px" x="148px">b1</tspan></text></g><g visibility="inherit"><rect stroke="none" fill="#60EFDB" width="100px" height="60px" x="428px" y="78px"></rect><text x="428px" y="78px" visibility="inherit" font-size="9pt" dy="-14px"><tspan class="text label" dy="-14px" x="428px">b2</tspan></text></g></g><g visibility="inherit"><rect fill="none" stroke="none" x="40px" y="224px" width="596px" height="136px"></rect><text x="40px" y="224px" visibility="inherit" font-size="9pt" dy="-14px"><tspan class="text label" dy="-14px" x="40px">layer2</tspan></text><g visibility="inherit"><rect stroke="none" fill="#60EFDB" width="100px" height="60px" x="78px" y="262px"></rect><text x="78px" y="262px" visibility="inherit" font-size="9pt" dy="-14px"><tspan class="text label" dy="-14px" x="78px">a1</tspan></text></g><g visibility="inherit"><rect stroke="none" fill="#60EFDB" width="100px" height="60px" x="218px" y="262px"></rect><text x="218px" y="262px" visibility="inherit" font-size="9pt" dy="-14px"><tspan class="text label" dy="-14px" x="218px">a2</tspan></text></g><g visibility="inherit"><rect stroke="none" fill="#60EFDB" width="100px" height="60px" x="358px" y="262px"></rect><text x="358px" y="262px" visibility="inherit" font-size="9pt" dy="-14px"><tspan class="text label" dy="-14px" x="358px">a3</tspan></text></g><g visibility="inherit"><rect stroke="none" fill="#60EFDB" width="100px" height="60px" x="498px" y="262px"></rect><text x="498px" y="262px" visibility="inherit" font-size="9pt" dy="-14px"><tspan class="text label" dy="-14px" x="498px">a4</tspan></text></g></g></g></g></svg>
