<svg xmlns="http://www.w3.org/2000/svg" id="svgRoot" class="svg-root" width="676px" height="400px" viewBox="0 0 676 400"><style></style><g><g visibility="hidden"><rect stroke="none" fill="none" visibility="hidden" x="0px" y="0px" width="676px" height="400px"></rect><g visibility="inherit"><rect fill="none" stroke="none" x="40px" y="40px" width="596px" height="136px"></rect><text x="40px" y="40px" visibility="inherit" font-size="9pt" dy="-14px"><tspan class="text label" dy="-14px" x="40px">layer1</tspan></text><g visibility="visible"><rect stroke="none" fill="#60EFDB" width="100px" height="60px" visibility="visible" x="148px" y="78px"></rect><text x="155px" y="96px" visibility="inherit" font-size="9pt" dy="5px" fill="#6F89A2"><tspan class="text" dy="5px" x="155px">threshold=[9,10]</tspan></text><text x="148px" y="78px" visibility="inherit" font-size="9pt" dy="-14px"><tspan class="text label" dy="-14px" x="148px">root</tspan></text></g><g visibility="visible"><rect stroke="none" fill="#60EFDB" width="100px" height="60px" visibility="visible" x="428px" y="78px"></rect><text x="435px" y="96px" visibility="inherit" font-size="9pt" dy="5px" fill="#6F89A2"><tspan class="text" dy="5px" x="435px">threshold=[9,10]</tspan></text><text x="428px" y="78px" visibility="inherit" font-size="9pt" dy="-14px"><tspan class="text label" dy="-14px" x="428px">b2</tspan></text></g></g><g visibility="inherit"><rect fill="none" stroke="none" x="40px" y="224px" width="596px" height="136px"></rect><text x="40px" y="224px" visibility="inherit" font-size="9pt" dy="-14px"><tspan class="text label" dy="-14px" x="40px">layer2</tspan></text><g visibility="visible"><rect stroke="none" fill="#60EFDB" width="100px" height="60px" visibility="visible" x="78px" y="262px"></rect><text x="85px" y="280px" visibility="inherit" font-size="9pt" dy="5px" fill="#6F89A2"><tspan class="text" dy="5px" x="85px">v=[8]</tspan></text><text x="78px" y="262px" visibility="inherit" font-size="9pt" dy="-14px"><tspan class="text label" dy="-14px" x="78px">a1</tspan></text></g><g visibility="inherit"><rect stroke="none" fill="#60EFDB" width="100px" height="60px" x="218px" y="262px"></rect><text x="218px" y="262px" visibility="inherit" font-size="9pt" dy="-14px"><tspan class="text label" dy="-14px" x="218px">a2</tspan></text></g><g visibility="visible"><rect stroke="none" fill="#60EFDB" width="100px" height="60px" visibility="visible" x="358px" y="262px"></rect><text x="365px" y="280px" visibility="inherit" font-size="9pt" dy="5px" fill="#6F89A2"><tspan class="text" dy="5px" x="365px">v=[9]</tspan></text><text x="358px" y="262px" visibility="inherit" font-size="9pt" dy="-14px"><tspan class="text label" dy="-14px" x="358px">a3</tspan></text></g><g visibility="visible"><rect stroke="none" fill="#60EFDB" width="100px" height="60px" visibility="visible" x="498px" y="262px"></rect><text x="505px" y="280px" visibility="inherit" font-size="9pt" dy="5px" fill="#6F89A2"><tspan class="text" dy="5px" x="505px">v=[10]</tspan></text><text x="498px" y="262px" visibility="inherit" font-size="9pt" dy="-14px"><tspan class="text label" dy="-14px" x="498px">a4</tspan></text></g></g><g visibility="visible"><path d="M 186.58695652173913 138 L 139.41304347826087 262 M 151.27127203523082 251.25837928938734 L 139.41304347826087 262 M 137.69298164034572 246.0927253348115 L 139.41304347826087 262" stroke="#C3C5F8" visibility="visible" x="186.58695652173913px" y="138px" width="-47.17391304347825px" height="124px"></path></g><g visibility="visible"><path d="M 248 134.28571428571428 L 498 265.7142857142857 M 488.7614690443888 252.6509957082339 L 498 265.7142857142857 M 482.0013041340999 265.5100050484573 L 498 265.7142857142857" stroke="#C3C5F8" visibility="visible" x="248px" y="134.28571428571428px" width="250px" height="131.42857142857144px"></path></g><g visibility="hidden"><path d="M 178 312 L 498 312 M 483.74389561298614 304.73615200416725 L 498 312 M 483.74389561298614 319.26384799583275 L 498 312" stroke="#C3C5F8" dy="20px" visibility="hidden" x="178px" y="312px" width="320px" height="0px"></path></g><g visibility="visible"><path d="M 458 292 L 498 292 M 483.74389561298614 284.73615200416725 L 498 292 M 483.74389561298614 299.26384799583275 L 498 292" stroke="#C3C5F8" visibility="visible" x="458px" y="292px" width="40px" height="0px"></path></g><g visibility="visible"><path d="M 178 292 L 358 292 M 343.74389561298614 284.73615200416725 L 358 292 M 343.74389561298614 299.26384799583275 L 358 292" stroke="#C3C5F8" visibility="visible" x="178px" y="292px" width="180px" height="0px"></path></g><g visibility="visible"><path d="M 232.23913043478262 138 L 373.7608695652174 262 M 367.82534601493137 247.14168380387602 L 373.7608695652174 262 M 358.25142604726375 258.06844028871404 L 373.7608695652174 262" stroke="#C3C5F8" visibility="visible" x="232.23913043478262px" y="138px" width="141.52173913043475px" height="124px"></path></g><g visibility="visible"><path d="M 466.5869565217391 138 L 419.4130434782609 262 M 431.2712720352308 251.25837928938734 L 419.4130434782609 262 M 417.69298164034575 246.0927253348115 L 419.4130434782609 262" stroke="#C3C5F8" visibility="visible" x="466.5869565217391px" y="138px" width="-47.17391304347825px" height="124px"></path></g><g visibility="visible"><path d="M 489.4130434782609 138 L 536.5869565217391 262 M 538.3070183596543 246.0927253348115 L 536.5869565217391 262 M 524.7287279647692 251.25837928938734 L 536.5869565217391 262" stroke="#C3C5F8" visibility="visible" x="489.4130434782609px" y="138px" width="47.17391304347825px" height="124px"></path></g></g></g></svg>
