<svg xmlns="http://www.w3.org/2000/svg" id="svgRoot" class="svg-root" width="676px" height="400px" viewBox="0 0 676 400"><style></style><g><g visibility="inherit"><rect stroke="none" fill="none" x="0px" y="0px" width="676px" height="400px"></rect><g visibility="inherit"><rect fill="none" stroke="none" x="40px" y="40px" width="596px" height="136px"></rect><text x="40px" y="40px" visibility="inherit" font-size="9pt" dy="-14px"><tspan class="text label" dy="-14px" x="40px">clients</tspan></text><g visibility="visible"><rect stroke="black" width="100px" height="60px" fill="none" visibility="visible" x="101px" y="78px"></rect><text x="108px" y="96px" visibility="inherit" font-size="9pt" dy="5px"><tspan class="text" dy="5px" x="108px">A =&gt; k1: v1</tspan></text><text x="101px" y="78px" visibility="inherit" font-size="9pt" dy="-14px"><tspan class="text label" dy="-14px" x="101px">client a</tspan></text></g><g visibility="visible"><rect stroke="black" width="100px" height="60px" fill="none" visibility="visible" x="287px" y="78px"></rect><text x="287px" y="78px" visibility="inherit" font-size="9pt" dy="-14px"><tspan class="text label" dy="-14px" x="287px">client b</tspan></text></g><g visibility="inherit"><rect stroke="black" width="100px" height="60px" fill="none" x="473px" y="78px"></rect><text x="473px" y="78px" visibility="inherit" font-size="9pt" dy="-14px"><tspan class="text label" dy="-14px" x="473px">client c</tspan></text></g></g><g visibility="inherit"><rect fill="none" stroke="none" x="40px" y="224px" width="596px" height="136px"></rect><text x="40px" y="224px" visibility="inherit" font-size="9pt" dy="-14px"><tspan class="text label" dy="-14px" x="40px">server</tspan></text><g visibility="visible"><path d="M 178,262 C 178,276   78,276   78,262 M 178,262 C 178,248   78,248   78,262 M 178,262 L 178,322 C 178,336   78,336   78,322 L 78,262" stroke="black" width="100px" height="60px" fill="none" visibility="visible" x="78px" y="262px"></path><text x="85px" y="280px" visibility="inherit" font-size="9pt" dy="5px"><tspan class="text" dy="5px" x="85px">write k1: v2</tspan></text><text x="78px" y="262px" visibility="inherit" font-size="9pt" dy="-14px"><tspan class="text label" dy="-14px" x="78px">Node A</tspan></text></g><g visibility="visible"><path d="M 318,262 C 318,276   218,276   218,262 M 318,262 C 318,248   218,248   218,262 M 318,262 L 318,322 C 318,336   218,336   218,322 L 218,262" stroke="black" width="100px" height="60px" fill="none" visibility="visible" x="218px" y="262px"></path><text x="225px" y="280px" visibility="inherit" font-size="9pt" dy="5px"><tspan class="text" dy="5px" x="225px">k1: v1</tspan></text><text x="218px" y="262px" visibility="inherit" font-size="9pt" dy="-14px"><tspan class="text label" dy="-14px" x="218px">Node B</tspan></text></g><g visibility="visible"><path d="M 458,262 C 458,276   358,276   358,262 M 458,262 C 458,248   358,248   358,262 M 458,262 L 458,322 C 458,336   358,336   358,322 L 358,262" stroke="black" width="100px" height="60px" fill="none" visibility="visible" x="358px" y="262px"></path><text x="365px" y="280px" visibility="inherit" font-size="9pt" dy="5px"><tspan class="text" dy="5px" x="365px">k1: v1</tspan></text><text x="358px" y="262px" visibility="inherit" font-size="9pt" dy="-14px"><tspan class="text label" dy="-14px" x="358px">Node C</tspan></text></g><g visibility="inherit"><rect stroke="black" width="100px" height="60px" fill="none" x="498px" y="262px"></rect><text x="498px" y="262px" visibility="inherit" font-size="9pt" dy="-14px"><tspan class="text label" dy="-14px" x="498px">Hinted Handoff</tspan></text></g></g><g visibility="hidden"><path d="M 147.25 138 L 131.75 262 M 140.72600778999507 248.75495246690494 L 131.75 262 M 126.31049645784357 246.953013550386 L 131.75 262" stroke="black" visibility="hidden" x="147.25px" y="138px" width="-15.5px" height="124px"></path><text x="151.544834520564px" y="203.3884168150705px" visibility="inherit" font-size="9pt" dy="5px"><tspan class="text" dy="0.35em" x="151.544834520564px">read k1: v1</tspan></text></g><g visibility="hidden"><path d="M 302.92391304347825 138 L 162.07608695652175 262 M 177.57618231649465 258.03174549307295 L 162.07608695652175 262 M 167.97642908413187 247.1276779628348 L 162.07608695652175 262" stroke="black" visibility="hidden" x="302.92391304347825px" y="138px" width="-140.8478260869565px" height="124px"></path><text x="243.3745862159996px" y="210.90685218343813px" visibility="inherit" font-size="9pt" dy="5px"><tspan class="text" dy="0.35em" x="243.3745862159996px">write k1: v2</tspan></text></g><g visibility="visible"><path d="M 325.75 138 L 279.25 262 M 291.0570052559363 251.20210081144057 L 279.25 262 M 277.45429961608704 246.1010861964971 L 279.25 262" stroke="black" stroke-dasharray="8 4" visibility="visible" x="325.75px" y="138px" width="-46.5px" height="124px"></path><text x="314.14845013082856px" y="206.1134812990607px" visibility="inherit" font-size="9pt" dy="5px"><tspan class="text" dy="0.35em" x="314.14845013082856px">write, FAILED!!!</tspan></text></g></g></g></svg>
