<svg xmlns="http://www.w3.org/2000/svg" id="svgRoot" class="svg-root" width="676px" height="400px" viewBox="0 0 676 400"><style></style><g><g visibility="inherit"><rect stroke="none" fill="none" x="0px" y="0px" width="676px" height="400px"></rect><g visibility="inherit"><rect fill="none" stroke="none" x="40px" y="40px" width="596px" height="136px"></rect><text x="40px" y="40px" visibility="inherit" font-size="9pt" dy="-14px"><tspan class="text label" dy="-14px" x="40px">clients</tspan></text><g visibility="inherit"><rect stroke="black" fill="none" width="100px" height="60px" x="101px" y="78px"></rect><text x="101px" y="78px" visibility="inherit" font-size="9pt" dy="-14px"><tspan class="text label" dy="-14px" x="101px">client a</tspan></text></g><g visibility="inherit"><rect stroke="black" fill="none" width="100px" height="60px" x="287px" y="78px"></rect><text x="287px" y="78px" visibility="inherit" font-size="9pt" dy="-14px"><tspan class="text label" dy="-14px" x="287px">client b</tspan></text></g><g visibility="inherit"><rect stroke="black" fill="none" width="100px" height="60px" x="473px" y="78px"></rect><text x="473px" y="78px" visibility="inherit" font-size="9pt" dy="-14px"><tspan class="text label" dy="-14px" x="473px">client c</tspan></text></g></g><g visibility="inherit"><rect fill="none" stroke="none" x="40px" y="224px" width="596px" height="136px"></rect><text x="40px" y="224px" visibility="inherit" font-size="9pt" dy="-14px"><tspan class="text label" dy="-14px" x="40px">server</tspan></text><g visibility="visible"><path d="M 178,262 C 178,276   78,276   78,262 M 178,262 C 178,248   78,248   78,262 M 178,262 L 178,322 C 178,336   78,336   78,322 L 78,262" stroke="black" fill="none" width="100px" height="60px" visibility="visible" x="78px" y="262px"></path><text x="85px" y="280px" visibility="inherit" font-size="9pt" dy="5px"><tspan class="text" dy="5px" x="85px">k1: v1</tspan></text><text x="78px" y="262px" visibility="inherit" font-size="9pt" dy="-14px"><tspan class="text label" dy="-14px" x="78px">Node A</tspan></text></g><g visibility="visible"><path d="M 318,262 C 318,276   218,276   218,262 M 318,262 C 318,248   218,248   218,262 M 318,262 L 318,322 C 318,336   218,336   218,322 L 218,262" stroke="black" fill="none" width="100px" height="60px" visibility="visible" x="218px" y="262px"></path><text x="225px" y="280px" visibility="inherit" font-size="9pt" dy="5px"><tspan class="text" dy="5px" x="225px">k1: v1</tspan></text><text x="218px" y="262px" visibility="inherit" font-size="9pt" dy="-14px"><tspan class="text label" dy="-14px" x="218px">Node B</tspan></text></g><g visibility="visible"><path d="M 458,262 C 458,276   358,276   358,262 M 458,262 C 458,248   358,248   358,262 M 458,262 L 458,322 C 458,336   358,336   358,322 L 358,262" stroke="black" fill="none" width="100px" height="60px" visibility="visible" x="358px" y="262px"></path><text x="365px" y="280px" visibility="inherit" font-size="9pt" dy="5px"><tspan class="text" dy="5px" x="365px">k1: v1</tspan></text><text x="358px" y="262px" visibility="inherit" font-size="9pt" dy="-14px"><tspan class="text label" dy="-14px" x="358px">Node C</tspan></text></g><g visibility="inherit"><rect stroke="black" fill="none" width="100px" height="60px" x="498px" y="262px"></rect><text x="498px" y="262px" visibility="inherit" font-size="9pt" dy="-14px"><tspan class="text label" dy="-14px" x="498px">Hinted Handoff</tspan></text></g></g></g></g></svg>
