<svg xmlns="http://www.w3.org/2000/svg" id="svgRoot" class="svg-root" width="640px" height="452px" viewBox="0 0 640 452"><style></style><g><g visibility="inherit"><rect stroke="none" fill="none" x="0px" y="0px" width="482px" height="452px"></rect><g visibility="visible"><rect stroke="black" width="450px" height="45px" fill="none" visibility="visible" x="16px" y="46px"></rect><text x="23px" y="64px" visibility="inherit" font-size="9pt" dy="5px"><tspan class="text" dy="5px" x="23px">[2]</tspan></text><text x="16px" y="46px" visibility="inherit" font-size="9pt" dy="-14px"><tspan class="text label" dy="-14px" x="16px">prime list:</tspan></text></g><g visibility="inherit"><rect fill="none" stroke="none" x="16px" y="121px" width="450px" height="45px"></rect><g visibility="hidden"><rect stroke="black" width="45px" height="45px" fill="none" visibility="hidden" x="16px" y="121px"></rect><text x="16px" y="121px" visibility="inherit" font-size="9pt" dy="14px" dx="8px"><tspan class="text label" dy="14px" x="16px">1</tspan></text></g><g visibility="visible"><rect stroke="black" width="45px" height="45px" fill="#7f7fff" visibility="visible" x="61px" y="121px"></rect><text x="61px" y="121px" visibility="inherit" font-size="9pt" dy="14px" dx="8px"><tspan class="text label" dy="14px" x="61px">2</tspan></text></g><g visibility="inherit"><rect stroke="black" width="45px" height="45px" fill="none" x="106px" y="121px"></rect><text x="106px" y="121px" visibility="inherit" font-size="9pt" dy="14px" dx="8px"><tspan class="text label" dy="14px" x="106px">3</tspan></text></g><g visibility="visible"><rect stroke="black" width="45px" height="45px" fill="#7f7fff" visibility="visible" x="151px" y="121px"></rect><text x="151px" y="121px" visibility="inherit" font-size="9pt" dy="14px" dx="8px"><tspan class="text label" dy="14px" x="151px">4</tspan></text></g><g visibility="inherit"><rect stroke="black" width="45px" height="45px" fill="none" x="196px" y="121px"></rect><text x="196px" y="121px" visibility="inherit" font-size="9pt" dy="14px" dx="8px"><tspan class="text label" dy="14px" x="196px">5</tspan></text></g><g visibility="visible"><rect stroke="black" width="45px" height="45px" fill="#7f7fff" visibility="visible" x="241px" y="121px"></rect><text x="241px" y="121px" visibility="inherit" font-size="9pt" dy="14px" dx="8px"><tspan class="text label" dy="14px" x="241px">6</tspan></text></g><g visibility="inherit"><rect stroke="black" width="45px" height="45px" fill="none" x="286px" y="121px"></rect><text x="286px" y="121px" visibility="inherit" font-size="9pt" dy="14px" dx="8px"><tspan class="text label" dy="14px" x="286px">7</tspan></text></g><g visibility="visible"><rect stroke="black" width="45px" height="45px" fill="#7f7fff" visibility="visible" x="331px" y="121px"></rect><text x="331px" y="121px" visibility="inherit" font-size="9pt" dy="14px" dx="8px"><tspan class="text label" dy="14px" x="331px">8</tspan></text></g><g visibility="inherit"><rect stroke="black" width="45px" height="45px" fill="none" x="376px" y="121px"></rect><text x="376px" y="121px" visibility="inherit" font-size="9pt" dy="14px" dx="8px"><tspan class="text label" dy="14px" x="376px">9</tspan></text></g><g visibility="visible"><rect stroke="black" width="45px" height="45px" fill="#7f7fff" visibility="visible" x="421px" y="121px"></rect><text x="421px" y="121px" visibility="inherit" font-size="9pt" dy="14px" dx="8px"><tspan class="text label" dy="14px" x="421px">10</tspan></text></g></g><g visibility="inherit"><rect fill="none" stroke="none" x="16px" y="166px" width="450px" height="45px"></rect><g visibility="inherit"><rect stroke="black" width="45px" height="45px" fill="none" x="16px" y="166px"></rect><text x="16px" y="166px" visibility="inherit" font-size="9pt" dy="14px" dx="8px"><tspan class="text label" dy="14px" x="16px">11</tspan></text></g><g visibility="visible"><rect stroke="black" width="45px" height="45px" fill="#7f7fff" visibility="visible" x="61px" y="166px"></rect><text x="61px" y="166px" visibility="inherit" font-size="9pt" dy="14px" dx="8px"><tspan class="text label" dy="14px" x="61px">12</tspan></text></g><g visibility="inherit"><rect stroke="black" width="45px" height="45px" fill="none" x="106px" y="166px"></rect><text x="106px" y="166px" visibility="inherit" font-size="9pt" dy="14px" dx="8px"><tspan class="text label" dy="14px" x="106px">13</tspan></text></g><g visibility="visible"><rect stroke="black" width="45px" height="45px" fill="#7f7fff" visibility="visible" x="151px" y="166px"></rect><text x="151px" y="166px" visibility="inherit" font-size="9pt" dy="14px" dx="8px"><tspan class="text label" dy="14px" x="151px">14</tspan></text></g><g visibility="inherit"><rect stroke="black" width="45px" height="45px" fill="none" x="196px" y="166px"></rect><text x="196px" y="166px" visibility="inherit" font-size="9pt" dy="14px" dx="8px"><tspan class="text label" dy="14px" x="196px">15</tspan></text></g><g visibility="visible"><rect stroke="black" width="45px" height="45px" fill="#7f7fff" visibility="visible" x="241px" y="166px"></rect><text x="241px" y="166px" visibility="inherit" font-size="9pt" dy="14px" dx="8px"><tspan class="text label" dy="14px" x="241px">16</tspan></text></g><g visibility="inherit"><rect stroke="black" width="45px" height="45px" fill="none" x="286px" y="166px"></rect><text x="286px" y="166px" visibility="inherit" font-size="9pt" dy="14px" dx="8px"><tspan class="text label" dy="14px" x="286px">17</tspan></text></g><g visibility="visible"><rect stroke="black" width="45px" height="45px" fill="#7f7fff" visibility="visible" x="331px" y="166px"></rect><text x="331px" y="166px" visibility="inherit" font-size="9pt" dy="14px" dx="8px"><tspan class="text label" dy="14px" x="331px">18</tspan></text></g><g visibility="inherit"><rect stroke="black" width="45px" height="45px" fill="none" x="376px" y="166px"></rect><text x="376px" y="166px" visibility="inherit" font-size="9pt" dy="14px" dx="8px"><tspan class="text label" dy="14px" x="376px">19</tspan></text></g><g visibility="visible"><rect stroke="black" width="45px" height="45px" fill="#7f7fff" visibility="visible" x="421px" y="166px"></rect><text x="421px" y="166px" visibility="inherit" font-size="9pt" dy="14px" dx="8px"><tspan class="text label" dy="14px" x="421px">20</tspan></text></g></g><g visibility="inherit"><rect fill="none" stroke="none" x="16px" y="211px" width="450px" height="45px"></rect><g visibility="inherit"><rect stroke="black" width="45px" height="45px" fill="none" x="16px" y="211px"></rect><text x="16px" y="211px" visibility="inherit" font-size="9pt" dy="14px" dx="8px"><tspan class="text label" dy="14px" x="16px">21</tspan></text></g><g visibility="visible"><rect stroke="black" width="45px" height="45px" fill="#7f7fff" visibility="visible" x="61px" y="211px"></rect><text x="61px" y="211px" visibility="inherit" font-size="9pt" dy="14px" dx="8px"><tspan class="text label" dy="14px" x="61px">22</tspan></text></g><g visibility="inherit"><rect stroke="black" width="45px" height="45px" fill="none" x="106px" y="211px"></rect><text x="106px" y="211px" visibility="inherit" font-size="9pt" dy="14px" dx="8px"><tspan class="text label" dy="14px" x="106px">23</tspan></text></g><g visibility="visible"><rect stroke="black" width="45px" height="45px" fill="#7f7fff" visibility="visible" x="151px" y="211px"></rect><text x="151px" y="211px" visibility="inherit" font-size="9pt" dy="14px" dx="8px"><tspan class="text label" dy="14px" x="151px">24</tspan></text></g><g visibility="inherit"><rect stroke="black" width="45px" height="45px" fill="none" x="196px" y="211px"></rect><text x="196px" y="211px" visibility="inherit" font-size="9pt" dy="14px" dx="8px"><tspan class="text label" dy="14px" x="196px">25</tspan></text></g><g visibility="visible"><rect stroke="black" width="45px" height="45px" fill="#7f7fff" visibility="visible" x="241px" y="211px"></rect><text x="241px" y="211px" visibility="inherit" font-size="9pt" dy="14px" dx="8px"><tspan class="text label" dy="14px" x="241px">26</tspan></text></g><g visibility="inherit"><rect stroke="black" width="45px" height="45px" fill="none" x="286px" y="211px"></rect><text x="286px" y="211px" visibility="inherit" font-size="9pt" dy="14px" dx="8px"><tspan class="text label" dy="14px" x="286px">27</tspan></text></g><g visibility="visible"><rect stroke="black" width="45px" height="45px" fill="#7f7fff" visibility="visible" x="331px" y="211px"></rect><text x="331px" y="211px" visibility="inherit" font-size="9pt" dy="14px" dx="8px"><tspan class="text label" dy="14px" x="331px">28</tspan></text></g><g visibility="inherit"><rect stroke="black" width="45px" height="45px" fill="none" x="376px" y="211px"></rect><text x="376px" y="211px" visibility="inherit" font-size="9pt" dy="14px" dx="8px"><tspan class="text label" dy="14px" x="376px">29</tspan></text></g><g visibility="visible"><rect stroke="black" width="45px" height="45px" fill="#7f7fff" visibility="visible" x="421px" y="211px"></rect><text x="421px" y="211px" visibility="inherit" font-size="9pt" dy="14px" dx="8px"><tspan class="text label" dy="14px" x="421px">30</tspan></text></g></g><g visibility="inherit"><rect fill="none" stroke="none" x="16px" y="256px" width="450px" height="45px"></rect><g visibility="inherit"><rect stroke="black" width="45px" height="45px" fill="none" x="16px" y="256px"></rect><text x="16px" y="256px" visibility="inherit" font-size="9pt" dy="14px" dx="8px"><tspan class="text label" dy="14px" x="16px">31</tspan></text></g><g visibility="visible"><rect stroke="black" width="45px" height="45px" fill="#7f7fff" visibility="visible" x="61px" y="256px"></rect><text x="61px" y="256px" visibility="inherit" font-size="9pt" dy="14px" dx="8px"><tspan class="text label" dy="14px" x="61px">32</tspan></text></g><g visibility="inherit"><rect stroke="black" width="45px" height="45px" fill="none" x="106px" y="256px"></rect><text x="106px" y="256px" visibility="inherit" font-size="9pt" dy="14px" dx="8px"><tspan class="text label" dy="14px" x="106px">33</tspan></text></g><g visibility="visible"><rect stroke="black" width="45px" height="45px" fill="#7f7fff" visibility="visible" x="151px" y="256px"></rect><text x="151px" y="256px" visibility="inherit" font-size="9pt" dy="14px" dx="8px"><tspan class="text label" dy="14px" x="151px">34</tspan></text></g><g visibility="inherit"><rect stroke="black" width="45px" height="45px" fill="none" x="196px" y="256px"></rect><text x="196px" y="256px" visibility="inherit" font-size="9pt" dy="14px" dx="8px"><tspan class="text label" dy="14px" x="196px">35</tspan></text></g><g visibility="visible"><rect stroke="black" width="45px" height="45px" fill="#7f7fff" visibility="visible" x="241px" y="256px"></rect><text x="241px" y="256px" visibility="inherit" font-size="9pt" dy="14px" dx="8px"><tspan class="text label" dy="14px" x="241px">36</tspan></text></g><g visibility="inherit"><rect stroke="black" width="45px" height="45px" fill="none" x="286px" y="256px"></rect><text x="286px" y="256px" visibility="inherit" font-size="9pt" dy="14px" dx="8px"><tspan class="text label" dy="14px" x="286px">37</tspan></text></g><g visibility="visible"><rect stroke="black" width="45px" height="45px" fill="#7f7fff" visibility="visible" x="331px" y="256px"></rect><text x="331px" y="256px" visibility="inherit" font-size="9pt" dy="14px" dx="8px"><tspan class="text label" dy="14px" x="331px">38</tspan></text></g><g visibility="inherit"><rect stroke="black" width="45px" height="45px" fill="none" x="376px" y="256px"></rect><text x="376px" y="256px" visibility="inherit" font-size="9pt" dy="14px" dx="8px"><tspan class="text label" dy="14px" x="376px">39</tspan></text></g><g visibility="visible"><rect stroke="black" width="45px" height="45px" fill="#7f7fff" visibility="visible" x="421px" y="256px"></rect><text x="421px" y="256px" visibility="inherit" font-size="9pt" dy="14px" dx="8px"><tspan class="text label" dy="14px" x="421px">40</tspan></text></g></g><g visibility="inherit"><rect fill="none" stroke="none" x="16px" y="301px" width="450px" height="45px"></rect><g visibility="inherit"><rect stroke="black" width="45px" height="45px" fill="none" x="16px" y="301px"></rect><text x="16px" y="301px" visibility="inherit" font-size="9pt" dy="14px" dx="8px"><tspan class="text label" dy="14px" x="16px">41</tspan></text></g><g visibility="visible"><rect stroke="black" width="45px" height="45px" fill="#7f7fff" visibility="visible" x="61px" y="301px"></rect><text x="61px" y="301px" visibility="inherit" font-size="9pt" dy="14px" dx="8px"><tspan class="text label" dy="14px" x="61px">42</tspan></text></g><g visibility="inherit"><rect stroke="black" width="45px" height="45px" fill="none" x="106px" y="301px"></rect><text x="106px" y="301px" visibility="inherit" font-size="9pt" dy="14px" dx="8px"><tspan class="text label" dy="14px" x="106px">43</tspan></text></g><g visibility="visible"><rect stroke="black" width="45px" height="45px" fill="#7f7fff" visibility="visible" x="151px" y="301px"></rect><text x="151px" y="301px" visibility="inherit" font-size="9pt" dy="14px" dx="8px"><tspan class="text label" dy="14px" x="151px">44</tspan></text></g><g visibility="inherit"><rect stroke="black" width="45px" height="45px" fill="none" x="196px" y="301px"></rect><text x="196px" y="301px" visibility="inherit" font-size="9pt" dy="14px" dx="8px"><tspan class="text label" dy="14px" x="196px">45</tspan></text></g><g visibility="visible"><rect stroke="black" width="45px" height="45px" fill="#7f7fff" visibility="visible" x="241px" y="301px"></rect><text x="241px" y="301px" visibility="inherit" font-size="9pt" dy="14px" dx="8px"><tspan class="text label" dy="14px" x="241px">46</tspan></text></g><g visibility="inherit"><rect stroke="black" width="45px" height="45px" fill="none" x="286px" y="301px"></rect><text x="286px" y="301px" visibility="inherit" font-size="9pt" dy="14px" dx="8px"><tspan class="text label" dy="14px" x="286px">47</tspan></text></g><g visibility="visible"><rect stroke="black" width="45px" height="45px" fill="#7f7fff" visibility="visible" x="331px" y="301px"></rect><text x="331px" y="301px" visibility="inherit" font-size="9pt" dy="14px" dx="8px"><tspan class="text label" dy="14px" x="331px">48</tspan></text></g><g visibility="inherit"><rect stroke="black" width="45px" height="45px" fill="none" x="376px" y="301px"></rect><text x="376px" y="301px" visibility="inherit" font-size="9pt" dy="14px" dx="8px"><tspan class="text label" dy="14px" x="376px">49</tspan></text></g><g visibility="visible"><rect stroke="black" width="45px" height="45px" fill="#7f7fff" visibility="visible" x="421px" y="301px"></rect><text x="421px" y="301px" visibility="inherit" font-size="9pt" dy="14px" dx="8px"><tspan class="text label" dy="14px" x="421px">50</tspan></text></g></g><g visibility="inherit"><rect fill="none" stroke="none" x="16px" y="346px" width="450px" height="45px"></rect><g visibility="inherit"><rect stroke="black" width="45px" height="45px" fill="none" x="16px" y="346px"></rect><text x="16px" y="346px" visibility="inherit" font-size="9pt" dy="14px" dx="8px"><tspan class="text label" dy="14px" x="16px">51</tspan></text></g><g visibility="visible"><rect stroke="black" width="45px" height="45px" fill="#7f7fff" visibility="visible" x="61px" y="346px"></rect><text x="61px" y="346px" visibility="inherit" font-size="9pt" dy="14px" dx="8px"><tspan class="text label" dy="14px" x="61px">52</tspan></text></g><g visibility="inherit"><rect stroke="black" width="45px" height="45px" fill="none" x="106px" y="346px"></rect><text x="106px" y="346px" visibility="inherit" font-size="9pt" dy="14px" dx="8px"><tspan class="text label" dy="14px" x="106px">53</tspan></text></g><g visibility="visible"><rect stroke="black" width="45px" height="45px" fill="#7f7fff" visibility="visible" x="151px" y="346px"></rect><text x="151px" y="346px" visibility="inherit" font-size="9pt" dy="14px" dx="8px"><tspan class="text label" dy="14px" x="151px">54</tspan></text></g><g visibility="inherit"><rect stroke="black" width="45px" height="45px" fill="none" x="196px" y="346px"></rect><text x="196px" y="346px" visibility="inherit" font-size="9pt" dy="14px" dx="8px"><tspan class="text label" dy="14px" x="196px">55</tspan></text></g><g visibility="visible"><rect stroke="black" width="45px" height="45px" fill="#7f7fff" visibility="visible" x="241px" y="346px"></rect><text x="241px" y="346px" visibility="inherit" font-size="9pt" dy="14px" dx="8px"><tspan class="text label" dy="14px" x="241px">56</tspan></text></g><g visibility="inherit"><rect stroke="black" width="45px" height="45px" fill="none" x="286px" y="346px"></rect><text x="286px" y="346px" visibility="inherit" font-size="9pt" dy="14px" dx="8px"><tspan class="text label" dy="14px" x="286px">57</tspan></text></g><g visibility="visible"><rect stroke="black" width="45px" height="45px" fill="#7f7fff" visibility="visible" x="331px" y="346px"></rect><text x="331px" y="346px" visibility="inherit" font-size="9pt" dy="14px" dx="8px"><tspan class="text label" dy="14px" x="331px">58</tspan></text></g><g visibility="inherit"><rect stroke="black" width="45px" height="45px" fill="none" x="376px" y="346px"></rect><text x="376px" y="346px" visibility="inherit" font-size="9pt" dy="14px" dx="8px"><tspan class="text label" dy="14px" x="376px">59</tspan></text></g><g visibility="visible"><rect stroke="black" width="45px" height="45px" fill="#7f7fff" visibility="visible" x="421px" y="346px"></rect><text x="421px" y="346px" visibility="inherit" font-size="9pt" dy="14px" dx="8px"><tspan class="text label" dy="14px" x="421px">60</tspan></text></g></g><g visibility="inherit"><rect fill="none" stroke="none" x="16px" y="391px" width="450px" height="45px"></rect><g visibility="inherit"><rect stroke="black" width="45px" height="45px" fill="none" x="16px" y="391px"></rect><text x="16px" y="391px" visibility="inherit" font-size="9pt" dy="14px" dx="8px"><tspan class="text label" dy="14px" x="16px">61</tspan></text></g><g visibility="visible"><rect stroke="black" width="45px" height="45px" fill="#7f7fff" visibility="visible" x="61px" y="391px"></rect><text x="61px" y="391px" visibility="inherit" font-size="9pt" dy="14px" dx="8px"><tspan class="text label" dy="14px" x="61px">62</tspan></text></g><g visibility="inherit"><rect stroke="black" width="45px" height="45px" fill="none" x="106px" y="391px"></rect><text x="106px" y="391px" visibility="inherit" font-size="9pt" dy="14px" dx="8px"><tspan class="text label" dy="14px" x="106px">63</tspan></text></g><g visibility="visible"><rect stroke="black" width="45px" height="45px" fill="#7f7fff" visibility="visible" x="151px" y="391px"></rect><text x="151px" y="391px" visibility="inherit" font-size="9pt" dy="14px" dx="8px"><tspan class="text label" dy="14px" x="151px">64</tspan></text></g><g visibility="inherit"><rect stroke="black" width="45px" height="45px" fill="none" x="196px" y="391px"></rect><text x="196px" y="391px" visibility="inherit" font-size="9pt" dy="14px" dx="8px"><tspan class="text label" dy="14px" x="196px">65</tspan></text></g><g visibility="visible"><rect stroke="black" width="45px" height="45px" fill="#7f7fff" visibility="visible" x="241px" y="391px"></rect><text x="241px" y="391px" visibility="inherit" font-size="9pt" dy="14px" dx="8px"><tspan class="text label" dy="14px" x="241px">66</tspan></text></g><g visibility="inherit"><rect stroke="black" width="45px" height="45px" fill="none" x="286px" y="391px"></rect><text x="286px" y="391px" visibility="inherit" font-size="9pt" dy="14px" dx="8px"><tspan class="text label" dy="14px" x="286px">67</tspan></text></g><g visibility="visible"><rect stroke="black" width="45px" height="45px" fill="#7f7fff" visibility="visible" x="331px" y="391px"></rect><text x="331px" y="391px" visibility="inherit" font-size="9pt" dy="14px" dx="8px"><tspan class="text label" dy="14px" x="331px">68</tspan></text></g><g visibility="inherit"><rect stroke="black" width="45px" height="45px" fill="none" x="376px" y="391px"></rect><text x="376px" y="391px" visibility="inherit" font-size="9pt" dy="14px" dx="8px"><tspan class="text label" dy="14px" x="376px">69</tspan></text></g><g visibility="visible"><rect stroke="black" width="45px" height="45px" fill="#7f7fff" visibility="visible" x="421px" y="391px"></rect><text x="421px" y="391px" visibility="inherit" font-size="9pt" dy="14px" dx="8px"><tspan class="text label" dy="14px" x="421px">70</tspan></text></g></g></g></g></svg>
