<svg xmlns="http://www.w3.org/2000/svg" id="svgRoot" class="svg-root" width="640px" height="584px" viewBox="0 0 640 584"><style></style><g><g visibility="inherit"><rect stroke="none" fill="none" x="0px" y="0px" width="564px" height="584px"></rect><g visibility="inherit"><rect fill="none" stroke="none" x="40px" y="40px" width="484px" height="320px"></rect><g visibility="inherit"><rect fill="none" stroke="none" x="82px" y="82px" width="176px" height="236px"></rect><g visibility="visible"><rect stroke="black" width="100px" height="60px" fill="none" visibility="visible" x="120px" y="120px"></rect><text x="120px" y="120px" visibility="inherit" font-size="9pt" dy="-14px"><tspan class="text label" dy="-14px" x="120px">Client</tspan></text></g></g><g visibility="inherit"><rect fill="#f0f0f0" stroke="none" x="306px" y="82px" width="176px" height="236px"></rect><text x="306px" y="82px" visibility="inherit" font-size="9pt" dy="-14px"><tspan class="text label" dy="-14px" x="306px">Key Distribution Center</tspan></text><g visibility="inherit"><rect stroke="none" width="100px" height="60px" fill="#FFE5C0" x="344px" y="120px"></rect><text x="351px" y="138px" visibility="inherit" font-size="9pt" dy="5px" fill="#555555"><tspan class="text" dy="5px" x="351px">Authentication </tspan><tspan class="text" dy="1em" x="351px">Service</tspan></text><text x="344px" y="120px" visibility="inherit" font-size="9pt" dy="-14px"><tspan class="text label" dy="-14px" x="344px">AS</tspan></text></g><g visibility="inherit"><rect stroke="none" width="100px" height="60px" fill="#FFE5C0" x="344px" y="220px"></rect><text x="351px" y="238px" visibility="inherit" font-size="9pt" dy="5px" fill="#555555"><tspan class="text" dy="5px" x="351px">Ticket </tspan><tspan class="text" dy="1em" x="351px">Granting </tspan><tspan class="text" dy="1em" x="351px">Service</tspan></text><text x="344px" y="220px" visibility="inherit" font-size="9pt" dy="-14px"><tspan class="text label" dy="-14px" x="344px">TGS</tspan></text></g></g></g><g visibility="inherit"><rect fill="none" stroke="none" x="40px" y="408px" width="484px" height="136px"></rect><g visibility="visible"><rect stroke="black" width="100px" height="60px" fill="none" visibility="visible" x="78px" y="446px"></rect><text x="78px" y="446px" visibility="inherit" font-size="9pt" dy="-14px"><tspan class="text label" dy="-14px" x="78px">Web Server</tspan></text></g><g visibility="inherit"><rect stroke="black" width="100px" height="60px" fill="none" x="218px" y="446px"></rect><text x="218px" y="446px" visibility="inherit" font-size="9pt" dy="-14px"><tspan class="text label" dy="-14px" x="218px">File Server</tspan></text></g></g><g visibility="visible"><path d="M 166.13496932515338 180 L 131.86503067484662 446 M 140.89095551218833 432.78891825660526 L 131.86503067484662 446 M 126.48234653805345 430.93259440104185 L 131.86503067484662 446" stroke="black" visibility="visible" x="166.13496932515338px" y="180px" width="-34.269938650306756px" height="266px"></path><text x="160.89335090576122px" y="312.88333923559117px" visibility="inherit" font-size="9pt" dy="5px"><tspan class="text" dy="0.35em" x="160.89335090576122px">OK? (Web Server ST here)</tspan></text></g></g></g></svg>
