<svg xmlns="http://www.w3.org/2000/svg" id="svgRoot" class="svg-root" width="640px" height="584px" viewBox="0 0 640 584"><style></style><g><g visibility="inherit"><rect stroke="none" fill="none" x="0px" y="0px" width="564px" height="584px"></rect><g visibility="inherit"><rect fill="none" stroke="none" x="40px" y="40px" width="484px" height="320px"></rect><g visibility="inherit"><rect fill="none" stroke="none" x="82px" y="82px" width="176px" height="236px"></rect><g visibility="visible"><rect stroke="black" width="100px" height="60px" fill="none" visibility="visible" x="120px" y="120px"></rect><text x="120px" y="120px" visibility="inherit" font-size="9pt" dy="-14px"><tspan class="text label" dy="-14px" x="120px">Client</tspan></text></g></g><g visibility="inherit"><rect fill="#f0f0f0" stroke="none" x="306px" y="82px" width="176px" height="236px"></rect><text x="306px" y="82px" visibility="inherit" font-size="9pt" dy="-14px"><tspan class="text label" dy="-14px" x="306px">Key Distribution Center</tspan></text><g visibility="inherit"><rect stroke="none" width="100px" height="60px" fill="#FFE5C0" x="344px" y="120px"></rect><text x="351px" y="138px" visibility="inherit" font-size="9pt" dy="5px" fill="#555555"><tspan class="text" dy="5px" x="351px">Authentication </tspan><tspan class="text" dy="1em" x="351px">Service</tspan></text><text x="344px" y="120px" visibility="inherit" font-size="9pt" dy="-14px"><tspan class="text label" dy="-14px" x="344px">AS</tspan></text></g><g visibility="inherit"><rect stroke="none" width="100px" height="60px" fill="#FFE5C0" x="344px" y="220px"></rect><text x="351px" y="238px" visibility="inherit" font-size="9pt" dy="5px" fill="#555555"><tspan class="text" dy="5px" x="351px">Ticket </tspan><tspan class="text" dy="1em" x="351px">Granting </tspan><tspan class="text" dy="1em" x="351px">Service</tspan></text><text x="344px" y="220px" visibility="inherit" font-size="9pt" dy="-14px"><tspan class="text label" dy="-14px" x="344px">TGS</tspan></text></g></g></g><g visibility="inherit"><rect fill="none" stroke="none" x="40px" y="408px" width="484px" height="136px"></rect><g visibility="inherit"><rect stroke="black" width="100px" height="60px" fill="none" x="78px" y="446px"></rect><text x="78px" y="446px" visibility="inherit" font-size="9pt" dy="-14px"><tspan class="text label" dy="-14px" x="78px">Web Server</tspan></text></g><g visibility="visible"><rect stroke="black" width="100px" height="60px" fill="none" visibility="visible" x="218px" y="446px"></rect><text x="218px" y="446px" visibility="inherit" font-size="9pt" dy="-14px"><tspan class="text label" dy="-14px" x="218px">File Server</tspan></text></g></g><g visibility="visible"><path d="M 179.01840490797545 180 L 258.9815950920245 446 M 261.8337789107954 430.25626958234034 L 258.9815950920245 446 M 247.92112121478084 434.43860226396436 L 258.9815950920245 446" stroke="black" visibility="visible" x="179.01840490797545px" y="180px" width="79.96319018404907px" height="266px"></path><text x="227.51129830919706px" y="307.8953577629735px" visibility="inherit" font-size="9pt" dy="5px"><tspan class="text" dy="0.35em" x="227.51129830919706px">OK? (File Server ST here)</tspan></text></g></g></g></svg>
