<svg xmlns="http://www.w3.org/2000/svg" id="svgRoot" class="svg-root" width="640px" height="584px" viewBox="0 0 640 584"><style></style><g><g visibility="inherit"><rect stroke="none" fill="none" x="0px" y="0px" width="564px" height="584px"></rect><g visibility="inherit"><rect fill="none" stroke="none" x="40px" y="40px" width="484px" height="320px"></rect><g visibility="inherit"><rect fill="none" stroke="none" x="82px" y="82px" width="176px" height="236px"></rect><g visibility="visible"><rect stroke="black" width="100px" height="60px" fill="none" visibility="visible" x="120px" y="120px"></rect><text x="120px" y="120px" visibility="inherit" font-size="9pt" dy="-14px"><tspan class="text label" dy="-14px" x="120px">Client</tspan></text></g></g><g visibility="inherit"><rect fill="#f0f0f0" stroke="none" x="306px" y="82px" width="176px" height="236px"></rect><text x="306px" y="82px" visibility="inherit" font-size="9pt" dy="-14px"><tspan class="text label" dy="-14px" x="306px">Key Distribution Center</tspan></text><g visibility="inherit"><rect stroke="none" width="100px" height="60px" fill="#FFE5C0" x="344px" y="120px"></rect><text x="351px" y="138px" visibility="inherit" font-size="9pt" dy="5px" fill="#555555"><tspan class="text" dy="5px" x="351px">Authentication </tspan><tspan class="text" dy="1em" x="351px">Service</tspan></text><text x="344px" y="120px" visibility="inherit" font-size="9pt" dy="-14px"><tspan class="text label" dy="-14px" x="344px">AS</tspan></text></g><g visibility="visible"><rect stroke="none" width="100px" height="60px" fill="#FFE5C0" visibility="visible" x="344px" y="220px"></rect><text x="351px" y="238px" visibility="inherit" font-size="9pt" dy="5px" fill="#555555"><tspan class="text" dy="5px" x="351px">Ticket </tspan><tspan class="text" dy="1em" x="351px">Granting </tspan><tspan class="text" dy="1em" x="351px">Service</tspan></text><text x="344px" y="220px" visibility="inherit" font-size="9pt" dy="-14px"><tspan class="text label" dy="-14px" x="344px">TGS</tspan></text></g></g></g><g visibility="inherit"><rect fill="none" stroke="none" x="40px" y="408px" width="484px" height="136px"></rect><g visibility="inherit"><rect stroke="black" width="100px" height="60px" fill="none" x="78px" y="446px"></rect><text x="78px" y="446px" visibility="inherit" font-size="9pt" dy="-14px"><tspan class="text label" dy="-14px" x="78px">Web Server</tspan></text></g><g visibility="inherit"><rect stroke="black" width="100px" height="60px" fill="none" x="218px" y="446px"></rect><text x="218px" y="446px" visibility="inherit" font-size="9pt" dy="-14px"><tspan class="text label" dy="-14px" x="218px">File Server</tspan></text></g></g><g visibility="visible"><path d="M 344 227.67857142857142 L 220 172.32142857142858 M 230.05667523191656 184.76583628251535 L 220 172.32142857142858 M 235.97890271161538 171.50004672799 L 220 172.32142857142858" stroke="black" visibility="visible" x="344px" y="227.67857142857142px" width="-124px" height="-55.35714285714283px"></path><text x="281.9918100844867px" y="182.10484541074987px" visibility="inherit" font-size="9pt" dy="-8px" dx="-8px"><tspan class="text" dy="0.35em" x="281.9918100844867px">ST! (encrypted for File Server)</tspan></text></g></g></g></svg>
