<svg xmlns="http://www.w3.org/2000/svg" id="svgRoot" class="svg-root" width="640px" height="584px" viewBox="0 0 640 584"><style></style><g><g visibility="inherit"><rect stroke="none" fill="none" x="0px" y="0px" width="536px" height="584px"></rect><g visibility="inherit"><rect fill="none" stroke="none" x="40px" y="40px" width="456px" height="136px"></rect><g visibility="inherit"><path d="M 151,90 C 151,106   175,106   175,90 M 151,90 C 151,74   175,74   175,90 M 163,102 L 163,126 M 138,114 L 188,114 M 163,126 L 138,138 M 163,126 L 188,138" stroke="black" width="100px" height="60px" fill="none" x="113px" y="78px"></path><text x="113px" y="78px" visibility="inherit" font-size="9pt" dy="-14px"><tspan class="text label" dy="-14px" x="113px">user</tspan></text></g><g visibility="inherit"><svg xmlns="http://www.w3.org/2000/svg" id="svgRoot" class="svg-root" width="100px" height="60px" viewBox="0 0 512 512" style="stroke: none; fill: black;" x="323px" y="78px"><path d="M0 256C0 209.4 12.47 165.6 34.27 127.1L144.1 318.3C166 357.5 207.9 384 256 384C270.3 384 283.1 381.7 296.8 377.4L220.5 509.6C95.9 492.3 0 385.3 0 256zM365.1 321.6C377.4 302.4 384 279.1 384 256C384 217.8 367.2 183.5 340.7 160H493.4C505.4 189.6 512 222.1 512 256C512 397.4 397.4 511.1 256 512L365.1 321.6zM477.8 128H256C193.1 128 142.3 172.1 130.5 230.7L54.19 98.47C101 38.53 174 0 256 0C350.8 0 433.5 51.48 477.8 128V128zM168 256C168 207.4 207.4 168 256 168C304.6 168 344 207.4 344 256C344 304.6 304.6 344 256 344C207.4 344 168 304.6 168 256z"></path></svg><text x="323px" y="78px" visibility="inherit" font-size="9pt" dy="-14px"><tspan class="text label" dy="-14px" x="323px">WebView</tspan></text></g></g><g visibility="inherit"><rect fill="#d0f0fa" stroke="none" x="40px" y="224px" width="456px" height="136px"></rect><text x="40px" y="224px" visibility="inherit" font-size="9pt" dy="-14px"><tspan class="text label" dy="-14px" x="40px">Native App</tspan></text><g visibility="inherit"><svg xmlns="http://www.w3.org/2000/svg" id="svgRoot" class="svg-root" width="100px" height="60px" viewBox="0 0 512 512" style="stroke: none; fill: black;" x="78px" y="262px"><path d="M125.7 160H176c17.7 0 32 14.3 32 32s-14.3 32-32 32H48c-17.7 0-32-14.3-32-32V64c0-17.7 14.3-32 32-32s32 14.3 32 32v51.2L97.6 97.6c87.5-87.5 229.3-87.5 316.8 0s87.5 229.3 0 316.8s-229.3 87.5-316.8 0c-12.5-12.5-12.5-32.8 0-45.3s32.8-12.5 45.3 0c62.5 62.5 163.8 62.5 226.3 0s62.5-163.8 0-226.3s-163.8-62.5-226.3 0L125.7 160z"></path></svg><text x="78px" y="262px" visibility="inherit" font-size="9pt" dy="-14px"><tspan class="text label" dy="-14px" x="78px">Log Writer</tspan></text></g><g visibility="inherit"><path d="M 218,262 C 232,262   232,322   218,322 M 218,262 C 204,262   204,322   218,322 M 218,262 L 318,262 C 332,262   332,322   318,322 L 218,322" stroke="black" width="100px" height="60px" fill="none" x="218px" y="262px"></path><text x="235px" y="274px" visibility="inherit" font-size="9pt" dy="5px"><tspan class="text" dy="5px" x="235px">  [event 1],</tspan><tspan class="text" dy="1em" x="235px">[event 2],</tspan><tspan class="text" dy="1em" x="235px">  ...</tspan></text><text x="218px" y="262px" visibility="inherit" font-size="9pt" dy="-14px"><tspan class="text label" dy="-14px" x="218px">Buffer</tspan></text></g><g visibility="inherit"><svg xmlns="http://www.w3.org/2000/svg" id="svgRoot" class="svg-root" width="100px" height="60px" viewBox="0 0 512 512" style="stroke: none; fill: black;" x="358px" y="262px"><path d="M386.3 160H336c-17.7 0-32 14.3-32 32s14.3 32 32 32H464c17.7 0 32-14.3 32-32V64c0-17.7-14.3-32-32-32s-32 14.3-32 32v51.2L414.4 97.6c-87.5-87.5-229.3-87.5-316.8 0s-87.5 229.3 0 316.8s229.3 87.5 316.8 0c12.5-12.5 12.5-32.8 0-45.3s-32.8-12.5-45.3 0c-62.5 62.5-163.8 62.5-226.3 0s-62.5-163.8 0-226.3s163.8-62.5 226.3 0L386.3 160z"></path></svg><text x="358px" y="262px" visibility="inherit" font-size="9pt" dy="-14px"><tspan class="text label" dy="-14px" x="358px">Log Sender</tspan></text></g></g><g visibility="inherit"><rect fill="none" stroke="none" x="40px" y="408px" width="456px" height="136px"></rect><g visibility="inherit"><svg xmlns="http://www.w3.org/2000/svg" id="svgRoot" class="svg-root" width="100px" height="60px" viewBox="0 0 512 512" style="stroke: none; fill: black;" x="218px" y="446px"><path d="M64 32C28.7 32 0 60.7 0 96v64c0 35.3 28.7 64 64 64H448c35.3 0 64-28.7 64-64V96c0-35.3-28.7-64-64-64H64zm280 72a24 24 0 1 1 0 48 24 24 0 1 1 0-48zm48 24a24 24 0 1 1 48 0 24 24 0 1 1 -48 0zM64 288c-35.3 0-64 28.7-64 64v64c0 35.3 28.7 64 64 64H448c35.3 0 64-28.7 64-64V352c0-35.3-28.7-64-64-64H64zm280 72a24 24 0 1 1 0 48 24 24 0 1 1 0-48zm56 24a24 24 0 1 1 48 0 24 24 0 1 1 -48 0z"></path></svg><text x="218px" y="446px" visibility="inherit" font-size="9pt" dy="-14px"><tspan class="text label" dy="-14px" x="218px">Backend</tspan></text></g></g><g visibility="inherit"><path d="M 213 108 L 323 108 M 308.74389561298614 100.73615200416725 L 323 108 M 308.74389561298614 115.26384799583275 L 323 108" stroke="black" x="213px" y="108px" width="110px" height="0px"></path><text x="258.375px" y="125px" visibility="inherit" font-size="9pt" dy="5px"><tspan class="text" dy="0.35em" x="258.375px">Click</tspan></text></g><g visibility="inherit"><path d="M 333.05434782608694 138 L 167.94565217391306 262 M 183.70705092469572 259.2471270609004 L 167.94565217391306 262 M 174.98284892403765 247.630662440459 L 167.94565217391306 262" stroke="black" x="333.05434782608694px" y="138px" width="-165.10869565217388px" height="124px"></path><text x="261.38833000073737px" y="211.49529821695535px" visibility="inherit" font-size="9pt" dy="5px"><tspan class="text" dy="0.35em" x="261.38833000073737px">Publish</tspan></text></g><g visibility="inherit"><path d="M 178 292 L 218 292 M 203.7438956129861 284.73615200416725 L 218 292 M 203.7438956129861 299.26384799583275 L 218 292" stroke="gray" stroke-dasharray="4 3" x="178px" y="292px" width="40px" height="0px"></path></g><g visibility="inherit"><path d="M 318 292 L 358 292 M 343.74389561298614 284.73615200416725 L 358 292 M 343.74389561298614 299.26384799583275 L 358 292" stroke="gray" stroke-dasharray="4 3" x="318px" y="292px" width="40px" height="0px"></path></g><g visibility="inherit"><path d="M 385.17391304347825 322 L 319.7391304347826 408 M 334.15229155209596 401.0530016117486 L 319.7391304347826 408 M 322.59073422246394 392.25616451311555 L 319.7391304347826 408" stroke="black" x="385.17391304347825px" y="322px" width="-65.43478260869563px" height="86px"></path><text x="363.3597269381459px" y="375.1162619897991px" visibility="inherit" font-size="9pt" dy="5px"><tspan class="text" dy="0.35em" x="363.3597269381459px">Send</tspan></text></g></g></g></svg>
