<svg xmlns="http://www.w3.org/2000/svg" id="svgRoot" class="svg-root" width="640px" height="568px" viewBox="0 0 640 568"><style></style><g><g visibility="inherit"><rect stroke="none" fill="none" x="0px" y="0px" width="564px" height="568px"></rect><g visibility="inherit"><rect fill="none" stroke="none" x="40px" y="40px" width="484px" height="220px"></rect><g visibility="inherit"><rect fill="none" stroke="none" x="82px" y="82px" width="176px" height="136px"></rect><g visibility="visible"><path d="M 158,132 C 158,148   182,148   182,132 M 158,132 C 158,116   182,116   182,132 M 170,144 L 170,168 M 145,156 L 195,156 M 170,168 L 145,180 M 170,168 L 195,180" stroke="black" width="100px" height="60px" fill="none" visibility="visible" x="120px" y="120px"></path><text x="120px" y="120px" visibility="inherit" font-size="9pt" dy="-14px"><tspan class="text label" dy="-14px" x="120px">User</tspan></text></g></g><g visibility="inherit"><rect fill="none" stroke="none" x="306px" y="82px" width="176px" height="136px"></rect><g visibility="visible"><rect stroke="black" width="100px" height="60px" fill="none" visibility="visible" x="344px" y="120px"></rect><text x="344px" y="120px" visibility="inherit" font-size="9pt" dy="-14px"><tspan class="text label" dy="-14px" x="344px">Browser</tspan></text></g></g></g><g visibility="inherit"><rect fill="none" stroke="none" x="40px" y="308px" width="484px" height="220px"></rect><g visibility="inherit"><rect fill="none" stroke="none" x="82px" y="350px" width="176px" height="136px"></rect><g visibility="visible"><rect stroke="black" width="100px" height="60px" fill="none" visibility="visible" x="120px" y="388px"></rect><text x="120px" y="388px" visibility="inherit" font-size="9pt" dy="-14px"><tspan class="text label" dy="-14px" x="120px">Authorizer</tspan></text></g></g><g visibility="inherit"><rect fill="none" stroke="none" x="306px" y="350px" width="176px" height="136px"></rect><g visibility="inherit"><rect stroke="black" width="100px" height="60px" fill="none" x="344px" y="388px"></rect><text x="344px" y="388px" visibility="inherit" font-size="9pt" dy="-14px"><tspan class="text label" dy="-14px" x="344px">Service</tspan></text></g></g></g><g visibility="visible"><path d="M 220 150 L 344 150 M 329.74389561298614 142.73615200416725 L 344 150 M 329.74389561298614 157.26384799583275 L 344 150" stroke="black" visibility="visible" x="220px" y="150px" width="124px" height="0px"></path><text x="271.15px" y="167px" visibility="inherit" font-size="9pt" dy="5px"><tspan class="text" dy="0.35em" x="271.15px">input id/password</tspan></text></g><g visibility="visible"><path d="M 368.92537313432837 180 L 195.07462686567163 388 M 209.79062921916224 381.71993035611393 L 195.07462686567163 388 M 198.6437929539927 372.4031716867185 L 195.07462686567163 388" stroke="black" visibility="visible" x="368.92537313432837px" y="180px" width="-173.85074626865674px" height="208px"></path><text x="295.47902300681176px" y="291.4957216131784px" visibility="inherit" font-size="9pt" dy="5px"><tspan class="text" dy="0.35em" x="295.47902300681176px">send id/password</tspan></text></g></g></g></svg>
