<svg xmlns="http://www.w3.org/2000/svg" id="svgRoot" class="svg-root" width="640px" height="568px" viewBox="0 0 640 568"><style></style><g><g visibility="inherit"><rect stroke="none" fill="none" x="0px" y="0px" width="564px" height="568px"></rect><g visibility="inherit"><rect fill="none" stroke="none" x="40px" y="40px" width="484px" height="220px"></rect><g visibility="inherit"><rect fill="none" stroke="none" x="82px" y="82px" width="176px" height="136px"></rect><g visibility="inherit"><path d="M 158,132 C 158,148   182,148   182,132 M 158,132 C 158,116   182,116   182,132 M 170,144 L 170,168 M 145,156 L 195,156 M 170,168 L 145,180 M 170,168 L 195,180" stroke="black" fill="none" width="100px" height="60px" x="120px" y="120px"></path><text x="120px" y="120px" visibility="inherit" font-size="9pt" dy="-14px"><tspan class="text label" dy="-14px" x="120px">User</tspan></text></g></g><g visibility="inherit"><rect fill="none" stroke="none" x="306px" y="82px" width="176px" height="136px"></rect><g visibility="visible"><rect stroke="black" fill="none" width="100px" height="60px" visibility="visible" x="344px" y="120px"></rect><text x="344px" y="120px" visibility="inherit" font-size="9pt" dy="-14px"><tspan class="text label" dy="-14px" x="344px">Browser</tspan></text></g></g></g><g visibility="inherit"><rect fill="none" stroke="none" x="40px" y="308px" width="484px" height="220px"></rect><g visibility="inherit"><rect fill="none" stroke="none" x="82px" y="350px" width="176px" height="136px"></rect><g visibility="visible"><rect stroke="black" fill="none" width="100px" height="60px" visibility="visible" x="120px" y="388px"></rect><text x="120px" y="388px" visibility="inherit" font-size="9pt" dy="-14px"><tspan class="text label" dy="-14px" x="120px">Authorizer</tspan></text></g></g><g visibility="inherit"><rect fill="none" stroke="none" x="306px" y="350px" width="176px" height="136px"></rect><g visibility="inherit"><rect stroke="black" fill="none" width="100px" height="60px" x="344px" y="388px"></rect><text x="344px" y="388px" visibility="inherit" font-size="9pt" dy="-14px"><tspan class="text label" dy="-14px" x="344px">Service</tspan></text></g></g></g><g visibility="visible"><path d="M 344 165.89285714285714 L 158.3582089552239 388 M 173.0742113087145 381.71993035611393 L 158.3582089552239 388 M 161.92737504354494 372.4031716867185 L 158.3582089552239 388" stroke="black" dx="-20px" dy="-20px" visibility="visible" x="344px" y="165.89285714285714px" width="-185.6417910447761px" height="222.10714285714286px"></path><text x="274.8484259918864px" y="259.03590018460693px" visibility="inherit" font-size="9pt" dy="-20px" dx="10px"><tspan class="text" dy="0.35em" x="274.8484259918864px">request auth page</tspan></text></g><g visibility="visible"><path d="M 220 390.1428571428571 L 395.64179104477614 180 M 380.92578869128556 186.28006964388604 L 395.64179104477614 180 M 392.07262495645506 195.5968283132815 L 395.64179104477614 180" stroke="black" dx="10" dy="20" visibility="visible" x="220px" y="390.1428571428571px" width="175.64179104477614px" height="-210.1428571428571px"></path><text x="311.81633643964756px" y="302.0921501846069px" visibility="inherit" font-size="9pt" dy="5px"><tspan class="text" dy="0.35em" x="311.81633643964756px">reply input form</tspan></text></g></g></g></svg>
