<svg xmlns="http://www.w3.org/2000/svg" id="svgRoot" class="svg-root" width="640px" height="568px" viewBox="0 0 640 568"><style></style><g><g visibility="inherit"><rect stroke="none" fill="none" x="0px" y="0px" width="564px" height="568px"></rect><g visibility="inherit"><rect fill="none" stroke="none" x="40px" y="40px" width="484px" height="220px"></rect><g visibility="inherit"><rect fill="none" stroke="none" x="82px" y="82px" width="176px" height="136px"></rect><g visibility="inherit"><path d="M 158,132 C 158,148   182,148   182,132 M 158,132 C 158,116   182,116   182,132 M 170,144 L 170,168 M 145,156 L 195,156 M 170,168 L 145,180 M 170,168 L 195,180" stroke="black" fill="none" width="100px" height="60px" x="120px" y="120px"></path><text x="120px" y="120px" visibility="inherit" font-size="9pt" dy="-14px"><tspan class="text label" dy="-14px" x="120px">User</tspan></text></g></g><g visibility="inherit"><rect fill="none" stroke="none" x="306px" y="82px" width="176px" height="136px"></rect><g visibility="inherit"><rect stroke="black" fill="none" width="100px" height="60px" x="344px" y="120px"></rect><text x="344px" y="120px" visibility="inherit" font-size="9pt" dy="-14px"><tspan class="text label" dy="-14px" x="344px">Browser</tspan></text></g></g></g><g visibility="inherit"><rect fill="none" stroke="none" x="40px" y="308px" width="484px" height="220px"></rect><g visibility="inherit"><rect fill="none" stroke="none" x="82px" y="350px" width="176px" height="136px"></rect><g visibility="inherit"><rect stroke="black" fill="none" width="100px" height="60px" x="120px" y="388px"></rect><text x="120px" y="388px" visibility="inherit" font-size="9pt" dy="-14px"><tspan class="text label" dy="-14px" x="120px">Authorizer</tspan></text></g></g><g visibility="inherit"><rect fill="none" stroke="none" x="306px" y="350px" width="176px" height="136px"></rect><g visibility="inherit"><rect stroke="black" fill="none" width="100px" height="60px" x="344px" y="388px"></rect><text x="344px" y="388px" visibility="inherit" font-size="9pt" dy="-14px"><tspan class="text label" dy="-14px" x="344px">Service</tspan></text></g></g></g></g></g></svg>
